<svg width="219" height="46" viewBox="0 0 219 46" fill="none" xmlns="http://www.w3.org/2000/svg">
<path d="M26.1773 8.88867H19.3328C18.2934 8.88867 17.4442 9.73051 17.4442 10.7773V13.969C17.4442 16.3847 15.4823 18.3465 13.0666 18.3465H9.87499C8.8355 18.3465 7.98633 19.1884 7.98633 20.2352V34.5464C7.98633 35.5859 8.82818 36.4351 9.87499 36.4351H15.7385C16.778 36.4351 17.6272 35.5932 17.6272 34.5464V22.9071C17.6272 20.4914 19.589 18.5295 22.0047 18.5295H26.17C27.2095 18.5295 28.0587 17.6877 28.0587 16.6409V10.7773C28.0587 9.73783 27.2168 8.88867 26.17 8.88867H26.1773Z" fill="white"/>
<path d="M26.1773 45.8857H19.3328C18.2934 45.8857 17.4442 45.0439 17.4442 43.9971V40.8054C17.4442 38.3897 15.4823 36.4278 13.0666 36.4278H9.87499C8.8355 36.4278 7.98633 35.586 7.98633 34.5392V20.2279C7.98633 19.1885 8.82818 18.3393 9.87499 18.3393H15.7385C16.778 18.3393 17.6272 19.1811 17.6272 20.2279V31.8673C17.6272 34.283 19.589 36.2448 22.0047 36.2448H26.17C27.2095 36.2448 28.0587 37.0867 28.0587 38.1335V43.9971C28.0587 45.0365 27.2168 45.8857 26.17 45.8857H26.1773Z" fill="white"/>
<path d="M7.45214 15.5501H7.43748C7.43748 15.5501 7.41549 15.5501 7.40817 15.5354C7.40085 15.5428 7.39355 15.5501 7.37891 15.5501H7.37158C7.37158 15.5501 7.34963 15.5501 7.34231 15.5354C7.33499 15.5354 7.33499 15.5208 7.33499 15.5135V12.051C7.33499 12.051 7.3716 12.007 7.39356 12.0217C7.39356 12.0217 7.40818 12.0144 7.4155 12.0144C7.75223 12.0144 8.089 11.9704 8.4111 11.8753C8.43306 11.8753 8.45502 11.8826 8.45502 11.9046L9.38467 15.2353C9.38467 15.2353 9.38467 15.25 9.38467 15.2646C9.38467 15.2719 9.37737 15.2792 9.36273 15.2792C8.7405 15.4476 8.10361 15.5428 7.45942 15.5501H7.45214ZM3.71141 14.5618C3.71141 14.5618 3.6968 14.5618 3.68948 14.5618C3.14045 14.2471 2.62069 13.8518 2.16683 13.3979C2.16683 13.3979 2.15951 13.3686 2.15951 13.3613C2.15951 13.354 2.15951 13.3393 2.16683 13.3393L4.61184 10.8944C4.61184 10.8944 4.62646 10.8797 4.63378 10.8797C4.63378 10.8797 4.65573 10.887 4.66305 10.8944C4.90462 11.1359 5.1755 11.3409 5.46831 11.5093C5.48295 11.5239 5.49029 11.5459 5.48297 11.5605L3.74801 14.5545C3.74801 14.5545 3.73338 14.5692 3.71874 14.5692L3.71141 14.5618ZM12.613 13.354C12.613 13.354 12.591 13.354 12.5837 13.354L10.124 10.9236C10.124 10.9236 10.1167 10.909 10.1167 10.9017C10.1167 10.887 10.1167 10.8797 10.124 10.8724C10.3656 10.6308 10.5706 10.36 10.739 10.0672C10.7463 10.0525 10.7682 10.0452 10.7902 10.0525L13.7915 11.7655C13.7915 11.7655 13.8062 11.7728 13.8062 11.7874C13.8135 11.7874 13.8062 11.8021 13.8062 11.8094C13.4841 12.3731 13.0961 12.8855 12.6422 13.3467C12.6422 13.3467 12.6203 13.3613 12.613 13.3613V13.354ZM0.285504 10.1111C0.285504 10.1111 0.256231 10.1111 0.248911 10.0891C0.0878636 9.4742 0 8.83002 0 8.18583C0 8.14191 0.0292795 8.14191 0.0439202 8.14191H3.49914C3.49914 8.14191 3.51376 8.14191 3.52108 8.14191C3.5284 8.14923 3.52841 8.15655 3.53573 8.16387V8.1785C3.53573 8.51524 3.57965 8.84466 3.66749 9.16675C3.66749 9.18871 3.66751 9.20335 3.63823 9.21067L0.300159 10.1111H0.285504ZM11.2733 8.1785C11.2733 8.1785 11.2513 8.17119 11.2513 8.16387C11.244 8.15655 11.2367 8.14923 11.2367 8.14191C11.2367 7.79054 11.1855 7.46111 11.0976 7.13902C11.0976 7.1317 11.0976 7.11706 11.0976 7.10974C11.0976 7.10242 11.1049 7.0951 11.1196 7.0951L14.4504 6.18006C14.4504 6.18006 14.4723 6.17274 14.4796 6.18006C14.4796 6.18006 14.4943 6.1947 14.4943 6.20202C14.6627 6.82425 14.7578 7.46111 14.7578 8.11262C14.7578 8.11262 14.7432 8.15654 14.7212 8.15654L11.266 8.1785H11.2733ZM4.00424 6.2679C4.00424 6.2679 3.98226 6.26791 3.98226 6.25326L0.988272 4.5403C0.988272 4.5403 0.966296 4.5037 0.973617 4.48906C1.29571 3.93272 1.69104 3.4203 2.1449 2.95912C2.1449 2.95912 2.18146 2.93715 2.1961 2.95179L4.64111 5.38946C4.64111 5.38946 4.65576 5.40411 4.65576 5.41875C4.65576 5.41875 4.64843 5.43339 4.64111 5.44071C4.39954 5.68228 4.19456 5.95313 4.03351 6.23862C4.03351 6.23862 4.01156 6.2679 3.99692 6.2679H4.00424ZM10.1167 5.43338C10.1167 5.43338 10.1021 5.43338 10.0948 5.42606C9.85319 5.18449 9.58232 4.97953 9.29683 4.81116C9.27487 4.80384 9.2749 4.77455 9.28222 4.75991L10.9952 1.75858C10.9952 1.75858 11.0098 1.74394 11.0171 1.74394H11.0464C11.6027 2.06603 12.1225 2.45401 12.5764 2.90787H12.5837C12.5837 2.90787 12.5983 2.92984 12.5983 2.93716C12.5983 2.9518 12.591 2.95911 12.5837 2.96643L10.1533 5.42606C10.1533 5.42606 10.1387 5.43338 10.124 5.43338H10.1167ZM6.36137 4.44514C6.36137 4.44514 6.32478 4.42318 6.32478 4.40854L5.41706 1.07779C5.41706 1.07779 5.41708 1.04119 5.43905 1.03387C6.05395 0.865497 6.69813 0.777649 7.34964 0.777649C7.34964 0.777649 7.38623 0.792292 7.38623 0.814253L7.40089 4.26945C7.40089 4.26945 7.39355 4.28409 7.38623 4.29141C7.37891 4.29141 7.37157 4.30605 7.36425 4.30605C7.0202 4.30605 6.69079 4.34997 6.3687 4.43781L6.35409 4.44514H6.36137Z" fill="#FFA804"/>
<path d="M7.3785 10.7701C8.81777 10.7701 9.98453 9.60334 9.98453 8.16406C9.98453 6.72479 8.81777 5.55801 7.3785 5.55801C5.93922 5.55801 4.77246 6.72479 4.77246 8.16406C4.77246 9.60334 5.93922 10.7701 7.3785 10.7701Z" fill="white"/>
<mask id="mask0_2_2024" style="mask-type:luminance" maskUnits="userSpaceOnUse" x="20" y="20" width="13" height="13">
<path d="M28.937 20.5585L20.855 24.0375L24.334 32.1196L32.4161 28.6406L28.937 20.5585Z" fill="white"/>
</mask>
<g mask="url(#mask0_2_2024)">
<path d="M24.5231 26.3111C24.7647 26.2086 25.0063 26.0695 25.2406 25.9158C25.3577 25.8353 25.5919 25.6523 25.8262 25.4546C26.2727 25.074 26.3166 24.9568 26.3386 24.8983C26.3825 24.7958 26.3459 24.6713 26.258 24.6054C26.1995 24.5615 26.1556 24.5176 26.1044 24.481C26.0019 24.3932 25.8994 24.3126 25.7676 24.2175C25.526 24.0491 25.3137 23.9393 25.0356 23.8295C24.6988 23.6977 24.3768 23.5879 23.9083 23.5733C23.4617 23.5513 22.9712 23.6465 22.5613 23.8222C21.9171 24.1004 21.5145 24.5615 21.4559 25.0886C21.3974 25.5937 21.6975 26.0256 22.3344 26.377C22.7223 26.5893 23.3373 26.6185 23.7399 26.56C23.9961 26.5234 24.2596 26.4429 24.5305 26.3257L24.5231 26.3111Z" fill="#FFA804"/>
<path d="M27.1362 24.298C27.1362 24.298 27.1582 24.2834 27.1728 24.2761C27.3558 24.1589 27.634 23.7051 27.634 23.7051C27.7511 23.5001 27.8317 23.3025 27.8829 23.0682C27.9927 22.5851 27.839 22.0653 27.5169 21.7945C27.3046 21.6188 27.0411 21.5749 26.7995 21.6773C26.6385 21.7505 26.492 21.8823 26.3603 22.0726C26.1333 22.4094 26.0967 22.8632 26.2431 23.3317C26.3676 23.727 26.6165 24.0857 26.8873 24.2687C26.9605 24.32 27.0557 24.3273 27.1289 24.2907L27.1362 24.298Z" fill="#FFA804"/>
<path d="M30.7163 25.213C29.9696 24.4883 28.8789 24.2687 27.9126 24.6493C27.9346 25.3667 28.3372 26.2013 28.9887 26.8674C29.6988 27.5994 30.6211 28.024 31.3678 28.0021C31.7046 27.0577 31.4849 25.9597 30.7236 25.213H30.7163Z" fill="#FFA804"/>
<path d="M28.6149 27.2261C27.9341 26.5307 27.5022 25.6888 27.4143 24.9055C27.2606 25.008 27.1142 25.1325 26.9825 25.2642C26.6677 25.5863 26.3822 26.1061 26.1553 26.7429C26.4042 27.3505 26.7994 27.9435 27.3119 28.4705C27.9121 29.0855 28.6149 29.5393 29.3177 29.7882C29.4275 29.7443 29.5299 29.7077 29.6251 29.6638C30.1522 29.4368 30.5328 29.2026 30.7744 28.9537C30.9062 28.8146 31.0233 28.6682 31.1184 28.5145C30.2839 28.4559 29.3616 27.9947 28.6222 27.2334L28.6149 27.2261Z" fill="#FFA804"/>
<path d="M25.9358 27.475C25.9212 27.5409 25.9065 27.6141 25.8846 27.68C25.6576 28.7195 25.6576 29.6418 25.8846 30.1616C25.9797 30.3885 26.2725 30.4178 26.5141 30.4105C26.7483 30.4105 27.0558 30.3739 27.4071 30.308C27.7878 30.2348 28.1978 30.1396 28.5858 30.0225C28.0001 29.737 27.4437 29.327 26.946 28.8146C26.5433 28.3974 26.1993 27.9435 25.9431 27.4677L25.9358 27.475Z" fill="#FFA804"/>
</g>
<path d="M209.908 24.51V21.4793L216.101 16.0769V15.7475H210.128V13.6612H218.824V16.6918L212.631 22.0942V22.4237H219V24.51H209.908Z" fill="white"/>
<path d="M198.521 24.51V21.4793L204.714 16.0769V15.7475H198.74V13.6612H207.437V16.6918L201.244 22.0942V22.4237H207.612V24.51H198.521Z" fill="white"/>
<path d="M189.577 24.6856C188.743 24.6856 188.003 24.5026 187.359 24.1366C186.715 23.756 186.217 23.2289 185.866 22.5554C185.515 21.8673 185.339 21.0694 185.339 20.1617V13.6612H187.842V19.964C187.842 20.8425 188.055 21.494 188.479 21.9186C188.919 22.3431 189.533 22.5554 190.324 22.5554C191.217 22.5554 191.92 22.2626 192.432 21.677C192.959 21.0914 193.223 20.2495 193.223 19.1515V13.6612H195.726V24.51H193.267V22.9946H192.893C192.703 23.3899 192.352 23.7706 191.839 24.1366C191.342 24.5026 190.588 24.6856 189.577 24.6856Z" fill="white"/>
<path d="M170.272 24.5101V22.1823H172.336V11.4653H170.272V9.13742H178.134C179.056 9.13742 179.862 9.29847 180.55 9.62056C181.252 9.92802 181.794 10.3746 182.175 10.9602C182.57 11.5312 182.768 12.2193 182.768 13.0245V13.2222C182.768 13.9249 182.636 14.5032 182.372 14.9571C182.109 15.4109 181.794 15.7623 181.428 16.0112C181.062 16.2601 180.711 16.4358 180.374 16.5383V16.9116C180.711 16.9995 181.069 17.1678 181.45 17.4167C181.845 17.651 182.175 18.0023 182.438 18.4708C182.717 18.9247 182.856 19.5177 182.856 20.2497V20.4693C182.856 21.3038 182.651 22.0285 182.241 22.6434C181.845 23.2437 181.296 23.7049 180.594 24.027C179.906 24.3491 179.108 24.5101 178.2 24.5101H170.272ZM174.972 22.1164H177.892C178.595 22.1164 179.152 21.948 179.561 21.6113C179.986 21.2599 180.198 20.7694 180.198 20.1399V19.9422C180.198 19.3127 179.993 18.8295 179.583 18.4928C179.173 18.1414 178.61 17.9657 177.892 17.9657H174.972V22.1164ZM174.972 15.572H177.87C178.544 15.572 179.086 15.4036 179.496 15.0669C179.92 14.7302 180.132 14.2617 180.132 13.6614V13.4418C180.132 12.8415 179.92 12.373 179.496 12.0363C179.086 11.6995 178.544 11.5312 177.87 11.5312H174.972V15.572Z" fill="white"/>
<path d="M157.354 24.5101V9.13742H159.879V15.0889H160.252C160.369 14.84 160.56 14.5911 160.823 14.3422C161.087 14.0933 161.431 13.8883 161.856 13.7273C162.295 13.5662 162.844 13.4857 163.503 13.4857C164.337 13.4857 165.076 13.676 165.721 14.0567C166.365 14.4227 166.863 14.9424 167.214 15.6159C167.58 16.2894 167.763 17.0873 167.763 18.0097V24.5101H165.238V18.2073C165.238 17.3289 165.018 16.6774 164.579 16.2528C164.154 15.8136 163.547 15.594 162.756 15.594C161.863 15.594 161.16 15.8941 160.648 16.4944C160.135 17.08 159.879 17.9218 159.879 19.0199V24.5101H157.354Z" fill="white"/>
<path d="M149.495 24.8174C148.44 24.8174 147.489 24.5978 146.64 24.1585C145.79 23.7193 145.117 23.0824 144.619 22.2479C144.136 21.4134 143.895 20.4105 143.895 19.2393V18.9318C143.895 17.7606 144.136 16.7577 144.619 15.9232C145.117 15.0886 145.79 14.4518 146.64 14.0126C147.489 13.5733 148.44 13.3537 149.495 13.3537C150.534 13.3537 151.42 13.5367 152.152 13.9028C152.899 14.2688 153.499 14.7739 153.953 15.4181C154.407 16.0476 154.699 16.7577 154.831 17.5483L152.393 18.0534C152.335 17.5995 152.196 17.1896 151.976 16.8236C151.757 16.4429 151.442 16.1428 151.032 15.9232C150.637 15.7036 150.146 15.5938 149.56 15.5938C148.96 15.5938 148.418 15.7255 147.935 15.989C147.467 16.2379 147.094 16.6186 146.815 17.131C146.552 17.6434 146.42 18.2584 146.42 18.9757V19.1954C146.42 19.9127 146.552 20.5277 146.815 21.0401C147.094 21.5379 147.467 21.9185 147.935 22.182C148.418 22.4456 148.96 22.5773 149.56 22.5773C150.454 22.5773 151.127 22.3504 151.581 21.8966C152.049 21.4281 152.342 20.8278 152.459 20.0958L154.897 20.6667C154.721 21.4281 154.407 22.1235 153.953 22.753C153.499 23.3826 152.899 23.8877 152.152 24.2683C151.42 24.6344 150.534 24.8174 149.495 24.8174Z" fill="white"/>
<path d="M136.624 24.8174C135.541 24.8174 134.582 24.5904 133.747 24.1366C132.927 23.6681 132.283 23.0166 131.815 22.182C131.361 21.3329 131.134 20.3446 131.134 19.2173V18.9538C131.134 17.8118 131.361 16.8236 131.815 15.989C132.268 15.1545 132.905 14.5103 133.725 14.0565C134.545 13.588 135.489 13.3537 136.558 13.3537C137.612 13.3537 138.535 13.588 139.325 14.0565C140.116 14.5103 140.731 15.1545 141.17 15.989C141.609 16.8236 141.829 17.7972 141.829 18.9099V19.8103H133.681C133.711 20.6594 134.011 21.3402 134.582 21.8526C135.153 22.3651 135.855 22.6213 136.69 22.6213C137.51 22.6213 138.117 22.4456 138.513 22.0942C138.908 21.7282 139.208 21.3183 139.413 20.8644L141.499 21.9405C141.294 22.3358 140.994 22.7604 140.599 23.2142C140.218 23.6534 139.706 24.0341 139.062 24.3562C138.418 24.6636 137.605 24.8174 136.624 24.8174ZM133.703 17.8997H139.259C139.201 17.1823 138.923 16.6113 138.425 16.1867C137.942 15.7621 137.312 15.5498 136.536 15.5498C135.731 15.5498 135.087 15.7621 134.604 16.1867C134.12 16.6113 133.82 17.1823 133.703 17.8997Z" fill="white"/>
<path d="M124.388 24.5101V11.5312H119.798V9.13742H131.613V11.5312H127.024V24.5101H124.388Z" fill="white"/>
<path d="M113.055 24.8174C111.971 24.8174 111.012 24.5904 110.178 24.1366C109.358 23.6681 108.714 23.0166 108.245 22.182C107.791 21.3329 107.564 20.3446 107.564 19.2173V18.9538C107.564 17.8118 107.791 16.8236 108.245 15.989C108.699 15.1545 109.336 14.5103 110.156 14.0565C110.976 13.588 111.92 13.3537 112.989 13.3537C114.043 13.3537 114.965 13.588 115.756 14.0565C116.547 14.5103 117.161 15.1545 117.601 15.989C118.04 16.8236 118.259 17.7972 118.259 18.9099V19.8103H110.112C110.141 20.6594 110.441 21.3402 111.012 21.8526C111.583 22.3651 112.286 22.6213 113.121 22.6213C113.94 22.6213 114.548 22.4456 114.943 22.0942C115.339 21.7282 115.639 21.3183 115.844 20.8644L117.93 21.9405C117.725 22.3358 117.425 22.7604 117.03 23.2142C116.649 23.6534 116.137 24.0341 115.492 24.3562C114.848 24.6636 114.036 24.8174 113.055 24.8174ZM110.134 17.8997H115.69C115.631 17.1823 115.353 16.6113 114.856 16.1867C114.372 15.7621 113.743 15.5498 112.967 15.5498C112.162 15.5498 111.517 15.7621 111.034 16.1867C110.551 16.6113 110.251 17.1823 110.134 17.8997Z" fill="white"/>
<path d="M102.569 24.5102C101.866 24.5102 101.303 24.3052 100.878 23.8953C100.468 23.4707 100.263 22.8997 100.263 22.1823V15.7478H97.4302V13.6615H100.263V10.1697H102.789V13.6615H105.907V15.7478H102.789V21.7651C102.789 22.2043 102.994 22.4239 103.404 22.4239H105.578V24.5102H102.569Z" fill="white"/>
<path d="M89.8977 24.8174C89.1364 24.8174 88.4483 24.6856 87.8334 24.4221C87.2185 24.1439 86.728 23.7486 86.362 23.2362C86.0106 22.7238 85.835 22.0942 85.835 21.3475C85.835 20.6155 86.0106 20.0006 86.362 19.5028C86.728 19.005 87.2258 18.6317 87.8554 18.3828C88.4849 18.1193 89.2023 17.9875 90.0076 17.9875H93.148V17.3287C93.148 16.7577 92.9723 16.2965 92.6209 15.9451C92.2695 15.5791 91.7205 15.3961 90.9738 15.3961C90.2418 15.3961 89.6855 15.5718 89.3048 15.9232C88.9388 16.2599 88.6972 16.6991 88.5801 17.2408L86.2522 16.4722C86.4279 15.9012 86.7061 15.3815 87.0867 14.913C87.482 14.4445 88.0018 14.0711 88.646 13.7929C89.2902 13.5001 90.0808 13.3537 91.0178 13.3537C92.4379 13.3537 93.5506 13.7124 94.3558 14.4298C95.1757 15.1326 95.5856 16.1574 95.5856 17.5044V21.7648C95.5856 22.204 95.7906 22.4236 96.2006 22.4236H97.1229V24.5099H95.3441C94.817 24.5099 94.3851 24.3781 94.0484 24.1146C93.7116 23.8511 93.5433 23.4924 93.5433 23.0385V22.9946H93.1699C93.0821 23.1996 92.9284 23.4485 92.7088 23.7413C92.4891 24.0341 92.1524 24.2903 91.6985 24.5099C91.2593 24.7149 90.6591 24.8174 89.8977 24.8174ZM90.315 22.753C91.1495 22.753 91.8303 22.5188 92.3574 22.0503C92.8844 21.5671 93.148 20.923 93.148 20.1177V19.8981H90.1613C89.6196 19.8981 89.1804 20.0152 88.8436 20.2495C88.5069 20.4837 88.3385 20.8278 88.3385 21.2816C88.3385 21.7209 88.5142 22.0796 88.8656 22.3577C89.217 22.6213 89.7001 22.753 90.315 22.753Z" fill="white"/>
<path d="M67.751 24.5102V13.6615H70.2326V14.8694H70.6059C70.7962 14.5034 71.111 14.1813 71.5502 13.9031C72.0041 13.6103 72.6044 13.4639 73.351 13.4639C74.1416 13.4639 74.7785 13.6249 75.2616 13.947C75.7448 14.2691 76.1108 14.679 76.3597 15.1768H76.7111C76.96 14.679 77.3187 14.2691 77.7872 13.947C78.2557 13.6249 78.9218 13.4639 79.7856 13.4639C80.4591 13.4639 81.0667 13.6103 81.6084 13.9031C82.1647 14.1959 82.6039 14.6278 82.926 15.1988C83.2628 15.7698 83.4311 16.4798 83.4311 17.329V24.5102H80.9056V17.5047C80.9056 16.8751 80.7372 16.3993 80.4005 16.0772C80.0638 15.7405 79.5953 15.5721 78.995 15.5721C78.3362 15.5721 77.8091 15.7917 77.4138 16.231C77.0332 16.6555 76.8428 17.2704 76.8428 18.0757V24.5102H74.3393V17.5047C74.3393 16.8751 74.1709 16.3993 73.8342 16.0772C73.4974 15.7405 73.0289 15.5721 72.4287 15.5721C71.7552 15.5721 71.2281 15.7917 70.8475 16.231C70.4668 16.6555 70.2765 17.2704 70.2765 18.0757V24.5102H67.751Z" fill="white"/>
<path d="M62.0242 24.5102V13.6615H64.5497V24.5102H62.0242ZM63.276 12.2779C62.8221 12.2779 62.4268 12.1315 62.0901 11.8387C61.768 11.5313 61.6069 11.1287 61.6069 10.6309C61.6069 10.1331 61.768 9.73779 62.0901 9.44498C62.4268 9.13752 62.8221 8.9838 63.276 8.9838C63.7591 8.9838 64.1544 9.13752 64.4619 9.44498C64.784 9.73779 64.945 10.1331 64.945 10.6309C64.945 11.1287 64.784 11.5313 64.4619 11.8387C64.1544 12.1315 63.7591 12.2779 63.276 12.2779Z" fill="white"/>
<path d="M56.2983 24.5101V9.13742H58.8239V24.5101H56.2983Z" fill="white"/>
<path d="M47.8752 24.8176C46.0011 24.8176 44.5078 24.2906 43.3951 23.2365C42.2824 22.1677 41.7261 20.6377 41.7261 18.6466V15.0011C41.7261 13.01 42.2824 11.4873 43.3951 10.4332C44.5078 9.36443 46.0011 8.83005 47.8752 8.83005C49.7492 8.83005 51.1913 9.34247 52.2015 10.3673C53.2263 11.3922 53.7387 12.7977 53.7387 14.5838V14.7156H51.1473V14.5179C51.1473 13.5517 50.8765 12.7611 50.3348 12.1462C49.8077 11.5166 48.9878 11.2018 47.8752 11.2018C46.7917 11.2018 45.9353 11.5386 45.3057 12.212C44.6908 12.8709 44.3834 13.7859 44.3834 14.9572V18.6905C44.3834 19.8471 44.6908 20.7622 45.3057 21.4357C45.9353 22.1091 46.7917 22.4459 47.8752 22.4459C48.9878 22.4459 49.8077 22.1384 50.3348 21.5235C50.8765 20.894 51.1473 20.096 51.1473 19.1298V18.7564H53.7387V19.0639C53.7387 20.85 53.2263 22.2555 52.2015 23.2804C51.1913 24.3052 49.7492 24.8176 47.8752 24.8176Z" fill="white"/>
<path d="M129.57 37.9136L130.571 32.4119H132.879C133.315 32.4119 133.667 32.4746 133.933 32.6C134.2 32.7235 134.386 32.8928 134.49 33.1077C134.596 33.3226 134.623 33.5662 134.572 33.8384C134.531 34.0604 134.449 34.2512 134.325 34.4106C134.203 34.5682 134.054 34.6971 133.878 34.7974C133.701 34.8959 133.511 34.9666 133.309 35.0096L133.297 35.0634C133.509 35.0723 133.704 35.1314 133.88 35.2407C134.057 35.3499 134.191 35.5039 134.281 35.7027C134.371 35.8997 134.392 36.137 134.343 36.4146C134.29 36.6993 134.167 36.9554 133.975 37.1829C133.782 37.4085 133.521 37.5867 133.191 37.7175C132.864 37.8482 132.47 37.9136 132.011 37.9136H129.57ZM130.815 37.0808H131.99C132.385 37.0808 132.683 37.0119 132.885 36.874C133.087 36.7343 133.208 36.5552 133.247 36.3367C133.277 36.1737 133.259 36.0269 133.194 35.8961C133.13 35.7636 133.023 35.6597 132.873 35.5845C132.724 35.5075 132.538 35.469 132.314 35.469H131.107L130.815 37.0808ZM131.242 34.7517H132.323C132.511 34.7517 132.686 34.7204 132.847 34.6577C133.01 34.5932 133.145 34.5028 133.253 34.3864C133.363 34.2682 133.431 34.1285 133.456 33.9673C133.498 33.7542 133.449 33.5787 133.309 33.4408C133.17 33.3029 132.94 33.2339 132.62 33.2339H131.513L131.242 34.7517Z" fill="white" fill-opacity="0.37"/>
<path d="M136.963 37.9942C136.509 37.9942 136.134 37.9082 135.838 37.7363C135.541 37.5626 135.333 37.3172 135.214 37.0002C135.096 36.6814 135.076 36.3062 135.155 35.8746C135.231 35.4502 135.387 35.0777 135.623 34.7571C135.858 34.4347 136.153 34.184 136.506 34.0049C136.861 33.824 137.254 33.7336 137.684 33.7336C137.963 33.7336 138.219 33.7748 138.452 33.8572C138.686 33.9378 138.883 34.0631 139.044 34.2333C139.205 34.4034 139.316 34.6201 139.377 34.8834C139.438 35.1448 139.435 35.4565 139.368 35.8182L139.318 36.1164H135.608L135.723 35.4609H138.408C138.444 35.2747 138.432 35.109 138.373 34.964C138.314 34.8171 138.216 34.7016 138.079 34.6174C137.941 34.5332 137.769 34.4912 137.563 34.4912C137.353 34.4912 137.157 34.5404 136.974 34.6389C136.794 34.7356 136.642 34.861 136.518 35.015C136.394 35.169 136.316 35.3311 136.282 35.5012L136.162 36.1298C136.119 36.3877 136.128 36.5982 136.191 36.7611C136.254 36.9241 136.364 37.0441 136.521 37.1211C136.678 37.1981 136.876 37.2366 137.116 37.2366C137.273 37.2366 137.418 37.2169 137.551 37.1775C137.685 37.1381 137.804 37.079 137.908 37.0002C138.014 36.9196 138.102 36.8211 138.173 36.7047L139.147 36.8068C139.039 37.0468 138.881 37.2563 138.673 37.4354C138.465 37.6127 138.216 37.7506 137.925 37.8491C137.637 37.9458 137.316 37.9942 136.963 37.9942Z" fill="white" fill-opacity="0.37"/>
<path d="M142.885 37.9136L142.361 33.7873H143.448L143.713 36.6886H143.754L145.097 33.7873H146.171L146.454 36.6725H146.498L147.811 33.7873H148.901L146.866 37.9136H145.756L145.415 35.1251H145.353L143.998 37.9136H142.885Z" fill="white" fill-opacity="0.37"/>
<path d="M150.399 35.4959L149.963 37.9136H148.894L149.895 32.4119H150.941L150.564 34.4885H150.62C150.763 34.2539 150.958 34.0694 151.206 33.9351C151.455 33.8008 151.754 33.7336 152.104 33.7336C152.414 33.7336 152.675 33.7936 152.887 33.9136C153.099 34.0336 153.248 34.2091 153.334 34.4401C153.423 34.6711 153.438 34.9532 153.379 35.2863L152.896 37.9136H151.827L152.28 35.4368C152.329 35.1592 152.289 34.9434 152.16 34.7893C152.032 34.6335 151.83 34.5556 151.553 34.5556C151.363 34.5556 151.187 34.5932 151.026 34.6685C150.865 34.7419 150.73 34.8484 150.62 34.9881C150.512 35.1278 150.438 35.2971 150.399 35.4959Z" fill="white" fill-opacity="0.37"/>
<path d="M155.967 37.9942C155.513 37.9942 155.138 37.9082 154.842 37.7363C154.546 37.5626 154.338 37.3172 154.218 37.0002C154.1 36.6814 154.08 36.3062 154.159 35.8746C154.235 35.4502 154.391 35.0777 154.627 34.7571C154.863 34.4347 155.157 34.184 155.51 34.0049C155.866 33.824 156.258 33.7336 156.688 33.7336C156.967 33.7336 157.223 33.7748 157.457 33.8572C157.69 33.9378 157.888 34.0631 158.049 34.2333C158.209 34.4034 158.32 34.6201 158.381 34.8834C158.442 35.1448 158.439 35.4565 158.372 35.8182L158.322 36.1164H154.612L154.727 35.4609H157.413C157.448 35.2747 157.436 35.109 157.377 34.964C157.318 34.8171 157.22 34.7016 157.083 34.6174C156.945 34.5332 156.774 34.4912 156.567 34.4912C156.357 34.4912 156.161 34.5404 155.979 34.6389C155.798 34.7356 155.646 34.861 155.522 35.015C155.399 35.169 155.32 35.3311 155.287 35.5012L155.166 36.1298C155.123 36.3877 155.133 36.5982 155.195 36.7611C155.258 36.9241 155.368 37.0441 155.525 37.1211C155.682 37.1981 155.88 37.2366 156.12 37.2366C156.277 37.2366 156.422 37.2169 156.556 37.1775C156.689 37.1381 156.808 37.079 156.912 37.0002C157.018 36.9196 157.106 36.8211 157.177 36.7047L158.152 36.8068C158.044 37.0468 157.886 37.2563 157.677 37.4354C157.469 37.6127 157.22 37.7506 156.93 37.8491C156.641 37.9458 156.32 37.9942 155.967 37.9942Z" fill="white" fill-opacity="0.37"/>
<path d="M158.899 37.9136L159.653 33.7873H160.687L160.56 34.475H160.607C160.731 34.2369 160.906 34.0533 161.131 33.9243C161.359 33.7936 161.602 33.7282 161.862 33.7282C161.922 33.7282 161.988 33.7309 162.059 33.7363C162.13 33.7399 162.19 33.7461 162.241 33.7551L162.077 34.6497C162.031 34.6353 161.961 34.6228 161.865 34.612C161.77 34.5995 161.677 34.5932 161.585 34.5932C161.39 34.5932 161.21 34.6317 161.043 34.7088C160.878 34.784 160.739 34.8887 160.625 35.0231C160.511 35.1574 160.437 35.3123 160.404 35.4878L159.965 37.9136H158.899Z" fill="white" fill-opacity="0.37"/>
<path d="M163.999 37.9942C163.546 37.9942 163.171 37.9082 162.874 37.7363C162.578 37.5626 162.37 37.3172 162.25 37.0002C162.132 36.6814 162.113 36.3062 162.191 35.8746C162.268 35.4502 162.424 35.0777 162.66 34.7571C162.895 34.4347 163.19 34.184 163.543 34.0049C163.898 33.824 164.291 33.7336 164.721 33.7336C164.999 33.7336 165.256 33.7748 165.489 33.8572C165.723 33.9378 165.92 34.0631 166.081 34.2333C166.242 34.4034 166.353 34.6201 166.414 34.8834C166.475 35.1448 166.472 35.4565 166.405 35.8182L166.355 36.1164H162.645L162.76 35.4609H165.445C165.48 35.2747 165.469 35.109 165.41 34.964C165.351 34.8171 165.253 34.7016 165.115 34.6174C164.978 34.5332 164.806 34.4912 164.6 34.4912C164.39 34.4912 164.194 34.5404 164.011 34.6389C163.83 34.7356 163.678 34.861 163.555 35.015C163.431 35.169 163.352 35.3311 163.319 35.5012L163.198 36.1298C163.155 36.3877 163.165 36.5982 163.228 36.7611C163.291 36.9241 163.401 37.0441 163.558 37.1211C163.715 37.1981 163.913 37.2366 164.152 37.2366C164.309 37.2366 164.455 37.2169 164.588 37.1775C164.722 37.1381 164.84 37.079 164.944 37.0002C165.05 36.9196 165.139 36.8211 165.209 36.7047L166.184 36.8068C166.076 37.0468 165.918 37.2563 165.71 37.4354C165.502 37.6127 165.253 37.7506 164.962 37.8491C164.674 37.9458 164.353 37.9942 163.999 37.9942Z" fill="white" fill-opacity="0.37"/>
<path d="M172.001 33.7873L171.862 34.5395H169.265L169.401 33.7873H172.001ZM170.219 32.7988H171.285L170.579 36.6725C170.557 36.8032 170.561 36.9035 170.59 36.9734C170.622 37.0414 170.672 37.088 170.741 37.113C170.811 37.1381 170.891 37.1507 170.979 37.1507C171.044 37.1507 171.105 37.1462 171.162 37.1372C171.219 37.1265 171.264 37.1184 171.297 37.113L171.344 37.8733C171.279 37.8912 171.192 37.9109 171.082 37.9324C170.974 37.9539 170.845 37.9664 170.693 37.97C170.423 37.9754 170.187 37.9378 169.987 37.8572C169.788 37.7748 169.643 37.6485 169.551 37.4784C169.461 37.3065 169.44 37.0916 169.489 36.8337L170.219 32.7988Z" fill="white" fill-opacity="0.37"/>
<path d="M173.743 35.4959L173.307 37.9136H172.239L173.24 32.4119H174.285L173.908 34.4885H173.964C174.107 34.2539 174.303 34.0694 174.55 33.9351C174.799 33.8008 175.099 33.7336 175.448 33.7336C175.758 33.7336 176.019 33.7936 176.231 33.9136C176.443 34.0336 176.592 34.2091 176.679 34.4401C176.767 34.6711 176.782 34.9532 176.723 35.2863L176.24 37.9136H175.171L175.625 35.4368C175.674 35.1592 175.633 34.9434 175.504 34.7893C175.376 34.6335 175.174 34.5556 174.897 34.5556C174.707 34.5556 174.531 34.5932 174.37 34.6685C174.209 34.7419 174.074 34.8484 173.964 34.9881C173.856 35.1278 173.782 35.2971 173.743 35.4959Z" fill="white" fill-opacity="0.37"/>
<path d="M179.311 37.9942C178.858 37.9942 178.483 37.9082 178.186 37.7363C177.89 37.5626 177.682 37.3172 177.562 37.0002C177.444 36.6814 177.425 36.3062 177.503 35.8746C177.58 35.4502 177.736 35.0777 177.971 34.7571C178.207 34.4347 178.501 34.184 178.855 34.0049C179.21 33.824 179.603 33.7336 180.032 33.7336C180.311 33.7336 180.567 33.7748 180.801 33.8572C181.035 33.9378 181.232 34.0631 181.393 34.2333C181.554 34.4034 181.665 34.6201 181.726 34.8834C181.786 35.1448 181.783 35.4565 181.717 35.8182L181.667 36.1164H177.957L178.071 35.4609H180.757C180.792 35.2747 180.78 35.109 180.721 34.964C180.663 34.8171 180.564 34.7016 180.427 34.6174C180.29 34.5332 180.118 34.4912 179.912 34.4912C179.702 34.4912 179.505 34.5404 179.323 34.6389C179.142 34.7356 178.99 34.861 178.866 35.015C178.743 35.169 178.664 35.3311 178.631 35.5012L178.51 36.1298C178.467 36.3877 178.477 36.5982 178.54 36.7611C178.602 36.9241 178.712 37.0441 178.869 37.1211C179.026 37.1981 179.225 37.2366 179.464 37.2366C179.621 37.2366 179.766 37.2169 179.9 37.1775C180.033 37.1381 180.152 37.079 180.256 37.0002C180.362 36.9196 180.451 36.8211 180.521 36.7047L181.496 36.8068C181.388 37.0468 181.23 37.2563 181.022 37.4354C180.814 37.6127 180.564 37.7506 180.274 37.8491C179.985 37.9458 179.664 37.9942 179.311 37.9942Z" fill="white" fill-opacity="0.37"/>
<path d="M184.348 37.9136L185.349 32.4119H186.415L186.044 34.4697H186.091C186.161 34.3694 186.257 34.2628 186.376 34.15C186.498 34.0354 186.652 33.9378 186.839 33.8572C187.025 33.7748 187.251 33.7336 187.516 33.7336C187.865 33.7336 188.166 33.8151 188.417 33.9781C188.668 34.1392 188.848 34.3783 188.956 34.6953C189.064 35.0105 189.076 35.3974 188.994 35.8558C188.911 36.3089 188.76 36.694 188.54 37.011C188.321 37.328 188.055 37.5697 187.742 37.7363C187.43 37.9028 187.097 37.9861 186.741 37.9861C186.482 37.9861 186.274 37.9467 186.117 37.8679C185.962 37.7891 185.843 37.6942 185.761 37.5832C185.678 37.4703 185.619 37.3638 185.581 37.2635H185.514L185.396 37.9136H184.348ZM185.77 35.8505C185.723 36.1173 185.722 36.351 185.767 36.5516C185.814 36.7522 185.906 36.9089 186.044 37.0217C186.183 37.1327 186.366 37.1883 186.594 37.1883C186.828 37.1883 187.034 37.131 187.212 37.0163C187.393 36.8999 187.542 36.7414 187.66 36.5409C187.778 36.3385 187.86 36.1083 187.907 35.8505C187.953 35.5944 187.953 35.3669 187.907 35.1681C187.864 34.9693 187.773 34.8135 187.634 34.7007C187.496 34.5879 187.31 34.5315 187.074 34.5315C186.844 34.5315 186.64 34.5861 186.462 34.6953C186.283 34.8046 186.135 34.9577 186.017 35.1547C185.899 35.3517 185.817 35.5836 185.77 35.8505Z" fill="white" fill-opacity="0.37"/>
<path d="M192.721 36.1782L193.16 33.7873H194.225L193.472 37.9136H192.438L192.574 37.1802H192.526C192.385 37.4112 192.183 37.6002 191.92 37.747C191.659 37.8939 191.359 37.9673 191.019 37.9673C190.723 37.9673 190.472 37.9073 190.268 37.7873C190.064 37.6655 189.919 37.4891 189.832 37.2581C189.748 37.0253 189.735 36.7441 189.794 36.4146L190.277 33.7873H191.343L190.889 36.2642C190.844 36.5256 190.885 36.7334 191.013 36.8874C191.143 37.0414 191.335 37.1184 191.59 37.1184C191.747 37.1184 191.905 37.0835 192.064 37.0137C192.225 36.9438 192.366 36.8399 192.485 36.702C192.605 36.5623 192.684 36.3877 192.721 36.1782Z" fill="white" fill-opacity="0.37"/>
<path d="M194.512 37.9136L194.627 37.2957L197.439 34.6282L197.45 34.5932H195.195L195.345 33.7873H198.902L198.784 34.4509L196.09 37.0728L196.078 37.1077H198.375L198.231 37.9136H194.512Z" fill="white" fill-opacity="0.37"/>
<path d="M199.176 37.9136L199.291 37.2957L202.103 34.6282L202.114 34.5932H199.859L200.009 33.7873H203.566L203.448 34.4509L200.754 37.0728L200.742 37.1077H203.039L202.895 37.9136H199.176Z" fill="white" fill-opacity="0.37"/>
<path d="M205.952 37.9136L206.706 33.7873H207.772L207.018 37.9136H205.952ZM207.395 33.1963C207.224 33.1963 207.083 33.1444 206.971 33.0405C206.859 32.9367 206.81 32.8122 206.824 32.6671C206.838 32.5221 206.909 32.3976 207.039 32.2937C207.17 32.1898 207.321 32.1379 207.489 32.1379C207.66 32.1379 207.801 32.1898 207.91 32.2937C208.022 32.3976 208.071 32.5221 208.058 32.6671C208.046 32.8122 207.974 32.9367 207.843 33.0405C207.713 33.1444 207.564 33.1963 207.395 33.1963Z" fill="white" fill-opacity="0.37"/>
<path d="M212.24 34.878L211.259 34.9747C211.249 34.8834 211.219 34.7983 211.168 34.7195C211.117 34.6407 211.04 34.578 210.938 34.5315C210.838 34.4831 210.708 34.4589 210.549 34.4589C210.318 34.4589 210.115 34.5064 209.94 34.6013C209.765 34.6962 209.666 34.818 209.643 34.9666C209.621 35.0777 209.65 35.1681 209.731 35.238C209.811 35.3078 209.961 35.3669 210.178 35.4153L210.926 35.5657C211.339 35.6499 211.635 35.786 211.816 35.974C211.998 36.1621 212.062 36.4083 212.007 36.7128C211.96 36.9671 211.838 37.191 211.642 37.3844C211.446 37.576 211.194 37.7255 210.888 37.833C210.584 37.9404 210.246 37.9942 209.875 37.9942C209.312 37.9942 208.878 37.8876 208.574 37.6745C208.271 37.4596 208.121 37.1641 208.123 36.788L209.171 36.6967C209.183 36.8829 209.255 37.0235 209.386 37.1184C209.518 37.2115 209.7 37.259 209.934 37.2608C210.197 37.2626 210.419 37.2124 210.599 37.1104C210.782 37.0065 210.885 36.8802 210.909 36.7316C210.928 36.6205 210.898 36.5301 210.817 36.4603C210.739 36.3904 210.599 36.3349 210.396 36.2937L209.654 36.146C209.234 36.0618 208.935 35.9194 208.756 35.7188C208.58 35.5165 208.52 35.2613 208.577 34.9532C208.624 34.7025 208.739 34.4867 208.921 34.3058C209.106 34.1231 209.342 33.9825 209.631 33.884C209.919 33.7838 210.242 33.7336 210.599 33.7336C211.137 33.7336 211.543 33.8366 211.816 34.0425C212.088 34.2485 212.23 34.527 212.24 34.878Z" fill="white" fill-opacity="0.37"/>
<path d="M213.383 37.9727C213.203 37.9727 213.054 37.9154 212.936 37.8008C212.818 37.6861 212.763 37.5464 212.771 37.3817C212.779 37.2205 212.851 37.0835 212.986 36.9707C213.121 36.8578 213.277 36.8014 213.454 36.8014C213.629 36.8014 213.777 36.8587 213.899 36.9734C214.022 37.088 214.078 37.2241 214.067 37.3817C214.059 37.4927 214.021 37.593 213.955 37.6826C213.89 37.7721 213.807 37.8428 213.707 37.8948C213.607 37.9467 213.499 37.9727 213.383 37.9727Z" fill="white" fill-opacity="0.37"/>
<path d="M215.788 37.9727C215.608 37.9727 215.459 37.9154 215.341 37.8008C215.223 37.6861 215.168 37.5464 215.176 37.3817C215.184 37.2205 215.255 37.0835 215.391 36.9707C215.526 36.8578 215.682 36.8014 215.859 36.8014C216.034 36.8014 216.182 36.8587 216.304 36.9734C216.427 37.088 216.483 37.2241 216.471 37.3817C216.464 37.4927 216.426 37.593 216.36 37.6826C216.295 37.7721 216.212 37.8428 216.112 37.8948C216.012 37.9467 215.904 37.9727 215.788 37.9727Z" fill="white" fill-opacity="0.37"/>
<path d="M218.193 37.9727C218.013 37.9727 217.863 37.9154 217.746 37.8008C217.628 37.6861 217.573 37.5464 217.581 37.3817C217.589 37.2205 217.66 37.0835 217.796 36.9707C217.931 36.8578 218.087 36.8014 218.264 36.8014C218.439 36.8014 218.587 36.8587 218.708 36.9734C218.832 37.088 218.888 37.2241 218.876 37.3817C218.868 37.4927 218.831 37.593 218.764 37.6826C218.7 37.7721 218.617 37.8428 218.517 37.8948C218.417 37.9467 218.309 37.9727 218.193 37.9727Z" fill="white" fill-opacity="0.37"/>
</svg>
