<svg width="161" height="35" viewBox="0 0 161 35" fill="none" xmlns="http://www.w3.org/2000/svg">
<path d="M15.9103 12.0515H24.6446C25.4961 12.0515 26.1849 11.3628 26.1849 10.5112V5.73397C26.1849 4.88245 25.4961 4.19373 24.6446 4.19373H13.7314C12.8799 4.19373 12.1912 4.88245 12.1912 5.73397V8.33235C12.1912 10.3046 10.5945 11.9012 8.62227 11.9012H6.02389C5.17237 11.9012 4.48364 12.59 4.48364 13.4415V25.0998C4.48364 25.9513 5.17237 26.64 6.02389 26.64H8.62227C10.5945 26.64 12.1912 28.2366 12.1912 30.2089V32.8073C12.1912 33.6588 12.8799 34.3475 13.7314 34.3475H24.6446C25.4961 34.3475 26.1849 33.6588 26.1849 32.8073V28.03C26.1849 27.1785 25.4961 26.4898 24.6446 26.4898H15.9103C13.938 26.4898 12.3414 24.8931 12.3414 22.9209V15.6141C12.3414 13.6418 13.938 12.0452 15.9103 12.0452V12.0515Z" fill="white"/>
<path d="M24.5257 15.1822V21.6186C24.5257 21.7814 24.4318 21.9317 24.2752 21.9943L20.0865 23.7474C19.9863 23.7913 19.8736 23.7913 19.7735 23.7474L15.5847 21.9943C15.4345 21.9317 15.3343 21.7814 15.3343 21.6186V15.1822C15.3343 14.8942 15.6286 14.7001 15.8915 14.8128L19.7735 16.4344C19.8736 16.4782 19.9863 16.4782 20.0865 16.4344L21.727 15.7457V19.6151L22.6536 18.3879L23.5803 19.1643V14.9756L23.9685 14.8128C24.2314 14.7001 24.5257 14.8942 24.5257 15.1822Z" fill="white"/>
<mask id="mask0_2_1195" style="mask-type:luminance" maskUnits="userSpaceOnUse" x="0" y="0" width="10" height="10">
<path d="M6.91268 3.708e-05L0 2.97568L2.97564 9.88835L9.88832 6.91271L6.91268 3.708e-05Z" fill="white"/>
</mask>
<g mask="url(#mask0_2_1195)">
<path d="M3.13787 4.92021C3.34449 4.83255 3.55111 4.7136 3.75147 4.58212C3.85165 4.51324 4.052 4.35671 4.25236 4.18766C4.63429 3.86208 4.67186 3.76189 4.69065 3.71181C4.72821 3.62415 4.69691 3.51771 4.62177 3.46136C4.57168 3.4238 4.53412 3.38622 4.49029 3.35491C4.40263 3.27978 4.31498 3.21092 4.20228 3.12952C3.99566 2.98551 3.81408 2.8916 3.57616 2.79768C3.28814 2.68498 3.01265 2.59106 2.61194 2.57853C2.23001 2.55975 1.8105 2.64114 1.45988 2.79141C0.908895 3.02934 0.564534 3.4238 0.514444 3.8746C0.464355 4.30662 0.721061 4.67604 1.26578 4.97657C1.59763 5.15815 2.12356 5.18319 2.46793 5.1331C2.68707 5.1018 2.91247 5.03292 3.14414 4.93274L3.13787 4.92021Z" fill="#FFA804"/>
<path d="M5.37334 3.19223C5.37334 3.19223 5.39211 3.1797 5.40463 3.17344C5.56116 3.07326 5.79909 2.68507 5.79909 2.68507C5.89927 2.50976 5.96814 2.34071 6.01197 2.14035C6.10589 1.72712 5.9744 1.28256 5.69891 1.0509C5.51734 0.900628 5.29194 0.863058 5.08532 0.950715C4.94757 1.01333 4.82235 1.12603 4.70965 1.28882C4.51555 1.57684 4.48424 1.96503 4.60947 2.36575C4.71591 2.70385 4.92878 3.01065 5.16045 3.16718C5.22306 3.211 5.30446 3.21726 5.36707 3.18596L5.37334 3.19223Z" fill="#FFA804"/>
<path d="M8.43502 3.97499C7.79638 3.35514 6.86346 3.16729 6.03699 3.49287C6.05577 4.10647 6.40014 4.82024 6.95738 5.39001C7.56471 6.01612 8.35362 6.37928 8.99226 6.3605C9.28028 5.55281 9.09244 4.61363 8.44128 3.97499H8.43502Z" fill="#FFA804"/>
<path d="M6.63781 5.70283C6.05552 5.10802 5.68611 4.38799 5.61098 3.71805C5.47949 3.8057 5.35427 3.91214 5.24157 4.02484C4.97234 4.30033 4.72815 4.74489 4.53406 5.28961C4.74694 5.80929 5.08504 6.31643 5.52332 6.76724C6.03674 7.29317 6.63781 7.68136 7.23888 7.89424C7.3328 7.85667 7.42046 7.82538 7.50185 7.78781C7.95266 7.59371 8.27824 7.39336 8.48486 7.18048C8.59756 7.06151 8.69773 6.93629 8.77913 6.8048C8.06535 6.75471 7.27645 6.36026 6.64407 5.7091L6.63781 5.70283Z" fill="#FFA804"/>
<path d="M4.34614 5.91572C4.33362 5.97207 4.32109 6.03468 4.30231 6.09103C4.10821 6.98012 4.10821 7.76902 4.30231 8.21356C4.38371 8.40766 4.63415 8.4327 4.84077 8.42644C5.04113 8.42644 5.3041 8.39514 5.60464 8.33879C5.93022 8.27618 6.28084 8.19478 6.61269 8.0946C6.11179 7.85041 5.63594 7.49979 5.21018 7.06151C4.86581 6.70462 4.57154 6.31643 4.3524 5.90945L4.34614 5.91572Z" fill="#FFA804"/>
</g>
<path d="M152.705 18.408V15.6431L158.355 10.7143V10.4138H152.906V8.51038H160.84V11.2753L155.19 16.2041V16.5046H161V18.408H152.705Z" fill="white"/>
<path d="M142.316 18.408V15.6431L147.966 10.7143V10.4138H142.516V8.51038H150.45V11.2753L144.8 16.2041V16.5046H150.611V18.408H142.316Z" fill="white"/>
<path d="M134.156 18.5683C133.395 18.5683 132.72 18.4014 132.132 18.0674C131.545 17.7201 131.09 17.2393 130.77 16.6249C130.449 15.9971 130.289 15.2691 130.289 14.441V8.51038H132.573V14.2606C132.573 15.0621 132.767 15.6565 133.154 16.0438C133.555 16.4312 134.116 16.6249 134.837 16.6249C135.652 16.6249 136.293 16.3577 136.761 15.8234C137.241 15.2891 137.482 14.5211 137.482 13.5193V8.51038H139.766V18.408H137.522V17.0256H137.181C137.008 17.3862 136.687 17.7335 136.22 18.0674C135.765 18.4014 135.078 18.5683 134.156 18.5683Z" fill="white"/>
<path d="M116.543 18.4076V16.2838H118.426V6.50636H116.543V4.38257H123.715C124.557 4.38257 125.292 4.5295 125.919 4.82336C126.561 5.10386 127.055 5.51125 127.402 6.04554C127.763 6.56647 127.943 7.19425 127.943 7.9289V8.10922C127.943 8.75036 127.823 9.27797 127.582 9.69204C127.342 10.1061 127.055 10.4267 126.721 10.6538C126.387 10.8808 126.066 11.0411 125.759 11.1346V11.4752C126.066 11.5554 126.394 11.709 126.741 11.936C127.102 12.1498 127.402 12.4703 127.643 12.8978C127.896 13.3118 128.023 13.8528 128.023 14.5207V14.721C128.023 15.4824 127.836 16.1436 127.462 16.7046C127.102 17.2522 126.601 17.673 125.959 17.9668C125.332 18.2607 124.604 18.4076 123.776 18.4076H116.543ZM120.83 16.2237H123.495C124.136 16.2237 124.644 16.0701 125.018 15.7629C125.405 15.4423 125.599 14.9948 125.599 14.4205V14.2402C125.599 13.6658 125.412 13.225 125.038 12.9178C124.664 12.5972 124.15 12.4369 123.495 12.4369H120.83V16.2237ZM120.83 10.253H123.475C124.089 10.253 124.584 10.0994 124.958 9.79222C125.345 9.48501 125.539 9.05758 125.539 8.50993V8.30958C125.539 7.76193 125.345 7.3345 124.958 7.02729C124.584 6.72007 124.089 6.56647 123.475 6.56647H120.83V10.253Z" fill="white"/>
<path d="M104.757 18.4076V4.38257H107.061V9.81226H107.402C107.509 9.58519 107.682 9.35811 107.923 9.13104C108.163 8.90397 108.477 8.71697 108.864 8.57004C109.265 8.42311 109.766 8.34965 110.367 8.34965C111.128 8.34965 111.803 8.52329 112.391 8.87058C112.978 9.20451 113.433 9.67869 113.753 10.2931C114.087 10.9075 114.254 11.6355 114.254 12.477V18.4076H111.95V12.6573C111.95 11.8559 111.75 11.2615 111.349 10.8742C110.961 10.4734 110.407 10.2731 109.686 10.2731C108.871 10.2731 108.23 10.5469 107.762 11.0945C107.295 11.6288 107.061 12.3969 107.061 13.3987V18.4076H104.757Z" fill="white"/>
<path d="M97.5873 18.6884C96.6255 18.6884 95.7573 18.488 94.9826 18.0873C94.2079 17.6866 93.5935 17.1055 93.1393 16.3442C92.6985 15.5828 92.4781 14.6679 92.4781 13.5993V13.3188C92.4781 12.2502 92.6985 11.3352 93.1393 10.5739C93.5935 9.81253 94.2079 9.23149 94.9826 8.83078C95.7573 8.43006 96.6255 8.22971 97.5873 8.22971C98.5356 8.22971 99.3437 8.39667 100.012 8.7306C100.693 9.06453 101.24 9.52535 101.655 10.1131C102.069 10.6874 102.336 11.3352 102.456 12.0565L100.232 12.5174C100.179 12.1033 100.052 11.7293 99.8513 11.3954C99.6509 11.0481 99.3638 10.7742 98.9898 10.5739C98.6291 10.3735 98.1817 10.2734 97.6474 10.2734C97.0997 10.2734 96.6055 10.3936 96.1647 10.634C95.7373 10.8611 95.3967 11.2084 95.1429 11.6759C94.9025 12.1434 94.7823 12.7044 94.7823 13.3589V13.5592C94.7823 14.2137 94.9025 14.7747 95.1429 15.2422C95.3967 15.6964 95.7373 16.0437 96.1647 16.2841C96.6055 16.5245 97.0997 16.6447 97.6474 16.6447C98.4622 16.6447 99.0766 16.4377 99.4907 16.0236C99.9181 15.5962 100.185 15.0485 100.292 14.3807L102.516 14.9016C102.356 15.5962 102.069 16.2307 101.655 16.805C101.24 17.3794 100.693 17.8402 100.012 18.1875C99.3437 18.5214 98.5356 18.6884 97.5873 18.6884Z" fill="white"/>
<path d="M85.8452 18.6884C84.8568 18.6884 83.9819 18.4813 83.2205 18.0673C82.4725 17.6398 81.8848 17.0454 81.4573 16.2841C81.0433 15.5094 80.8362 14.6078 80.8362 13.5793V13.3388C80.8362 12.297 81.0433 11.3954 81.4573 10.634C81.8714 9.87264 82.4525 9.28492 83.2005 8.87085C83.9485 8.44342 84.81 8.22971 85.7851 8.22971C86.7468 8.22971 87.5883 8.44342 88.3096 8.87085C89.0309 9.28492 89.5919 9.87264 89.9926 10.634C90.3933 11.3954 90.5937 12.2836 90.5937 13.2988V14.1202H83.1604C83.1871 14.8949 83.4609 15.516 83.9819 15.9835C84.5028 16.451 85.1439 16.6848 85.9053 16.6848C86.6533 16.6848 87.2076 16.5245 87.5683 16.2039C87.9289 15.87 88.2027 15.496 88.3897 15.0819L90.2931 16.0637C90.1061 16.4243 89.8323 16.8117 89.4717 17.2258C89.1244 17.6265 88.6569 17.9738 88.0692 18.2676C87.4814 18.5481 86.7401 18.6884 85.8452 18.6884ZM83.1804 12.3771H88.2495C88.196 11.7226 87.9423 11.2017 87.4881 10.8143C87.0473 10.427 86.473 10.2333 85.765 10.2333C85.0304 10.2333 84.4427 10.427 84.0019 10.8143C83.5611 11.2017 83.2873 11.7226 83.1804 12.3771Z" fill="white"/>
<path d="M74.6811 18.4076V6.56647H70.4936V4.38257H81.2729V6.56647H77.0854V18.4076H74.6811Z" fill="white"/>
<path d="M62.9155 18.5683C62.1541 18.5683 61.4796 18.4014 60.8918 18.0674C60.3041 17.7201 59.85 17.2393 59.5294 16.6249C59.2088 15.9971 59.0486 15.2691 59.0486 14.441V8.51038H61.3326V14.2606C61.3326 15.0621 61.5263 15.6565 61.9137 16.0438C62.3144 16.4312 62.8754 16.6249 63.5967 16.6249C64.4115 16.6249 65.0526 16.3577 65.5201 15.8234C66.001 15.2891 66.2414 14.5211 66.2414 13.5193V8.51038H68.5255V18.408H66.2815V17.0256H65.9409C65.7672 17.3862 65.4466 17.7335 64.9791 18.0674C64.525 18.4014 63.8371 18.5683 62.9155 18.5683Z" fill="white"/>
<path d="M50.38 18.6881C49.5786 18.6881 48.8306 18.4944 48.136 18.1071C47.4414 17.7063 46.8871 17.1253 46.473 16.364C46.059 15.6026 45.8519 14.6876 45.8519 13.6191V13.2985C45.8519 12.2299 46.059 11.3149 46.473 10.5536C46.8871 9.79222 47.4348 9.21786 48.116 8.83051C48.8105 8.42979 49.5652 8.22943 50.38 8.22943C50.9944 8.22943 51.5154 8.3029 51.9428 8.44983C52.3702 8.59676 52.7108 8.78376 52.9646 9.01083C53.2318 9.2379 53.4388 9.48501 53.5857 9.75215H53.9263V4.38257H56.2104V18.4076H53.9664V17.1053H53.6258C53.3854 17.506 53.018 17.8733 52.5238 18.2072C52.0296 18.5278 51.315 18.6881 50.38 18.6881ZM51.0612 16.6845C51.8894 16.6845 52.5773 16.4174 53.1249 15.8831C53.6726 15.3354 53.9464 14.5607 53.9464 13.5589V13.3586C53.9464 12.3434 53.6726 11.5687 53.1249 11.0344C52.5906 10.5002 51.9027 10.233 51.0612 10.233C50.2331 10.233 49.5385 10.5002 48.9775 11.0344C48.4299 11.5687 48.156 12.3434 48.156 13.3586V13.5589C48.156 14.5607 48.4299 15.3354 48.9775 15.8831C49.5385 16.4174 50.2331 16.6845 51.0612 16.6845Z" fill="white"/>
<path d="M35.1194 18.4077V4.38266H44.0553V6.56656H37.5437V10.2531H43.4943V12.437H37.5437V16.2238H44.1555V18.4077H35.1194Z" fill="white"/>
<path d="M84.5826 29.8896L85.4388 25.1839H87.4133C87.786 25.1839 88.0865 25.2376 88.3149 25.3448C88.5432 25.4505 88.7018 25.5952 88.7908 25.779C88.8815 25.9629 88.905 26.1712 88.8613 26.404C88.8261 26.594 88.7556 26.7571 88.6498 26.8934C88.5457 27.0282 88.4181 27.1385 88.267 27.2243C88.1159 27.3085 87.9539 27.369 87.7809 27.4058L87.7709 27.4518C87.9522 27.4594 88.1184 27.51 88.2695 27.6034C88.4206 27.6968 88.5348 27.8286 88.612 27.9986C88.6893 28.1671 88.7069 28.3701 88.6649 28.6075C88.6196 28.851 88.5146 29.0701 88.3501 29.2646C88.1856 29.4576 87.9623 29.61 87.6802 29.7219C87.3998 29.8337 87.0632 29.8896 86.6703 29.8896H84.5826ZM85.6478 29.1773H86.6527C86.9902 29.1773 87.2454 29.1183 87.4183 29.0004C87.5912 28.8809 87.6945 28.7277 87.7281 28.5409C87.7532 28.4015 87.7381 28.2759 87.6827 28.164C87.6273 28.0507 87.5358 27.9618 87.4082 27.8975C87.2806 27.8316 87.1211 27.7987 86.9297 27.7987H85.8972L85.6478 29.1773ZM86.013 27.1852H86.9373C87.0985 27.1852 87.2479 27.1584 87.3856 27.1048C87.5249 27.0497 87.6408 26.9723 87.7331 26.8727C87.8271 26.7716 87.885 26.6522 87.9069 26.5143C87.9421 26.332 87.9002 26.1819 87.7809 26.064C87.6617 25.946 87.4653 25.887 87.1916 25.887H86.2447L86.013 27.1852Z" fill="white" fill-opacity="0.37"/>
<path d="M90.9057 29.9585C90.5178 29.9585 90.1972 29.885 89.9436 29.7379C89.6901 29.5894 89.5122 29.3795 89.4097 29.1084C89.309 28.8357 89.2922 28.5148 89.3594 28.1457C89.4248 27.7826 89.5583 27.464 89.7598 27.1898C89.9613 26.9141 90.2131 26.6996 90.5153 26.5465C90.8192 26.3918 91.155 26.3144 91.5227 26.3144C91.7611 26.3144 91.9802 26.3496 92.18 26.4201C92.3798 26.489 92.5485 26.5963 92.6862 26.7418C92.8239 26.8873 92.9187 27.0726 92.9708 27.2978C93.0228 27.5215 93.0203 27.788 92.9632 28.0974L92.9204 28.3524H89.7472L89.8454 27.7918H92.1422C92.1724 27.6325 92.1624 27.4908 92.112 27.3667C92.0616 27.2411 91.9777 27.1423 91.8602 27.0703C91.7426 26.9983 91.5957 26.9624 91.4194 26.9624C91.2398 26.9624 91.0719 27.0045 90.9158 27.0887C90.7613 27.1714 90.6312 27.2787 90.5254 27.4104C90.4196 27.5421 90.3525 27.6808 90.3239 27.8263L90.2207 28.3639C90.1837 28.5845 90.1921 28.7645 90.2459 28.9039C90.2996 29.0433 90.3936 29.1459 90.5279 29.2118C90.6622 29.2776 90.8318 29.3106 91.0366 29.3106C91.171 29.3106 91.2952 29.2937 91.4094 29.26C91.5235 29.2263 91.6251 29.1758 91.7141 29.1084C91.8048 29.0395 91.8803 28.9552 91.9407 28.8556L92.7743 28.943C92.682 29.1482 92.5468 29.3274 92.3689 29.4806C92.1909 29.6323 91.9777 29.7502 91.7292 29.8344C91.4824 29.9172 91.2079 29.9585 90.9057 29.9585Z" fill="white" fill-opacity="0.37"/>
<path d="M95.9715 29.8896L95.5232 26.3604H96.4525L96.6792 28.8419H96.7144L97.8628 26.3604H98.782L99.0238 28.8281H99.0616L100.185 26.3604H101.117L99.3764 29.8896H98.4269L98.1348 27.5046H98.0819L96.9234 29.8896H95.9715Z" fill="white" fill-opacity="0.37"/>
<path d="M102.398 27.8217L102.025 29.8896H101.111L101.967 25.1839H102.861L102.539 26.9601H102.587C102.709 26.7594 102.876 26.6016 103.088 26.4867C103.301 26.3718 103.557 26.3144 103.856 26.3144C104.121 26.3144 104.345 26.3657 104.526 26.4684C104.707 26.571 104.835 26.7211 104.909 26.9187C104.984 27.1163 104.997 27.3576 104.947 27.6425L104.533 29.8896H103.619L104.007 27.7711C104.049 27.5337 104.015 27.3491 103.904 27.2174C103.795 27.0841 103.622 27.0175 103.385 27.0175C103.222 27.0175 103.072 27.0497 102.934 27.114C102.797 27.1768 102.681 27.2679 102.587 27.3874C102.494 27.5069 102.431 27.6517 102.398 27.8217Z" fill="white" fill-opacity="0.37"/>
<path d="M107.16 29.9585C106.772 29.9585 106.452 29.885 106.198 29.7379C105.945 29.5894 105.767 29.3795 105.664 29.1084C105.564 28.8357 105.547 28.5148 105.614 28.1457C105.679 27.7826 105.813 27.464 106.014 27.1898C106.216 26.9141 106.468 26.6996 106.77 26.5465C107.074 26.3918 107.41 26.3144 107.777 26.3144C108.016 26.3144 108.235 26.3496 108.435 26.4201C108.634 26.489 108.803 26.5963 108.941 26.7418C109.078 26.8873 109.173 27.0726 109.225 27.2978C109.277 27.5215 109.275 27.788 109.218 28.0974L109.175 28.3524H106.002L106.1 27.7918H108.397C108.427 27.6325 108.417 27.4908 108.367 27.3667C108.316 27.2411 108.232 27.1423 108.115 27.0703C107.997 26.9983 107.85 26.9624 107.674 26.9624C107.494 26.9624 107.326 27.0045 107.17 27.0887C107.016 27.1714 106.886 27.2787 106.78 27.4104C106.674 27.5421 106.607 27.6808 106.578 27.8263L106.475 28.3639C106.438 28.5845 106.447 28.7645 106.5 28.9039C106.554 29.0433 106.648 29.1459 106.782 29.2118C106.917 29.2776 107.086 29.3106 107.291 29.3106C107.425 29.3106 107.55 29.2937 107.664 29.26C107.778 29.2263 107.88 29.1758 107.969 29.1084C108.059 29.0395 108.135 28.9552 108.195 28.8556L109.029 28.943C108.937 29.1482 108.801 29.3274 108.623 29.4806C108.445 29.6323 108.232 29.7502 107.984 29.8344C107.737 29.9172 107.462 29.9585 107.16 29.9585Z" fill="white" fill-opacity="0.37"/>
<path d="M109.669 29.8896L110.313 26.3604H111.197L111.089 26.9486H111.129C111.235 26.7448 111.384 26.5878 111.578 26.4775C111.772 26.3657 111.98 26.3098 112.202 26.3098C112.254 26.3098 112.31 26.3121 112.371 26.3167C112.431 26.3198 112.483 26.3251 112.527 26.3328L112.386 27.0979C112.347 27.0857 112.287 27.0749 112.205 27.0657C112.124 27.055 112.044 27.0497 111.965 27.0497C111.799 27.0497 111.645 27.0826 111.502 27.1485C111.361 27.2128 111.242 27.3024 111.144 27.4173C111.047 27.5322 110.984 27.6647 110.955 27.8148L110.58 29.8896H109.669Z" fill="white" fill-opacity="0.37"/>
<path d="M114.03 29.9585C113.643 29.9585 113.322 29.885 113.068 29.7379C112.815 29.5894 112.637 29.3795 112.535 29.1084C112.434 28.8357 112.417 28.5148 112.484 28.1457C112.55 27.7826 112.683 27.464 112.885 27.1898C113.086 26.9141 113.338 26.6996 113.64 26.5465C113.944 26.3918 114.28 26.3144 114.647 26.3144C114.886 26.3144 115.105 26.3496 115.305 26.4201C115.505 26.489 115.673 26.5963 115.811 26.7418C115.949 26.8873 116.044 27.0726 116.096 27.2978C116.148 27.5215 116.145 27.788 116.088 28.0974L116.045 28.3524H112.872L112.97 27.7918H115.267C115.297 27.6325 115.287 27.4908 115.237 27.3667C115.186 27.2411 115.102 27.1423 114.985 27.0703C114.867 26.9983 114.721 26.9624 114.544 26.9624C114.365 26.9624 114.197 27.0045 114.041 27.0887C113.886 27.1714 113.756 27.2787 113.65 27.4104C113.544 27.5421 113.477 27.6808 113.449 27.8263L113.345 28.3639C113.309 28.5845 113.317 28.7645 113.371 28.9039C113.424 29.0433 113.518 29.1459 113.653 29.2118C113.787 29.2776 113.957 29.3106 114.161 29.3106C114.296 29.3106 114.42 29.2937 114.534 29.26C114.648 29.2263 114.75 29.1758 114.839 29.1084C114.93 29.0395 115.005 28.9552 115.066 28.8556L115.899 28.943C115.807 29.1482 115.672 29.3274 115.494 29.4806C115.316 29.6323 115.102 29.7502 114.854 29.8344C114.607 29.9172 114.333 29.9585 114.03 29.9585Z" fill="white" fill-opacity="0.37"/>
<path d="M120.874 26.3604L120.756 27.0037H118.535L118.651 26.3604H120.874ZM119.351 25.5148H120.262L119.658 28.8281C119.639 28.9399 119.643 29.0257 119.668 29.0854C119.695 29.1436 119.738 29.1834 119.796 29.2049C119.857 29.2263 119.925 29.2371 120 29.2371C120.056 29.2371 120.108 29.2332 120.157 29.2256C120.205 29.2164 120.244 29.2095 120.272 29.2049L120.313 29.8551C120.257 29.8704 120.183 29.8873 120.089 29.9057C119.996 29.9241 119.885 29.9348 119.756 29.9378C119.524 29.9424 119.323 29.9103 119.152 29.8413C118.982 29.7709 118.858 29.6629 118.779 29.5174C118.702 29.3703 118.684 29.1865 118.726 28.9659L119.351 25.5148Z" fill="white" fill-opacity="0.37"/>
<path d="M122.365 27.8217L121.992 29.8896H121.078L121.934 25.1839H122.828L122.506 26.9601H122.553C122.676 26.7594 122.843 26.6016 123.055 26.4867C123.268 26.3718 123.524 26.3144 123.823 26.3144C124.088 26.3144 124.311 26.3657 124.493 26.4684C124.674 26.571 124.802 26.7211 124.875 26.9187C124.951 27.1163 124.964 27.3576 124.913 27.6425L124.5 29.8896H123.586L123.974 27.7711C124.016 27.5337 123.981 27.3491 123.871 27.2174C123.761 27.0841 123.588 27.0175 123.352 27.0175C123.189 27.0175 123.039 27.0497 122.901 27.114C122.763 27.1768 122.647 27.2679 122.553 27.3874C122.461 27.5069 122.398 27.6517 122.365 27.8217Z" fill="white" fill-opacity="0.37"/>
<path d="M127.127 29.9585C126.739 29.9585 126.418 29.885 126.165 29.7379C125.911 29.5894 125.733 29.3795 125.631 29.1084C125.53 28.8357 125.513 28.5148 125.581 28.1457C125.646 27.7826 125.78 27.464 125.981 27.1898C126.182 26.9141 126.434 26.6996 126.737 26.5465C127.04 26.3918 127.376 26.3144 127.744 26.3144C127.982 26.3144 128.201 26.3496 128.401 26.4201C128.601 26.489 128.77 26.5963 128.907 26.7418C129.045 26.8873 129.14 27.0726 129.192 27.2978C129.244 27.5215 129.242 27.788 129.184 28.0974L129.142 28.3524H125.968L126.067 27.7918H128.363C128.394 27.6325 128.384 27.4908 128.333 27.3667C128.283 27.2411 128.199 27.1423 128.081 27.0703C127.964 26.9983 127.817 26.9624 127.641 26.9624C127.461 26.9624 127.293 27.0045 127.137 27.0887C126.982 27.1714 126.852 27.2787 126.747 27.4104C126.641 27.5421 126.574 27.6808 126.545 27.8263L126.442 28.3639C126.405 28.5845 126.413 28.7645 126.467 28.9039C126.521 29.0433 126.615 29.1459 126.749 29.2118C126.883 29.2776 127.053 29.3106 127.258 29.3106C127.392 29.3106 127.516 29.2937 127.631 29.26C127.745 29.2263 127.846 29.1758 127.935 29.1084C128.026 29.0395 128.102 28.9552 128.162 28.8556L128.996 28.943C128.903 29.1482 128.768 29.3274 128.59 29.4806C128.412 29.6323 128.199 29.7502 127.95 29.8344C127.704 29.9172 127.429 29.9585 127.127 29.9585Z" fill="white" fill-opacity="0.37"/>
<path d="M131.435 29.8896L132.291 25.1839H133.203L132.885 26.944H132.926C132.986 26.8582 133.067 26.767 133.17 26.6705C133.274 26.5725 133.406 26.489 133.565 26.4201C133.725 26.3496 133.918 26.3144 134.144 26.3144C134.443 26.3144 134.7 26.3841 134.915 26.5235C135.13 26.6614 135.284 26.8658 135.376 27.137C135.468 27.4066 135.479 27.7374 135.409 28.1296C135.338 28.5171 135.209 28.8464 135.021 29.1176C134.833 29.3887 134.605 29.5955 134.338 29.7379C134.071 29.8804 133.786 29.9516 133.482 29.9516C133.26 29.9516 133.083 29.9179 132.948 29.8505C132.816 29.7831 132.714 29.702 132.643 29.607C132.573 29.5105 132.522 29.4193 132.49 29.3336H132.432L132.331 29.8896H131.435ZM132.651 28.125C132.611 28.3532 132.61 28.5531 132.649 28.7247C132.689 28.8962 132.768 29.0303 132.885 29.1268C133.004 29.2217 133.161 29.2692 133.356 29.2692C133.556 29.2692 133.732 29.2202 133.885 29.1222C134.04 29.0226 134.167 28.887 134.268 28.7155C134.369 28.5424 134.439 28.3456 134.479 28.125C134.518 27.9059 134.518 27.7114 134.479 27.5414C134.442 27.3713 134.364 27.2381 134.245 27.1416C134.128 27.0451 133.968 26.9968 133.767 26.9968C133.57 26.9968 133.396 27.0435 133.243 27.137C133.09 27.2304 132.963 27.3614 132.863 27.5299C132.762 27.6984 132.691 27.8967 132.651 28.125Z" fill="white" fill-opacity="0.37"/>
<path d="M138.596 28.4053L138.972 26.3604H139.883L139.239 29.8896H138.355L138.47 29.2623H138.43C138.309 29.4599 138.136 29.6215 137.911 29.7471C137.688 29.8727 137.431 29.9355 137.141 29.9355C136.887 29.9355 136.673 29.8842 136.499 29.7816C136.324 29.6774 136.2 29.5266 136.126 29.329C136.054 29.1298 136.043 28.8893 136.093 28.6075L136.506 26.3604H137.418L137.03 28.4788C136.991 28.7025 137.027 28.8801 137.136 29.0119C137.247 29.1436 137.411 29.2095 137.629 29.2095C137.764 29.2095 137.899 29.1796 138.035 29.1199C138.172 29.0601 138.293 28.9713 138.395 28.8533C138.497 28.7339 138.564 28.5845 138.596 28.4053Z" fill="white" fill-opacity="0.37"/>
<path d="M140.128 29.8896L140.226 29.3611L142.632 27.0795L142.642 27.0497H140.713L140.841 26.3604H143.883L143.782 26.9279L141.478 29.1704L141.468 29.2003H143.432L143.309 29.8896H140.128Z" fill="white" fill-opacity="0.37"/>
<path d="M144.117 29.8896L144.216 29.3611L146.621 27.0795L146.631 27.0497H144.702L144.83 26.3604H147.872L147.772 26.9279L145.467 29.1704L145.457 29.2003H147.422L147.298 29.8896H144.117Z" fill="white" fill-opacity="0.37"/>
<path d="M149.914 29.8896L150.558 26.3604H151.47L150.825 29.8896H149.914ZM151.148 25.8549C151.002 25.8549 150.881 25.8104 150.785 25.7216C150.689 25.6328 150.647 25.5263 150.659 25.4022C150.671 25.2782 150.732 25.1717 150.843 25.0829C150.955 24.994 151.084 24.9496 151.228 24.9496C151.374 24.9496 151.494 24.994 151.588 25.0829C151.684 25.1717 151.726 25.2782 151.714 25.4022C151.704 25.5263 151.643 25.6328 151.53 25.7216C151.42 25.8104 151.292 25.8549 151.148 25.8549Z" fill="white" fill-opacity="0.37"/>
<path d="M155.291 27.2932L154.452 27.3759C154.444 27.2978 154.418 27.2251 154.374 27.1577C154.331 27.0903 154.265 27.0366 154.178 26.9968C154.092 26.9555 153.981 26.9348 153.845 26.9348C153.647 26.9348 153.474 26.9754 153.324 27.0566C153.175 27.1377 153.09 27.2419 153.07 27.369C153.051 27.464 153.076 27.5414 153.145 27.6011C153.214 27.6608 153.342 27.7114 153.528 27.7528L154.168 27.8814C154.52 27.9534 154.774 28.0698 154.928 28.2307C155.085 28.3915 155.139 28.6021 155.092 28.8625C155.052 29.08 154.948 29.2715 154.78 29.437C154.612 29.6009 154.397 29.7288 154.135 29.8207C153.875 29.9126 153.586 29.9585 153.269 29.9585C152.787 29.9585 152.416 29.8674 152.156 29.6851C151.897 29.5013 151.769 29.2485 151.77 28.9269L152.667 28.8487C152.677 29.0081 152.738 29.1283 152.851 29.2095C152.963 29.2891 153.119 29.3297 153.319 29.3313C153.544 29.3328 153.734 29.2899 153.888 29.2026C154.044 29.1137 154.133 29.0058 154.153 28.8786C154.169 28.7836 154.143 28.7063 154.075 28.6465C154.007 28.5868 153.887 28.5393 153.714 28.5041L153.08 28.3777C152.721 28.3057 152.465 28.184 152.312 28.0124C152.161 27.8393 152.109 27.621 152.158 27.3576C152.198 27.1431 152.297 26.9585 152.453 26.8038C152.611 26.6476 152.813 26.5273 153.06 26.4431C153.306 26.3573 153.583 26.3144 153.888 26.3144C154.348 26.3144 154.695 26.4025 154.928 26.5786C155.162 26.7548 155.283 26.993 155.291 27.2932Z" fill="white" fill-opacity="0.37"/>
<path d="M156.269 29.9401C156.115 29.9401 155.987 29.8911 155.887 29.7931C155.786 29.6951 155.739 29.5756 155.746 29.4347C155.752 29.2968 155.814 29.1796 155.929 29.0831C156.045 28.9866 156.179 28.9384 156.33 28.9384C156.479 28.9384 156.606 28.9874 156.71 29.0854C156.816 29.1834 156.864 29.2999 156.854 29.4347C156.847 29.5296 156.815 29.6154 156.758 29.692C156.703 29.7686 156.632 29.8291 156.546 29.8735C156.461 29.9179 156.368 29.9401 156.269 29.9401Z" fill="white" fill-opacity="0.37"/>
<path d="M158.326 29.9401C158.172 29.9401 158.044 29.8911 157.944 29.7931C157.843 29.6951 157.796 29.5756 157.803 29.4347C157.809 29.2968 157.871 29.1796 157.986 29.0831C158.102 28.9866 158.236 28.9384 158.387 28.9384C158.536 28.9384 158.663 28.9874 158.767 29.0854C158.873 29.1834 158.921 29.2999 158.911 29.4347C158.904 29.5296 158.872 29.6154 158.815 29.692C158.76 29.7686 158.689 29.8291 158.603 29.8735C158.518 29.9179 158.425 29.9401 158.326 29.9401Z" fill="white" fill-opacity="0.37"/>
<path d="M160.383 29.9401C160.229 29.9401 160.101 29.8911 160 29.7931C159.9 29.6951 159.853 29.5756 159.859 29.4347C159.866 29.2968 159.927 29.1796 160.043 29.0831C160.159 28.9866 160.293 28.9384 160.444 28.9384C160.593 28.9384 160.72 28.9874 160.824 29.0854C160.93 29.1834 160.978 29.2999 160.968 29.4347C160.961 29.5296 160.929 29.6154 160.872 29.692C160.816 29.7686 160.746 29.8291 160.66 29.8735C160.575 29.9179 160.482 29.9401 160.383 29.9401Z" fill="white" fill-opacity="0.37"/>
</svg>
