<svg width="185" height="46" viewBox="0 0 185 46" fill="none" xmlns="http://www.w3.org/2000/svg">
<path d="M19.9714 21.913C21.1291 20.7553 22.6945 20.1073 24.3328 20.1073H35.4583C36.1136 20.1073 36.6524 19.5758 36.6524 18.9132V10.1322C36.6524 9.47685 36.1209 8.93805 35.4583 8.93805H19.6364C18.9811 8.93805 18.4423 9.46957 18.4423 10.1322V14.8066C18.4423 16.4449 17.7943 18.0104 16.6366 19.1681C15.4862 20.3185 13.9207 20.9665 12.297 20.9738H7.81912C7.16382 20.9738 6.625 21.5053 6.625 22.1679V30.9489C6.625 31.6042 7.15653 32.1431 7.81912 32.1431H12.297C13.928 32.1431 15.4862 32.7984 16.6366 33.9488C17.7943 35.1065 18.4423 36.6719 18.4423 38.3102V42.9847C18.4423 43.64 18.9738 44.1788 19.6364 44.1788H28.4175C29.0728 44.1788 29.6116 43.6473 29.6116 42.9847V34.2036C29.6116 33.5483 29.08 33.0095 28.4175 33.0095H24.3328C22.6945 33.0095 21.1291 32.3615 19.9714 31.2038L19.6 30.8324C18.4641 29.6966 17.8234 28.1675 17.8015 26.5584C17.8234 24.9566 18.4714 23.4202 19.6 22.2844L19.9714 21.913Z" fill="white"/>
<path d="M7.36123 6.09103C2.54111 6.09103 0 8.64672 0 13.4814C0 14.7483 0.320345 15.6876 0.975648 16.3356C2.14063 17.486 4.05559 17.4642 6.27634 17.4351C6.98261 17.4278 7.73984 17.4278 8.44611 17.4351C8.78104 17.4351 9.11596 17.4423 9.43633 17.4423C11.2275 17.4423 12.7565 17.3113 13.7468 16.3356C14.4021 15.6876 14.7225 14.7483 14.7225 13.4814C14.7225 8.64672 12.1741 6.09103 7.36123 6.09103ZM12.7492 15.3308C12.0066 16.0662 10.3611 16.0444 8.46069 16.0225C8.10391 16.0225 7.73256 16.0152 7.35394 16.0152C6.97532 16.0152 6.61125 16.0152 6.24719 16.0225C4.34681 16.0444 2.70131 16.0662 1.95863 15.3308C1.58729 14.9595 1.40526 14.3551 1.40526 13.4887C1.40526 9.46949 3.34931 7.51814 7.35394 7.51814C11.3586 7.51814 13.3026 9.46949 13.3026 13.4887C13.3026 14.3551 13.1206 14.9595 12.7492 15.3308Z" fill="#9966CC"/>
<path d="M4.09272 5.10097C4.20193 5.36309 4.46402 5.53056 4.7407 5.53056H9.87395C10.1506 5.53056 10.4055 5.37037 10.5147 5.11553L12.0291 1.78077C12.1311 1.56233 12.1092 1.30749 11.9782 1.10362C11.8471 0.89975 11.6214 0.77597 11.3811 0.77597H3.31363C3.07335 0.77597 2.85492 0.892471 2.72386 1.09634C2.5928 1.29293 2.57094 1.54777 2.6656 1.76621L4.08543 5.10097H4.09272ZM10.2962 2.19579L9.42252 4.11074H5.20671L4.39122 2.19579H10.2889H10.2962Z" fill="#9966CC"/>
<path d="M8.92697 11.938C8.82503 11.8215 8.694 11.7122 8.54838 11.6249C8.41003 11.5375 8.27167 11.4647 8.11877 11.3992L7.41252 11.0934C7.31786 11.0569 7.23049 11.0133 7.13583 10.9696C7.05574 10.9259 6.98293 10.8822 6.91012 10.8312C6.85187 10.7875 6.80819 10.7366 6.77906 10.6783C6.74994 10.6346 6.74262 10.5691 6.74262 10.489C6.74262 10.3361 6.79361 10.2269 6.90283 10.1468C7.02661 10.0521 7.20134 10.0012 7.42705 10.0012C7.62364 10.0012 7.79841 10.0376 7.95132 10.1031C8.1115 10.1759 8.24982 10.2779 8.38088 10.4016L8.56291 10.5764L9.19636 9.81187L9.05078 9.65897C8.85419 9.45509 8.61388 9.29491 8.33719 9.16385C8.19885 9.09832 8.05325 9.05463 7.90034 9.01823V8.42117H6.7572V9.06919C6.7572 9.06919 6.73537 9.06919 6.72809 9.07647C6.51694 9.14928 6.32033 9.2585 6.16743 9.39684C6.00724 9.53519 5.87617 9.70265 5.78879 9.89196C5.69414 10.0813 5.65045 10.2924 5.65045 10.5181C5.65045 10.7439 5.68687 10.9259 5.75969 11.0934C5.8325 11.2535 5.92716 11.3992 6.03637 11.5229C6.14559 11.6394 6.26938 11.7414 6.40772 11.8215C6.53878 11.8943 6.66253 11.9598 6.78631 12.0181L7.48531 12.3239C7.60181 12.3821 7.70375 12.4331 7.80569 12.4768C7.88578 12.5205 7.95857 12.5641 8.01682 12.6151C8.06779 12.6588 8.10422 12.7098 8.13335 12.768C8.16247 12.8263 8.17703 12.8991 8.17703 12.9864C8.17703 13.1539 8.11878 13.285 7.995 13.3869C7.85666 13.4961 7.65277 13.5544 7.38337 13.5544C7.16493 13.5544 6.94649 13.5034 6.74262 13.4088C6.53147 13.3068 6.34944 13.1758 6.19654 13.0083L6.01451 12.819L5.33008 13.6199L5.47571 13.7728C5.70871 14.0204 5.99269 14.217 6.31306 14.3626C6.45868 14.4281 6.60429 14.4718 6.7572 14.5082V15.0761H7.90034V14.5228C7.98044 14.5009 8.06782 14.4864 8.14063 14.4572C8.37363 14.3771 8.57747 14.2606 8.74494 14.1077C8.9124 13.9548 9.04349 13.7801 9.13815 13.5762C9.2328 13.3723 9.27649 13.1539 9.27649 12.9282C9.27649 12.717 9.24736 12.5277 9.18183 12.3676C9.1163 12.2074 9.03618 12.0545 8.92697 11.9307V11.938Z" fill="#9966CC"/>
<mask id="mask0_2_3152" style="mask-type:luminance" maskUnits="userSpaceOnUse" x="2" y="34" width="12" height="12">
<path d="M10.2449 34.3882L2.20605 37.8486L5.66644 45.8874L13.7052 42.427L10.2449 34.3882Z" fill="white"/>
</mask>
<g mask="url(#mask0_2_3152)">
<path d="M5.85287 40.1085C6.09315 40.0065 6.33341 39.8682 6.56641 39.7153C6.6829 39.6352 6.91589 39.4532 7.14889 39.2566C7.59304 38.878 7.63673 38.7615 7.65858 38.7032C7.70226 38.6013 7.66587 38.4775 7.5785 38.412C7.52025 38.3683 7.47654 38.3246 7.42557 38.2882C7.32364 38.2008 7.22173 38.1207 7.09067 38.0261C6.85039 37.8586 6.63924 37.7494 6.36256 37.6402C6.02762 37.5091 5.70723 37.3999 5.24123 37.3853C4.79708 37.3635 4.30927 37.4581 3.90153 37.6329C3.26079 37.9096 2.86032 38.3683 2.80207 38.8925C2.74382 39.3949 3.04235 39.8245 3.67581 40.174C4.06171 40.3852 4.67332 40.4143 5.07378 40.356C5.32862 40.3196 5.59075 40.2395 5.86016 40.123L5.85287 40.1085Z" fill="#9966CC"/>
<path d="M8.45277 38.1061C8.45277 38.1061 8.4746 38.0915 8.48916 38.0842C8.67119 37.9677 8.94788 37.5163 8.94788 37.5163C9.06438 37.3124 9.14444 37.1159 9.19541 36.8829C9.30463 36.4023 9.15173 35.8853 8.83136 35.6159C8.6202 35.4412 8.3581 35.3975 8.11782 35.4994C7.95763 35.5723 7.81203 35.7033 7.68097 35.8926C7.45525 36.2276 7.41882 36.679 7.56444 37.145C7.68822 37.5382 7.93579 37.8949 8.20519 38.077C8.278 38.1279 8.37267 38.1352 8.44548 38.0988L8.45277 38.1061Z" fill="#9966CC"/>
<path d="M12.0201 39.0163C11.2774 38.2955 10.1926 38.077 9.23145 38.4556C9.25329 39.1692 9.65373 39.9992 10.3018 40.6618C11.008 41.3899 11.9254 41.8122 12.6681 41.7904C13.0031 40.8511 12.7846 39.759 12.0274 39.0163H12.0201Z" fill="#9966CC"/>
<path d="M9.92985 41.0185C9.25271 40.3268 8.82315 39.4895 8.73578 38.7104C8.58287 38.8123 8.43723 38.9361 8.30617 39.0672C7.99308 39.3875 7.70911 39.9045 7.4834 40.538C7.73096 41.1423 8.12415 41.7321 8.63383 42.2563C9.23089 42.8679 9.92987 43.3194 10.6289 43.5669C10.7381 43.5232 10.84 43.4868 10.9347 43.4431C11.4589 43.2174 11.8375 42.9844 12.0778 42.7369C12.2089 42.5985 12.3254 42.4529 12.42 42.3C11.59 42.2417 10.6725 41.783 9.93714 41.0258L9.92985 41.0185Z" fill="#9966CC"/>
<path d="M7.25835 41.2732C7.24378 41.3387 7.22922 41.4115 7.20737 41.477C6.98166 42.511 6.98166 43.4284 7.20737 43.9454C7.30203 44.1711 7.59326 44.2002 7.83354 44.1929C8.06654 44.1929 8.37237 44.1565 8.72186 44.091C9.10048 44.0182 9.50822 43.9235 9.89412 43.807C9.31163 43.5231 8.75827 43.1153 8.26315 42.6056C7.86268 42.1906 7.52047 41.7392 7.26563 41.2659L7.25835 41.2732Z" fill="#9966CC"/>
</g>
<path d="M175.259 26.6274V23.3817L181.891 17.596V17.2432H175.494V15.0089H184.808V18.2545L178.175 24.0403V24.393H184.996V26.6274H175.259Z" fill="white"/>
<path d="M163.063 26.6274V23.3817L169.696 17.596V17.2432H163.299V15.0089H172.612V18.2545L165.98 24.0403V24.393H172.8V26.6274H163.063Z" fill="white"/>
<path d="M153.484 26.8155C152.59 26.8155 151.798 26.6195 151.108 26.2275C150.418 25.8199 149.885 25.2554 149.509 24.5342C149.132 23.7972 148.944 22.9427 148.944 21.9706V15.0089H151.626V21.7589C151.626 22.6997 151.853 23.3974 152.308 23.8521C152.778 24.3068 153.437 24.5342 154.283 24.5342C155.24 24.5342 155.992 24.2206 156.541 23.5934C157.106 22.9662 157.388 22.0646 157.388 20.8887V15.0089H160.069V26.6274H157.435V25.0045H157.035C156.831 25.4279 156.455 25.8356 155.906 26.2275C155.373 26.6195 154.565 26.8155 153.484 26.8155Z" fill="white"/>
<path d="M132.81 26.6271V24.134H135.02V12.6566H132.81V10.1636H141.229C142.217 10.1636 143.08 10.336 143.817 10.681C144.569 11.0103 145.149 11.4885 145.557 12.1157C145.98 12.7272 146.192 13.4641 146.192 14.3265V14.5382C146.192 15.2908 146.051 15.9101 145.769 16.3962C145.486 16.8822 145.149 17.2586 144.757 17.5251C144.365 17.7917 143.989 17.9798 143.628 18.0896V18.4894C143.989 18.5835 144.373 18.7638 144.781 19.0303C145.204 19.2812 145.557 19.6575 145.839 20.1593C146.137 20.6453 146.286 21.2804 146.286 22.0643V22.2995C146.286 23.1933 146.067 23.9694 145.628 24.6279C145.204 25.2708 144.616 25.7647 143.864 26.1096C143.127 26.4546 142.272 26.6271 141.3 26.6271H132.81ZM137.843 24.0635H140.971C141.723 24.0635 142.319 23.8832 142.758 23.5225C143.213 23.1462 143.44 22.621 143.44 21.9467V21.7351C143.44 21.0608 143.221 20.5434 142.782 20.1828C142.343 19.8065 141.739 19.6183 140.971 19.6183H137.843V24.0635ZM137.843 17.0547H140.947C141.669 17.0547 142.249 16.8744 142.688 16.5138C143.142 16.1532 143.37 15.6514 143.37 15.0085V14.7734C143.37 14.1305 143.142 13.6287 142.688 13.2681C142.249 12.9075 141.669 12.7272 140.947 12.7272H137.843V17.0547Z" fill="white"/>
<path d="M118.973 26.6271V10.1636H121.677V16.5373H122.077C122.203 16.2707 122.406 16.0042 122.689 15.7376C122.971 15.4711 123.339 15.2516 123.794 15.0791C124.264 14.9066 124.852 14.8204 125.558 14.8204C126.452 14.8204 127.244 15.0242 127.934 15.4319C128.623 15.8239 129.157 16.3805 129.533 17.1018C129.925 17.823 130.121 18.6776 130.121 19.6654V26.6271H127.416V19.877C127.416 18.9363 127.181 18.2385 126.711 17.7838C126.256 17.3134 125.605 17.0782 124.758 17.0782C123.802 17.0782 123.049 17.3997 122.501 18.0425C121.952 18.6697 121.677 19.5713 121.677 20.7473V26.6271H118.973Z" fill="white"/>
<path d="M110.558 26.9564C109.429 26.9564 108.41 26.7212 107.5 26.2508C106.591 25.7804 105.87 25.0983 105.337 24.2046C104.819 23.3109 104.561 22.2368 104.561 20.9825V20.6532C104.561 19.3988 104.819 18.3248 105.337 17.431C105.87 16.5373 106.591 15.8553 107.5 15.3849C108.41 14.9145 109.429 14.6793 110.558 14.6793C111.671 14.6793 112.62 14.8753 113.404 15.2673C114.203 15.6593 114.846 16.2002 115.332 16.8901C115.818 17.5643 116.132 18.3248 116.273 19.1715L113.663 19.7124C113.6 19.2264 113.451 18.7873 113.216 18.3953C112.98 17.9877 112.643 17.6662 112.204 17.431C111.781 17.1959 111.256 17.0783 110.629 17.0783C109.986 17.0783 109.406 17.2194 108.888 17.5016C108.386 17.7682 107.987 18.1758 107.689 18.7246C107.406 19.2734 107.265 19.9319 107.265 20.7002V20.9354C107.265 21.7037 107.406 22.3623 107.689 22.911C107.987 23.4441 108.386 23.8518 108.888 24.134C109.406 24.4163 109.986 24.5574 110.629 24.5574C111.585 24.5574 112.306 24.3144 112.792 23.8283C113.294 23.3265 113.608 22.6837 113.733 21.8997L116.344 22.5112C116.156 23.3265 115.818 24.0713 115.332 24.7455C114.846 25.4198 114.203 25.9607 113.404 26.3684C112.62 26.7604 111.671 26.9564 110.558 26.9564Z" fill="white"/>
<path d="M96.7744 26.9564C95.6141 26.9564 94.5871 26.7133 93.6933 26.2273C92.8153 25.7255 92.1254 25.0278 91.6236 24.134C91.1376 23.2246 90.8945 22.1663 90.8945 20.9589V20.6767C90.8945 19.4537 91.1376 18.3953 91.6236 17.5016C92.1097 16.6079 92.7918 15.918 93.6698 15.4319C94.5479 14.9302 95.5592 14.6793 96.7038 14.6793C97.8327 14.6793 98.8205 14.9302 99.6672 15.4319C100.514 15.918 101.172 16.6079 101.643 17.5016C102.113 18.3953 102.348 19.438 102.348 20.6297V21.594H93.6228C93.6541 22.5034 93.9756 23.2325 94.5871 23.7813C95.1986 24.33 95.9512 24.6044 96.8449 24.6044C97.723 24.6044 98.3737 24.4163 98.797 24.04C99.2204 23.648 99.5418 23.209 99.7613 22.7229L101.996 23.8753C101.776 24.2987 101.455 24.7534 101.031 25.2394C100.624 25.7098 100.075 26.1175 99.385 26.4625C98.6951 26.7917 97.8249 26.9564 96.7744 26.9564ZM93.6463 19.5478H99.5967C99.5339 18.7795 99.236 18.168 98.7029 17.7133C98.1855 17.2586 97.5113 17.0312 96.6803 17.0312C95.8179 17.0312 95.128 17.2586 94.6106 17.7133C94.0932 18.168 93.7717 18.7795 93.6463 19.5478Z" fill="white"/>
<path d="M83.6704 26.6271V12.7272H78.7549V10.1636H91.4083V12.7272H86.4927V26.6271H83.6704Z" fill="white"/>
<path d="M65.4121 26.627V15.0085H68.0698V16.6313H68.4696C68.6734 16.1923 69.0419 15.7768 69.575 15.3848C70.1081 14.9928 70.9156 14.7968 71.9975 14.7968C72.8912 14.7968 73.6831 15.0006 74.373 15.4083C75.0629 15.816 75.596 16.3804 75.9723 17.1017C76.3643 17.823 76.5602 18.6775 76.5602 19.6653V26.627H73.8555V19.877C73.8555 18.9362 73.6203 18.2385 73.15 17.7838C72.6952 17.3134 72.0445 17.0782 71.1979 17.0782C70.2414 17.0782 69.4888 17.3996 68.94 18.0425C68.3912 18.6697 68.1168 19.5712 68.1168 20.7472V26.627H65.4121Z" fill="white"/>
<path d="M59.2809 26.6273V15.0088H61.9856V26.6273H59.2809ZM60.6215 13.527C60.1354 13.527 59.712 13.3702 59.3514 13.0567C59.0065 12.7274 58.834 12.2962 58.834 11.7631C58.834 11.23 59.0065 10.8066 59.3514 10.493C59.712 10.1638 60.1354 9.99915 60.6215 9.99915C61.1389 9.99915 61.5622 10.1638 61.8915 10.493C62.2364 10.8066 62.4089 11.23 62.4089 11.7631C62.4089 12.2962 62.2364 12.7274 61.8915 13.0567C61.5622 13.3702 61.1389 13.527 60.6215 13.527Z" fill="white"/>
<path d="M46.5996 26.6271V10.1636H56.854V12.7272H49.4454V17.0782H56.266V19.6654H49.4454V26.6271H46.5996Z" fill="white"/>
<path d="M74.6406 43.1396L75.8777 36.3411H78.7303C79.2688 36.3411 79.703 36.4186 80.0329 36.5735C80.3628 36.7262 80.592 36.9353 80.7206 37.2009C80.8516 37.4664 80.8855 37.7674 80.8225 38.1038C80.7715 38.3782 80.6696 38.6139 80.5168 38.8109C80.3664 39.0056 80.1821 39.165 79.9638 39.2889C79.7455 39.4106 79.5114 39.498 79.2615 39.5511L79.247 39.6175C79.509 39.6286 79.7491 39.7016 79.9674 39.8366C80.1857 39.9716 80.3507 40.1619 80.4622 40.4076C80.5738 40.651 80.5993 40.9443 80.5386 41.2873C80.4732 41.6392 80.3216 41.9556 80.0838 42.2367C79.8461 42.5155 79.5235 42.7357 79.116 42.8973C78.7109 43.0588 78.2246 43.1396 77.6569 43.1396H74.6406ZM76.1797 42.1105H77.6315C78.119 42.1105 78.4877 42.0253 78.7376 41.8549C78.9874 41.6823 79.1366 41.461 79.1851 41.191C79.2215 40.9896 79.1997 40.8082 79.1196 40.6466C79.0396 40.4828 78.9074 40.3545 78.723 40.2615C78.5387 40.1664 78.3082 40.1188 78.0317 40.1188H76.5399L76.1797 42.1105ZM76.7073 39.2325H78.0426C78.2755 39.2325 78.4914 39.1937 78.6903 39.1163C78.8916 39.0366 79.059 38.9248 79.1924 38.781C79.3282 38.6349 79.4119 38.4623 79.4435 38.2631C79.4944 37.9998 79.4338 37.7829 79.2615 37.6125C79.0893 37.4421 78.8055 37.3569 78.4101 37.3569H77.042L76.7073 39.2325Z" fill="white" fill-opacity="0.37"/>
<path d="M83.776 43.2392C83.2157 43.2392 82.7524 43.133 82.3861 42.9205C82.0198 42.7059 81.7627 42.4027 81.6147 42.011C81.4692 41.617 81.4449 41.1534 81.542 40.62C81.6366 40.0956 81.8294 39.6352 82.1205 39.2391C82.4116 38.8408 82.7754 38.5309 83.212 38.3096C83.6511 38.0861 84.1362 37.9743 84.6674 37.9743C85.0119 37.9743 85.3284 38.0252 85.6171 38.127C85.9058 38.2266 86.1495 38.3815 86.3484 38.5918C86.5473 38.802 86.6844 39.0698 86.7596 39.3951C86.8348 39.7182 86.8311 40.1033 86.7487 40.5503L86.6868 40.9188H82.1023L82.2442 40.1088H85.5625C85.6062 39.8787 85.5916 39.674 85.5189 39.4947C85.4461 39.3132 85.3248 39.1705 85.155 39.0665C84.9852 38.9625 84.773 38.9105 84.5183 38.9105C84.2587 38.9105 84.0162 38.9713 83.7906 39.093C83.5674 39.2125 83.3794 39.3675 83.2266 39.5578C83.0738 39.7481 82.9768 39.9484 82.9355 40.1586L82.7863 40.9354C82.733 41.2541 82.7451 41.5141 82.8227 41.7155C82.9003 41.9169 83.0362 42.0652 83.2302 42.1603C83.4243 42.2555 83.6693 42.3031 83.9652 42.3031C84.1593 42.3031 84.3388 42.2787 84.5037 42.2301C84.6687 42.1814 84.8154 42.1083 84.944 42.011C85.075 41.9114 85.1841 41.7897 85.2714 41.6458L86.4758 41.7719C86.3424 42.0685 86.1471 42.3274 85.89 42.5487C85.6329 42.7678 85.3248 42.9382 84.9658 43.0599C84.6092 43.1795 84.2126 43.2392 83.776 43.2392Z" fill="white" fill-opacity="0.37"/>
<path d="M91.0949 43.1396L90.4472 38.0407H91.7898L92.1173 41.6259H92.1682L93.8274 38.0407H95.1554L95.5047 41.606H95.5593L97.1821 38.0407H98.5283L96.0141 43.1396H94.6424L94.2204 39.6939H94.1439L92.4702 43.1396H91.0949Z" fill="white" fill-opacity="0.37"/>
<path d="M100.379 40.152L99.8409 43.1396H98.5202L99.7573 36.3411H101.049L100.583 38.9071H100.652C100.829 38.6172 101.071 38.3893 101.376 38.2233C101.684 38.0573 102.054 37.9743 102.486 37.9743C102.869 37.9743 103.192 38.0485 103.454 38.1967C103.716 38.345 103.9 38.5619 104.007 38.8474C104.116 39.1329 104.134 39.4814 104.062 39.8931L103.465 43.1396H102.144L102.704 40.079C102.765 39.7359 102.715 39.4693 102.555 39.2789C102.398 39.0864 102.148 38.9901 101.806 38.9901C101.57 38.9901 101.353 39.0366 101.154 39.1296C100.956 39.2203 100.788 39.352 100.652 39.5246C100.519 39.6972 100.428 39.9063 100.379 40.152Z" fill="white" fill-opacity="0.37"/>
<path d="M107.26 43.2392C106.7 43.2392 106.236 43.133 105.87 42.9205C105.504 42.7059 105.247 42.4027 105.099 42.011C104.953 41.617 104.929 41.1534 105.026 40.62C105.12 40.0956 105.313 39.6352 105.604 39.2391C105.895 38.8408 106.259 38.5309 106.696 38.3096C107.135 38.0861 107.62 37.9743 108.151 37.9743C108.496 37.9743 108.812 38.0252 109.101 38.127C109.39 38.2266 109.633 38.3815 109.832 38.5918C110.031 38.802 110.168 39.0698 110.243 39.3951C110.319 39.7182 110.315 40.1033 110.233 40.5503L110.171 40.9188H105.586L105.728 40.1088H109.046C109.09 39.8787 109.075 39.674 109.003 39.4947C108.93 39.3132 108.809 39.1705 108.639 39.0665C108.469 38.9625 108.257 38.9105 108.002 38.9105C107.743 38.9105 107.5 38.9713 107.274 39.093C107.051 39.2125 106.863 39.3675 106.71 39.5578C106.558 39.7481 106.461 39.9484 106.419 40.1586L106.27 40.9354C106.217 41.2541 106.229 41.5141 106.307 41.7155C106.384 41.9169 106.52 42.0652 106.714 42.1603C106.908 42.2555 107.153 42.3031 107.449 42.3031C107.643 42.3031 107.823 42.2787 107.988 42.2301C108.153 42.1814 108.299 42.1083 108.428 42.011C108.559 41.9114 108.668 41.7897 108.755 41.6458L109.96 41.7719C109.826 42.0685 109.631 42.3274 109.374 42.5487C109.117 42.7678 108.809 42.9382 108.45 43.0599C108.093 43.1795 107.696 43.2392 107.26 43.2392Z" fill="white" fill-opacity="0.37"/>
<path d="M110.884 43.1396L111.815 38.0407H113.092L112.936 38.8905H112.994C113.147 38.5962 113.363 38.3694 113.642 38.21C113.923 38.0485 114.224 37.9677 114.544 37.9677C114.619 37.9677 114.701 37.971 114.788 37.9777C114.875 37.9821 114.95 37.9898 115.014 38.0009L114.81 39.1063C114.754 39.0886 114.667 39.0731 114.548 39.0598C114.431 39.0444 114.316 39.0366 114.202 39.0366C113.962 39.0366 113.739 39.0842 113.533 39.1793C113.329 39.2723 113.157 39.4018 113.016 39.5677C112.875 39.7337 112.784 39.9251 112.743 40.142L112.201 43.1396H110.884Z" fill="white" fill-opacity="0.37"/>
<path d="M117.186 43.2392C116.625 43.2392 116.162 43.133 115.796 42.9205C115.43 42.7059 115.172 42.4027 115.024 42.011C114.879 41.617 114.855 41.1534 114.952 40.62C115.046 40.0956 115.239 39.6352 115.53 39.2391C115.821 38.8408 116.185 38.5309 116.622 38.3096C117.061 38.0861 117.546 37.9743 118.077 37.9743C118.422 37.9743 118.738 38.0252 119.027 38.127C119.315 38.2266 119.559 38.3815 119.758 38.5918C119.957 38.802 120.094 39.0698 120.169 39.3951C120.244 39.7182 120.241 40.1033 120.158 40.5503L120.097 40.9188H115.512L115.654 40.1088H118.972C119.016 39.8787 119.001 39.674 118.929 39.4947C118.856 39.3132 118.735 39.1705 118.565 39.0665C118.395 38.9625 118.183 38.9105 117.928 38.9105C117.668 38.9105 117.426 38.9713 117.2 39.093C116.977 39.2125 116.789 39.3675 116.636 39.5578C116.483 39.7481 116.386 39.9484 116.345 40.1586L116.196 40.9354C116.143 41.2541 116.155 41.5141 116.232 41.7155C116.31 41.9169 116.446 42.0652 116.64 42.1603C116.834 42.2555 117.079 42.3031 117.375 42.3031C117.569 42.3031 117.748 42.2787 117.913 42.2301C118.078 42.1814 118.225 42.1083 118.354 42.011C118.485 41.9114 118.594 41.7897 118.681 41.6458L119.885 41.7719C119.752 42.0685 119.557 42.3274 119.3 42.5487C119.043 42.7678 118.735 42.9382 118.376 43.0599C118.019 43.1795 117.622 43.2392 117.186 43.2392Z" fill="white" fill-opacity="0.37"/>
<path d="M127.073 38.0407L126.902 38.9702H123.693L123.861 38.0407H127.073ZM124.872 36.8191H126.189L125.316 41.606C125.289 41.7675 125.294 41.8915 125.331 41.9778C125.369 42.0619 125.431 42.1194 125.516 42.1504C125.603 42.1814 125.702 42.1969 125.811 42.1969C125.891 42.1969 125.966 42.1913 126.036 42.1803C126.107 42.167 126.163 42.157 126.204 42.1504L126.262 43.0898C126.182 43.112 126.074 43.1363 125.938 43.1629C125.805 43.1894 125.645 43.2049 125.458 43.2093C125.123 43.216 124.832 43.1695 124.585 43.0699C124.34 42.9681 124.16 42.8121 124.046 42.6018C123.935 42.3894 123.909 42.1238 123.97 41.8051L124.872 36.8191Z" fill="white" fill-opacity="0.37"/>
<path d="M129.226 40.152L128.688 43.1396H127.367L128.604 36.3411H129.896L129.43 38.9071H129.499C129.676 38.6172 129.918 38.3893 130.223 38.2233C130.531 38.0573 130.901 37.9743 131.333 37.9743C131.716 37.9743 132.039 38.0485 132.301 38.1967C132.563 38.345 132.747 38.5619 132.854 38.8474C132.963 39.1329 132.981 39.4814 132.909 39.8931L132.312 43.1396H130.991L131.551 40.079C131.612 39.7359 131.562 39.4693 131.402 39.2789C131.245 39.0864 130.995 38.9901 130.653 38.9901C130.417 38.9901 130.2 39.0366 130.001 39.1296C129.803 39.2203 129.635 39.352 129.499 39.5246C129.366 39.6972 129.275 39.9063 129.226 40.152Z" fill="white" fill-opacity="0.37"/>
<path d="M136.107 43.2392C135.547 43.2392 135.083 43.133 134.717 42.9205C134.351 42.7059 134.094 42.4027 133.946 42.011C133.8 41.617 133.776 41.1534 133.873 40.62C133.967 40.0956 134.16 39.6352 134.451 39.2391C134.742 38.8408 135.106 38.5309 135.543 38.3096C135.982 38.0861 136.467 37.9743 136.998 37.9743C137.343 37.9743 137.659 38.0252 137.948 38.127C138.237 38.2266 138.48 38.3815 138.679 38.5918C138.878 38.802 139.015 39.0698 139.09 39.3951C139.166 39.7182 139.162 40.1033 139.08 40.5503L139.018 40.9188H134.433L134.575 40.1088H137.893C137.937 39.8787 137.922 39.674 137.85 39.4947C137.777 39.3132 137.656 39.1705 137.486 39.0665C137.316 38.9625 137.104 38.9105 136.849 38.9105C136.59 38.9105 136.347 38.9713 136.121 39.093C135.898 39.2125 135.71 39.3675 135.557 39.5578C135.405 39.7481 135.308 39.9484 135.266 40.1586L135.117 40.9354C135.064 41.2541 135.076 41.5141 135.154 41.7155C135.231 41.9169 135.367 42.0652 135.561 42.1603C135.755 42.2555 136 42.3031 136.296 42.3031C136.49 42.3031 136.67 42.2787 136.835 42.2301C137 42.1814 137.146 42.1083 137.275 42.011C137.406 41.9114 137.515 41.7897 137.602 41.6458L138.807 41.7719C138.673 42.0685 138.478 42.3274 138.221 42.5487C137.964 42.7678 137.656 42.9382 137.297 43.0599C136.94 43.1795 136.543 43.2392 136.107 43.2392Z" fill="white" fill-opacity="0.37"/>
<path d="M142.331 43.1396L143.568 36.3411H144.885L144.426 38.8839H144.485C144.572 38.76 144.69 38.6283 144.837 38.4889C144.988 38.3472 145.178 38.2266 145.409 38.127C145.639 38.0252 145.918 37.9743 146.246 37.9743C146.677 37.9743 147.048 38.075 147.359 38.2764C147.669 38.4756 147.891 38.771 148.025 39.1628C148.158 39.5522 148.174 40.0303 148.072 40.5968C147.97 41.1567 147.783 41.6325 147.512 42.0242C147.24 42.4159 146.911 42.7147 146.526 42.9205C146.14 43.1263 145.728 43.2292 145.289 43.2292C144.968 43.2292 144.711 43.1806 144.517 43.0832C144.326 42.9858 144.179 42.8685 144.077 42.7313C143.975 42.5919 143.901 42.4602 143.855 42.3363H143.771L143.626 43.1396H142.331ZM144.088 40.5902C144.03 40.9199 144.029 41.2087 144.084 41.4566C144.143 41.7044 144.257 41.8981 144.426 42.0375C144.599 42.1747 144.825 42.2433 145.107 42.2433C145.395 42.2433 145.65 42.1725 145.871 42.0309C146.094 41.887 146.278 41.6912 146.424 41.4433C146.569 41.1932 146.671 40.9089 146.729 40.5902C146.785 40.2737 146.785 39.9926 146.729 39.747C146.676 39.5013 146.563 39.3088 146.391 39.1694C146.221 39.03 145.991 38.9603 145.7 38.9603C145.416 38.9603 145.164 39.0278 144.943 39.1628C144.722 39.2977 144.539 39.487 144.394 39.7304C144.248 39.9738 144.146 40.2604 144.088 40.5902Z" fill="white" fill-opacity="0.37"/>
<path d="M152.678 40.9952L153.22 38.0407H154.537L153.605 43.1396H152.328L152.496 42.2334H152.437C152.263 42.5189 152.013 42.7523 151.688 42.9338C151.365 43.1153 150.994 43.206 150.574 43.206C150.208 43.206 149.899 43.1319 149.647 42.9836C149.394 42.8331 149.215 42.6151 149.108 42.3296C149.004 42.0419 148.988 41.6945 149.061 41.2873L149.658 38.0407H150.975L150.414 41.1014C150.359 41.4245 150.41 41.6812 150.567 41.8715C150.727 42.0619 150.965 42.157 151.28 42.157C151.474 42.157 151.67 42.1139 151.866 42.0276C152.065 41.9412 152.239 41.8129 152.386 41.6425C152.534 41.4699 152.631 41.2541 152.678 40.9952Z" fill="white" fill-opacity="0.37"/>
<path d="M154.891 43.1396L155.033 42.3761L158.507 39.0798L158.522 39.0366H155.735L155.92 38.0407H160.316L160.17 38.8607L156.841 42.1006L156.826 42.1437H159.664L159.486 43.1396H154.891Z" fill="white" fill-opacity="0.37"/>
<path d="M160.654 43.1396L160.796 42.3761L164.271 39.0798L164.285 39.0366H161.498L161.684 38.0407H166.079L165.934 38.8607L162.604 42.1006L162.59 42.1437H165.428L165.25 43.1396H160.654Z" fill="white" fill-opacity="0.37"/>
<path d="M169.028 43.1396L169.96 38.0407H171.277L170.345 43.1396H169.028ZM170.811 37.3104C170.6 37.3104 170.425 37.2462 170.287 37.1179C170.149 36.9895 170.088 36.8357 170.105 36.6565C170.122 36.4772 170.211 36.3234 170.371 36.195C170.533 36.0667 170.719 36.0025 170.927 36.0025C171.138 36.0025 171.312 36.0667 171.448 36.195C171.586 36.3234 171.647 36.4772 171.63 36.6565C171.615 36.8357 171.527 36.9895 171.364 37.1179C171.204 37.2462 171.02 37.3104 170.811 37.3104Z" fill="white" fill-opacity="0.37"/>
<path d="M176.797 39.3885L175.586 39.508C175.573 39.3951 175.536 39.29 175.473 39.1926C175.41 39.0953 175.315 39.0178 175.189 38.9603C175.065 38.9005 174.905 38.8706 174.709 38.8706C174.422 38.8706 174.171 38.9293 173.956 39.0466C173.74 39.1639 173.617 39.3143 173.588 39.498C173.561 39.6352 173.598 39.747 173.697 39.8333C173.797 39.9196 173.981 39.9926 174.25 40.0524L175.174 40.2383C175.684 40.3423 176.05 40.5105 176.273 40.7429C176.499 40.9752 176.578 41.2795 176.51 41.6558C176.452 41.97 176.301 42.2466 176.059 42.4857C175.816 42.7225 175.506 42.9072 175.127 43.04C174.751 43.1728 174.334 43.2392 173.876 43.2392C173.179 43.2392 172.643 43.1075 172.267 42.8442C171.894 42.5786 171.708 42.2135 171.711 41.7487L173.006 41.6358C173.02 41.866 173.109 42.0397 173.272 42.157C173.434 42.2721 173.66 42.3307 173.948 42.333C174.273 42.3352 174.547 42.2732 174.771 42.1471C174.996 42.0187 175.124 41.8627 175.153 41.679C175.177 41.5418 175.139 41.43 175.04 41.3437C174.943 41.2574 174.769 41.1888 174.52 41.1379L173.603 40.9553C173.084 40.8513 172.714 40.6754 172.493 40.4275C172.275 40.1774 172.201 39.8621 172.271 39.4814C172.329 39.1716 172.471 38.9049 172.697 38.6814C172.925 38.4557 173.217 38.282 173.574 38.1602C173.93 38.0363 174.329 37.9743 174.771 37.9743C175.435 37.9743 175.936 38.1016 176.273 38.3561C176.61 38.6106 176.785 38.9547 176.797 39.3885Z" fill="white" fill-opacity="0.37"/>
<path d="M178.211 43.2126C177.988 43.2126 177.803 43.1418 177.658 43.0002C177.512 42.8586 177.444 42.6859 177.454 42.4823C177.464 42.2832 177.552 42.1139 177.72 41.9744C177.887 41.835 178.08 41.7653 178.298 41.7653C178.514 41.7653 178.697 41.8361 178.848 41.9778C179 42.1194 179.069 42.2876 179.055 42.4823C179.045 42.6195 178.999 42.7435 178.917 42.8541C178.837 42.9648 178.735 43.0522 178.611 43.1164C178.487 43.1806 178.354 43.2126 178.211 43.2126Z" fill="white" fill-opacity="0.37"/>
<path d="M181.183 43.2126C180.959 43.2126 180.775 43.1418 180.629 43.0002C180.484 42.8586 180.416 42.6859 180.426 42.4823C180.435 42.2832 180.524 42.1139 180.691 41.9744C180.859 41.835 181.052 41.7653 181.27 41.7653C181.486 41.7653 181.669 41.8361 181.819 41.9778C181.972 42.1194 182.041 42.2876 182.027 42.4823C182.017 42.6195 181.971 42.7435 181.888 42.8541C181.808 42.9648 181.706 43.0522 181.583 43.1164C181.459 43.1806 181.326 43.2126 181.183 43.2126Z" fill="white" fill-opacity="0.37"/>
<path d="M184.154 43.2126C183.931 43.2126 183.747 43.1418 183.601 43.0002C183.456 42.8586 183.388 42.6859 183.397 42.4823C183.407 42.2832 183.496 42.1139 183.663 41.9744C183.83 41.835 184.023 41.7653 184.242 41.7653C184.457 41.7653 184.641 41.8361 184.791 41.9778C184.944 42.1194 185.013 42.2876 184.998 42.4823C184.989 42.6195 184.943 42.7435 184.86 42.8541C184.78 42.9648 184.678 43.0522 184.555 43.1164C184.431 43.1806 184.297 43.2126 184.154 43.2126Z" fill="white" fill-opacity="0.37"/>
</svg>
