<svg width="224" height="41" viewBox="0 0 224 41" fill="none" xmlns="http://www.w3.org/2000/svg">
<path d="M20.3478 9.43109H15.1223C13.8898 9.43109 12.8883 10.4325 12.8883 11.6651V21.1595C12.8883 22.3921 11.8869 23.3935 10.6543 23.3935H7.30333C6.07078 23.3935 5.06934 24.395 5.06934 25.6275V38.03C5.06934 39.2626 6.07078 40.264 7.30333 40.264H12.5288C13.7614 40.264 14.7628 39.2626 14.7628 38.03V28.5356C14.7628 27.303 15.7643 26.3016 16.9968 26.3016H20.3478C21.5803 26.3016 22.5818 25.3001 22.5818 24.0676V11.6651C22.5818 10.4325 21.5803 9.43109 20.3478 9.43109Z" fill="white"/>
<path d="M37.8541 9.43115H32.6286C31.3961 9.43115 30.3947 10.4326 30.3947 11.6652V21.1596C30.3947 22.3922 29.3932 23.3936 28.1607 23.3936H24.8097C23.5771 23.3936 22.5757 24.3951 22.5757 25.6276V38.0301C22.5757 39.2626 23.5771 40.2641 24.8097 40.2641H30.0352C31.2677 40.2641 32.2691 39.2626 32.2691 38.0301V28.5356C32.2691 27.3031 33.2706 26.3016 34.5031 26.3016H37.8541C39.0867 26.3016 40.0881 25.3002 40.0881 24.0676V11.6652C40.0881 10.4326 39.0867 9.43115 37.8541 9.43115Z" fill="white"/>
<path d="M48.4275 4.53995H45.2883C45.0123 4.53995 44.7876 4.31527 44.7876 4.03923V0.900075C44.7876 0.624035 44.5629 0.399353 44.2869 0.399353H42.361C42.085 0.399353 41.8603 0.624035 41.8603 0.900075V4.03923C41.8603 4.31527 41.6356 4.53995 41.3596 4.53995H38.2204C37.9444 4.53995 37.7197 4.76463 37.7197 5.04067V6.96653C37.7197 7.24257 37.9444 7.46725 38.2204 7.46725H41.3596C41.6356 7.46725 41.8603 7.69193 41.8603 7.96797V11.1071C41.8603 11.3831 42.085 11.6078 42.361 11.6078H44.2869C44.5629 11.6078 44.7876 11.3831 44.7876 11.1071V7.96797C44.7876 7.69193 45.0123 7.46725 45.2883 7.46725H48.4275C48.7035 7.46725 48.9282 7.24257 48.9282 6.96653V5.04067C48.9282 4.76463 48.7035 4.53995 48.4275 4.53995Z" fill="#78C435"/>
<mask id="mask0_2_2590" style="mask-type:luminance" maskUnits="userSpaceOnUse" x="0" y="11" width="11" height="11">
<path d="M7.0875 11.6089L0 14.6598L3.05089 21.7473L10.1384 18.6964L7.0875 11.6089Z" fill="white"/>
</mask>
<g mask="url(#mask0_2_2590)">
<path d="M3.22049 16.6535C3.43233 16.5636 3.64418 16.4416 3.8496 16.3068C3.95231 16.2362 4.15774 16.0757 4.36317 15.9024C4.75476 15.5686 4.79327 15.4659 4.81253 15.4145C4.85105 15.3246 4.81895 15.2155 4.74191 15.1577C4.69056 15.1192 4.65204 15.0807 4.6071 15.0486C4.51723 14.9716 4.42736 14.9009 4.31181 14.8175C4.09996 14.6698 3.9138 14.5735 3.66986 14.4773C3.37456 14.3617 3.0921 14.2654 2.68125 14.2526C2.28966 14.2333 1.85955 14.3168 1.50006 14.4708C0.935139 14.7148 0.582069 15.1192 0.530713 15.5814C0.479357 16.0244 0.742555 16.4031 1.30105 16.7112C1.64129 16.8974 2.18053 16.9231 2.5336 16.8717C2.75828 16.8396 2.98939 16.769 3.22691 16.6663L3.22049 16.6535Z" fill="#FFA804"/>
<path d="M5.51215 14.8877C5.51215 14.8877 5.53141 14.8749 5.54425 14.8685C5.70474 14.7657 5.94868 14.3677 5.94868 14.3677C6.05139 14.188 6.122 14.0147 6.16694 13.8092C6.26323 13.3855 6.12842 12.9297 5.84596 12.6922C5.6598 12.5382 5.4287 12.4997 5.21685 12.5895C5.07562 12.6537 4.94723 12.7693 4.83168 12.9362C4.63268 13.2315 4.60058 13.6295 4.72897 14.0403C4.8381 14.387 5.05637 14.7015 5.29389 14.862C5.35808 14.907 5.44154 14.9134 5.50573 14.8813L5.51215 14.8877Z" fill="#FFA804"/>
<path d="M8.65155 15.6903C7.99676 15.0548 7.04025 14.8622 6.19287 15.196C6.21213 15.8252 6.5652 16.557 7.13654 17.1412C7.75923 17.7831 8.56809 18.1554 9.22288 18.1362C9.51818 17.3081 9.32559 16.3451 8.65796 15.6903H8.65155Z" fill="#FFA804"/>
<path d="M6.8093 17.4558C6.21228 16.846 5.83353 16.1077 5.7565 15.4208C5.62169 15.5107 5.4933 15.6199 5.37775 15.7354C5.10171 16.0179 4.85135 16.4736 4.65234 17.0321C4.87061 17.565 5.21726 18.085 5.66662 18.5472C6.19302 19.0864 6.8093 19.4844 7.42557 19.7027C7.52187 19.6641 7.61174 19.632 7.69519 19.5935C8.1574 19.3945 8.49122 19.1891 8.70306 18.9708C8.81861 18.8489 8.92133 18.7205 9.00478 18.5857C8.27296 18.5343 7.46409 18.1299 6.81572 17.4623L6.8093 17.4558Z" fill="#FFA804"/>
<path d="M4.45933 17.6801C4.44649 17.7378 4.43365 17.802 4.41439 17.8598C4.21539 18.7714 4.21539 19.5802 4.41439 20.036C4.49784 20.235 4.75463 20.2607 4.96647 20.2543C5.17189 20.2543 5.44151 20.2222 5.74965 20.1644C6.08347 20.1002 6.44296 20.0168 6.78319 19.9141C6.26963 19.6637 5.78175 19.3042 5.34522 18.8548C4.99215 18.4889 4.69043 18.0909 4.46575 17.6736L4.45933 17.6801Z" fill="#FFA804"/>
</g>
<path d="M214.957 20.3705V17.3561L221.117 11.9825V11.6548H215.175V9.57965H223.825V12.5941L217.665 17.9677V18.2954H224V20.3705H214.957Z" fill="white"/>
<path d="M203.63 20.3705V17.3561L209.79 11.9825V11.6548H203.848V9.57965H212.499V12.5941L206.339 17.9677V18.2954H212.673V20.3705H203.63Z" fill="white"/>
<path d="M194.733 20.5453C193.903 20.5453 193.168 20.3632 192.527 19.9992C191.886 19.6206 191.391 19.0963 191.042 18.4264C190.692 17.742 190.518 16.9483 190.518 16.0454V9.57965H193.008V15.8488C193.008 16.7226 193.219 17.3706 193.641 17.7929C194.078 18.2153 194.69 18.4264 195.476 18.4264C196.364 18.4264 197.063 18.1352 197.573 17.5527C198.097 16.9702 198.36 16.1328 198.36 15.0406V9.57965H200.85V20.3705H198.403V18.8633H198.032C197.843 19.2565 197.493 19.6351 196.983 19.9992C196.488 20.3632 195.738 20.5453 194.733 20.5453Z" fill="white"/>
<path d="M175.532 20.3709V18.0554H177.585V7.39559H175.532V5.08014H183.352C184.269 5.08014 185.07 5.24033 185.755 5.5607C186.454 5.86652 186.993 6.31068 187.371 6.89318C187.764 7.46112 187.961 8.14556 187.961 8.94651V9.1431C187.961 9.84211 187.83 10.4173 187.568 10.8688C187.306 11.3202 186.992 11.6697 186.628 11.9173C186.264 12.1648 185.915 12.3396 185.58 12.4415V12.8129C185.915 12.9002 186.272 13.0677 186.65 13.3153C187.043 13.5483 187.371 13.8978 187.633 14.3638C187.91 14.8152 188.048 15.405 188.048 16.1331V16.3516C188.048 17.1816 187.844 17.9025 187.437 18.5141C187.043 19.1112 186.497 19.5699 185.798 19.8903C185.114 20.2107 184.32 20.3709 183.417 20.3709H175.532ZM180.206 17.9899H183.112C183.811 17.9899 184.364 17.8224 184.772 17.4875C185.194 17.138 185.405 16.6501 185.405 16.0239V15.8273C185.405 15.2011 185.201 14.7206 184.794 14.3856C184.386 14.0361 183.825 13.8614 183.112 13.8614H180.206V17.9899ZM180.206 11.4804H183.09C183.76 11.4804 184.298 11.3129 184.706 10.978C185.128 10.643 185.34 10.177 185.34 9.57998V9.36154C185.34 8.76447 185.128 8.29847 184.706 7.96353C184.298 7.62859 183.76 7.46112 183.09 7.46112H180.206V11.4804Z" fill="white"/>
<path d="M162.682 20.3709V5.08014H165.194V10.9998H165.566C165.682 10.7523 165.871 10.5047 166.133 10.2571C166.396 10.0096 166.738 9.8057 167.16 9.64551C167.597 9.48532 168.143 9.40523 168.798 9.40523C169.628 9.40523 170.364 9.59454 171.005 9.97317C171.645 10.3372 172.141 10.8542 172.49 11.5241C172.854 12.194 173.036 12.9876 173.036 13.9051V20.3709H170.524V14.1017C170.524 13.2279 170.306 12.5799 169.869 12.1576C169.446 11.7207 168.842 11.5022 168.056 11.5022C167.167 11.5022 166.468 11.8008 165.959 12.3978C165.449 12.9803 165.194 13.8177 165.194 14.9099V20.3709H162.682Z" fill="white"/>
<path d="M154.865 20.6766C153.817 20.6766 152.87 20.4582 152.025 20.0213C151.181 19.5844 150.511 18.9509 150.016 18.1209C149.535 17.2908 149.295 16.2933 149.295 15.1283V14.8225C149.295 13.6574 149.535 12.6599 150.016 11.8298C150.511 10.9998 151.181 10.3663 152.025 9.92943C152.87 9.49255 153.817 9.27411 154.865 9.27411C155.899 9.27411 156.78 9.45614 157.508 9.82021C158.251 10.1843 158.848 10.6867 159.299 11.3274C159.751 11.9536 160.042 12.6599 160.173 13.4463L157.749 13.9487C157.69 13.4973 157.552 13.0895 157.333 12.7254C157.115 12.3468 156.802 12.0483 156.394 11.8298C156.001 11.6114 155.513 11.5022 154.931 11.5022C154.334 11.5022 153.795 11.6332 153.314 11.8954C152.848 12.1429 152.477 12.5216 152.2 13.0313C151.938 13.5409 151.807 14.1526 151.807 14.8661V15.0846C151.807 15.7981 151.938 16.4098 152.2 16.9195C152.477 17.4146 152.848 17.7932 153.314 18.0553C153.795 18.3175 154.334 18.4485 154.931 18.4485C155.819 18.4485 156.489 18.2228 156.94 17.7714C157.406 17.3054 157.698 16.7083 157.814 15.9802L160.239 16.5481C160.064 17.3054 159.751 17.9971 159.299 18.6233C158.848 19.2495 158.251 19.7519 157.508 20.1305C156.78 20.4946 155.899 20.6766 154.865 20.6766Z" fill="white"/>
<path d="M142.063 20.6766C140.985 20.6766 140.032 20.4509 139.201 19.9995C138.386 19.5335 137.745 18.8854 137.279 18.0553C136.828 17.2107 136.602 16.2277 136.602 15.1064V14.8443C136.602 13.7084 136.828 12.7254 137.279 11.8954C137.731 11.0653 138.364 10.4246 139.18 9.97311C139.995 9.50711 140.934 9.27411 141.997 9.27411C143.046 9.27411 143.963 9.50711 144.75 9.97311C145.536 10.4246 146.148 11.0653 146.585 11.8954C147.022 12.7254 147.24 13.6939 147.24 14.8006V15.6962H139.136C139.165 16.5408 139.464 17.218 140.032 17.7277C140.599 18.2374 141.298 18.4922 142.129 18.4922C142.944 18.4922 143.548 18.3175 143.942 17.968C144.335 17.6039 144.633 17.1962 144.837 16.7447L146.912 17.8151C146.708 18.2083 146.41 18.6306 146.017 19.082C145.638 19.5189 145.128 19.8975 144.488 20.2179C143.847 20.5237 143.039 20.6766 142.063 20.6766ZM139.158 13.7958H144.684C144.626 13.0822 144.349 12.5143 143.854 12.092C143.374 11.6697 142.747 11.4585 141.976 11.4585C141.175 11.4585 140.534 11.6697 140.053 12.092C139.573 12.5143 139.274 13.0822 139.158 13.7958Z" fill="white"/>
<path d="M129.892 20.3709V7.46112H125.326V5.08014H137.078V7.46112H132.513V20.3709H129.892Z" fill="white"/>
<path d="M112.936 20.3709V5.08014H115.448V10.9998H115.819C115.936 10.7523 116.125 10.5047 116.387 10.2571C116.649 10.0096 116.992 9.8057 117.414 9.64551C117.851 9.48532 118.397 9.40523 119.052 9.40523C119.882 9.40523 120.618 9.59454 121.259 9.97317C121.899 10.3372 122.394 10.8542 122.744 11.5241C123.108 12.194 123.29 12.9876 123.29 13.9051V20.3709H120.778V14.1017C120.778 13.2279 120.56 12.5799 120.123 12.1576C119.7 11.7207 119.096 11.5022 118.31 11.5022C117.421 11.5022 116.722 11.8008 116.213 12.3978C115.703 12.9803 115.448 13.8177 115.448 14.9099V20.3709H112.936Z" fill="white"/>
<path d="M107.059 20.3704C106.36 20.3704 105.8 20.1665 105.377 19.7588C104.969 19.3365 104.766 18.7685 104.766 18.055V11.6547H101.948V9.57953H104.766V6.10635H107.278V9.57953H110.379V11.6547H107.278V17.6399C107.278 18.0768 107.482 18.2952 107.889 18.2952H110.052V20.3704H107.059Z" fill="white"/>
<path d="M97.2573 20.3709V5.08014H99.7694V20.3709H97.2573Z" fill="white"/>
<path d="M87.9918 20.6766C87.2345 20.6766 86.5501 20.5456 85.9385 20.2834C85.3268 20.0067 84.839 19.6135 84.4749 19.1039C84.1254 18.5942 83.9507 17.968 83.9507 17.2253C83.9507 16.4972 84.1254 15.8855 84.4749 15.3904C84.839 14.8953 85.3341 14.5239 85.9603 14.2764C86.5865 14.0142 87.3001 13.8832 88.101 13.8832H91.2247V13.2279C91.2247 12.6599 91.0499 12.2012 90.7004 11.8517C90.3509 11.4876 89.8048 11.3056 89.0622 11.3056C88.334 11.3056 87.7806 11.4803 87.402 11.8298C87.038 12.1648 86.7977 12.6017 86.6812 13.1405L84.3657 12.3759C84.5405 11.808 84.8172 11.291 85.1958 10.825C85.589 10.359 86.1059 9.98768 86.7467 9.71099C87.3875 9.41973 88.1738 9.27411 89.1058 9.27411C90.5184 9.27411 91.6252 9.63089 92.4261 10.3445C93.2416 11.0435 93.6494 12.0628 93.6494 13.4026V17.6403C93.6494 18.0772 93.8532 18.2956 94.261 18.2956H95.1784V20.3708H93.4091C92.8848 20.3708 92.4552 20.2397 92.1203 19.9776C91.7854 19.7155 91.6179 19.3587 91.6179 18.9073V18.8636H91.2465C91.1592 19.0675 91.0063 19.315 90.7878 19.6063C90.5694 19.8975 90.2344 20.1524 89.783 20.3708C89.3461 20.5747 88.7491 20.6766 87.9918 20.6766ZM88.4068 18.6233C89.2369 18.6233 89.9141 18.3903 90.4383 17.9243C90.9626 17.4437 91.2247 16.803 91.2247 16.002V15.7836H88.2539C87.7151 15.7836 87.2782 15.9001 86.9433 16.1331C86.6084 16.3661 86.4409 16.7083 86.4409 17.1598C86.4409 17.5966 86.6156 17.9534 86.9651 18.2301C87.3146 18.4922 87.7952 18.6233 88.4068 18.6233Z" fill="white"/>
<path d="M76.8946 20.6766C75.8169 20.6766 74.8631 20.4509 74.033 19.9995C73.2175 19.5335 72.5768 18.8854 72.1108 18.0553C71.6593 17.2107 71.4336 16.2277 71.4336 15.1064V14.8443C71.4336 13.7084 71.6593 12.7254 72.1108 11.8954C72.5622 11.0653 73.1957 10.4246 74.0112 9.97311C74.8267 9.50711 75.766 9.27411 76.829 9.27411C77.8775 9.27411 78.795 9.50711 79.5814 9.97311C80.3677 10.4246 80.9794 11.0653 81.4162 11.8954C81.8531 12.7254 82.0716 13.6939 82.0716 14.8006V15.6962H73.9675C73.9966 16.5408 74.2951 17.218 74.8631 17.7277C75.431 18.2374 76.13 18.4922 76.9601 18.4922C77.7756 18.4922 78.3799 18.3175 78.7731 17.968C79.1663 17.6039 79.4649 17.1962 79.6687 16.7447L81.7439 17.8151C81.54 18.2083 81.2415 18.6306 80.8483 19.082C80.4697 19.5189 79.96 19.8975 79.3192 20.2179C78.6785 20.5237 77.8703 20.6766 76.8946 20.6766ZM73.9893 13.7958H79.5158C79.4576 13.0822 79.1809 12.5143 78.6858 12.092C78.2052 11.6697 77.579 11.4585 76.8072 11.4585C76.0062 11.4585 75.3655 11.6697 74.8849 12.092C74.4044 12.5143 74.1058 13.0822 73.9893 13.7958Z" fill="white"/>
<path d="M57.5347 20.3709V5.08017H60.1778V11.5023H66.2067V5.08017H68.8498V20.3709H66.2067V13.9051H60.1778V20.3709H57.5347Z" fill="white"/>
<g opacity="0.37">
<path d="M125.46 34.6334L126.527 28.7702H128.987C129.452 28.7702 129.826 28.837 130.111 28.9706C130.395 29.1023 130.593 29.2827 130.704 29.5117C130.817 29.7407 130.846 30.0003 130.792 30.2904C130.748 30.5271 130.66 30.7304 130.528 30.9002C130.399 31.0682 130.24 31.2056 130.051 31.3125C129.863 31.4174 129.661 31.4928 129.446 31.5386L129.433 31.5959C129.659 31.6054 129.866 31.6684 130.054 31.7849C130.243 31.9013 130.385 32.0654 130.481 32.2773C130.577 32.4872 130.599 32.7401 130.547 33.0359C130.491 33.3394 130.36 33.6123 130.155 33.8547C129.95 34.0952 129.672 34.2851 129.32 34.4244C128.971 34.5638 128.551 34.6334 128.062 34.6334H125.46ZM126.788 33.7459H128.04C128.46 33.7459 128.778 33.6725 128.994 33.5255C129.209 33.3766 129.338 33.1858 129.38 32.9529C129.411 32.7792 129.392 32.6227 129.323 32.4834C129.254 32.3422 129.14 32.2315 128.981 32.1513C128.822 32.0692 128.623 32.0282 128.385 32.0282H127.098L126.788 33.7459ZM127.243 31.2638H128.394C128.595 31.2638 128.781 31.2304 128.953 31.1636C129.127 31.0949 129.271 30.9985 129.386 30.8745C129.503 30.7485 129.575 30.5996 129.603 30.4278C129.646 30.2007 129.594 30.0137 129.446 29.8667C129.297 29.7198 129.052 29.6463 128.711 29.6463H127.531L127.243 31.2638Z" fill="white"/>
<path d="M133.339 34.7193C132.856 34.7193 132.456 34.6277 132.14 34.4445C131.824 34.2593 131.603 33.9979 131.475 33.66C131.35 33.3203 131.329 32.9205 131.412 32.4605C131.494 32.0082 131.66 31.6112 131.911 31.2695C132.162 30.926 132.476 30.6588 132.853 30.4679C133.231 30.2752 133.65 30.1788 134.108 30.1788C134.405 30.1788 134.678 30.2227 134.927 30.3105C135.176 30.3963 135.386 30.53 135.558 30.7113C135.729 30.8926 135.847 31.1235 135.912 31.4041C135.977 31.6827 135.974 32.0148 135.903 32.4004L135.849 32.7182H131.896L132.018 32.0196H134.88C134.917 31.8211 134.905 31.6446 134.842 31.49C134.779 31.3335 134.675 31.2104 134.528 31.1207C134.382 31.031 134.199 30.9861 133.979 30.9861C133.755 30.9861 133.546 31.0386 133.352 31.1436C133.159 31.2466 132.997 31.3802 132.865 31.5444C132.733 31.7085 132.65 31.8812 132.614 32.0626L132.486 32.7325C132.439 33.0073 132.45 33.2316 132.517 33.4053C132.584 33.5789 132.701 33.7068 132.868 33.7889C133.036 33.8709 133.247 33.912 133.502 33.912C133.67 33.912 133.824 33.891 133.967 33.849C134.109 33.807 134.235 33.744 134.346 33.66C134.459 33.5742 134.553 33.4692 134.629 33.3451L135.667 33.4539C135.552 33.7097 135.384 33.933 135.162 34.1238C134.94 34.3128 134.675 34.4598 134.365 34.5647C134.058 34.6678 133.716 34.7193 133.339 34.7193Z" fill="white"/>
<path d="M139.651 34.6334L139.092 30.236H140.25L140.533 33.328H140.577L142.008 30.236H143.153L143.454 33.3108H143.501L144.901 30.236H146.062L143.893 34.6334H142.71L142.346 31.6617H142.281L140.837 34.6334H139.651Z" fill="white"/>
<path d="M147.658 32.0568L147.194 34.6334H146.055L147.122 28.7702H148.236L147.834 30.9832H147.894C148.046 30.7332 148.254 30.5366 148.518 30.3935C148.784 30.2503 149.103 30.1788 149.475 30.1788C149.806 30.1788 150.084 30.2427 150.31 30.3706C150.536 30.4985 150.695 30.6855 150.787 30.9317C150.881 31.1779 150.897 31.4785 150.834 31.8335L150.319 34.6334H149.18L149.663 31.9938C149.716 31.698 149.673 31.468 149.535 31.3039C149.399 31.1378 149.183 31.0548 148.888 31.0548C148.685 31.0548 148.498 31.0949 148.327 31.1751C148.155 31.2533 148.011 31.3669 147.894 31.5157C147.779 31.6646 147.7 31.845 147.658 32.0568Z" fill="white"/>
<path d="M153.592 34.7193C153.109 34.7193 152.709 34.6277 152.393 34.4445C152.077 34.2593 151.856 33.9979 151.728 33.66C151.603 33.3203 151.582 32.9205 151.665 32.4605C151.747 32.0082 151.913 31.6112 152.164 31.2695C152.415 30.926 152.729 30.6588 153.106 30.4679C153.484 30.2752 153.903 30.1788 154.361 30.1788C154.658 30.1788 154.931 30.2227 155.18 30.3105C155.429 30.3963 155.639 30.53 155.811 30.7113C155.982 30.8926 156.1 31.1235 156.165 31.4041C156.23 31.6827 156.227 32.0148 156.156 32.4004L156.102 32.7182H152.149L152.271 32.0196H155.133C155.17 31.8211 155.158 31.6446 155.095 31.49C155.032 31.3335 154.928 31.2104 154.781 31.1207C154.635 31.031 154.452 30.9861 154.232 30.9861C154.008 30.9861 153.799 31.0386 153.605 31.1436C153.412 31.2466 153.25 31.3802 153.118 31.5444C152.986 31.7085 152.903 31.8812 152.867 32.0626L152.739 32.7325C152.693 33.0073 152.703 33.2316 152.77 33.4053C152.837 33.5789 152.954 33.7068 153.121 33.7889C153.289 33.8709 153.5 33.912 153.755 33.912C153.923 33.912 154.077 33.891 154.22 33.849C154.362 33.807 154.488 33.744 154.599 33.66C154.712 33.5742 154.806 33.4692 154.882 33.3451L155.92 33.4539C155.805 33.7097 155.637 33.933 155.415 34.1238C155.193 34.3128 154.928 34.4598 154.618 34.5647C154.311 34.6678 153.969 34.7193 153.592 34.7193Z" fill="white"/>
<path d="M156.717 34.6334L157.521 30.236H158.622L158.487 30.9689H158.537C158.669 30.7151 158.855 30.5195 159.096 30.382C159.339 30.2427 159.598 30.173 159.874 30.173C159.939 30.173 160.009 30.1759 160.084 30.1816C160.16 30.1854 160.225 30.1921 160.279 30.2017L160.103 31.155C160.055 31.1397 159.98 31.1264 159.877 31.1149C159.777 31.1016 159.678 31.0949 159.579 31.0949C159.372 31.0949 159.18 31.1359 159.002 31.218C158.826 31.2982 158.678 31.4098 158.556 31.553C158.435 31.6961 158.357 31.8612 158.321 32.0482L157.853 34.6334H156.717Z" fill="white"/>
<path d="M162.152 34.7193C161.669 34.7193 161.27 34.6277 160.954 34.4445C160.638 34.2593 160.416 33.9979 160.288 33.66C160.163 33.3203 160.142 32.9205 160.226 32.4605C160.307 32.0082 160.474 31.6112 160.725 31.2695C160.976 30.926 161.289 30.6588 161.666 30.4679C162.045 30.2752 162.463 30.1788 162.921 30.1788C163.218 30.1788 163.491 30.2227 163.74 30.3105C163.989 30.3963 164.199 30.53 164.371 30.7113C164.542 30.8926 164.661 31.1235 164.725 31.4041C164.79 31.6827 164.787 32.0148 164.716 32.4004L164.663 32.7182H160.709L160.831 32.0196H163.693C163.731 31.8211 163.718 31.6446 163.655 31.49C163.593 31.3335 163.488 31.2104 163.342 31.1207C163.195 31.031 163.012 30.9861 162.793 30.9861C162.569 30.9861 162.359 31.0386 162.165 31.1436C161.972 31.2466 161.81 31.3802 161.679 31.5444C161.547 31.7085 161.463 31.8812 161.428 32.0626L161.299 32.7325C161.253 33.0073 161.263 33.2316 161.33 33.4053C161.397 33.5789 161.514 33.7068 161.682 33.7889C161.849 33.8709 162.06 33.912 162.316 33.912C162.483 33.912 162.638 33.891 162.78 33.849C162.922 33.807 163.049 33.744 163.16 33.66C163.273 33.5742 163.367 33.4692 163.442 33.3451L164.481 33.4539C164.366 33.7097 164.197 33.933 163.976 34.1238C163.754 34.3128 163.488 34.4598 163.178 34.5647C162.871 34.6678 162.529 34.7193 162.152 34.7193Z" fill="white"/>
<path d="M170.68 30.236L170.532 31.0376H167.765L167.909 30.236H170.68ZM168.781 29.1825H169.917L169.164 33.3108C169.141 33.4501 169.145 33.557 169.177 33.6314C169.21 33.7039 169.263 33.7536 169.337 33.7803C169.412 33.807 169.497 33.8204 169.591 33.8204C169.66 33.8204 169.725 33.8156 169.785 33.8061C169.846 33.7946 169.894 33.786 169.93 33.7803L169.98 34.5905C169.911 34.6096 169.818 34.6306 169.701 34.6535C169.586 34.6764 169.448 34.6897 169.286 34.6936C168.998 34.6993 168.747 34.6592 168.533 34.5733C168.322 34.4855 168.167 34.351 168.069 34.1696C167.973 33.9864 167.951 33.7574 168.003 33.4825L168.781 29.1825Z" fill="white"/>
<path d="M172.537 32.0568L172.072 34.6334H170.933L172 28.7702H173.114L172.712 30.9832H172.772C172.925 30.7332 173.133 30.5366 173.396 30.3935C173.662 30.2503 173.981 30.1788 174.353 30.1788C174.684 30.1788 174.962 30.2427 175.188 30.3706C175.414 30.4985 175.573 30.6855 175.665 30.9317C175.759 31.1779 175.775 31.4785 175.712 31.8335L175.198 34.6334H174.058L174.542 31.9938C174.594 31.698 174.551 31.468 174.413 31.3039C174.277 31.1378 174.062 31.0548 173.767 31.0548C173.564 31.0548 173.377 31.0949 173.205 31.1751C173.033 31.2533 172.889 31.3669 172.772 31.5157C172.657 31.6646 172.578 31.845 172.537 32.0568Z" fill="white"/>
<path d="M178.47 34.7193C177.987 34.7193 177.588 34.6277 177.272 34.4445C176.956 34.2593 176.734 33.9979 176.607 33.66C176.481 33.3203 176.46 32.9205 176.544 32.4605C176.625 32.0082 176.792 31.6112 177.043 31.2695C177.294 30.926 177.608 30.6588 177.984 30.4679C178.363 30.2752 178.781 30.1788 179.239 30.1788C179.536 30.1788 179.809 30.2227 180.058 30.3105C180.307 30.3963 180.517 30.53 180.689 30.7113C180.861 30.8926 180.979 31.1235 181.044 31.4041C181.108 31.6827 181.105 32.0148 181.034 32.4004L180.981 32.7182H177.027L177.149 32.0196H180.011C180.049 31.8211 180.036 31.6446 179.974 31.49C179.911 31.3335 179.806 31.2104 179.66 31.1207C179.513 31.031 179.33 30.9861 179.111 30.9861C178.887 30.9861 178.678 31.0386 178.483 31.1436C178.291 31.2466 178.128 31.3802 177.997 31.5444C177.865 31.7085 177.781 31.8812 177.746 32.0626L177.617 32.7325C177.571 33.0073 177.581 33.2316 177.648 33.4053C177.715 33.5789 177.832 33.7068 178 33.7889C178.167 33.8709 178.378 33.912 178.634 33.912C178.801 33.912 178.956 33.891 179.098 33.849C179.24 33.807 179.367 33.744 179.478 33.66C179.591 33.5742 179.685 33.4692 179.76 33.3451L180.799 33.4539C180.684 33.7097 180.515 33.933 180.294 34.1238C180.072 34.3128 179.806 34.4598 179.497 34.5647C179.189 34.6678 178.847 34.7193 178.47 34.7193Z" fill="white"/>
<path d="M183.838 34.6334L184.905 28.7702H186.041L185.645 30.9632H185.696C185.771 30.8563 185.872 30.7428 186 30.6225C186.13 30.5004 186.294 30.3963 186.493 30.3105C186.691 30.2227 186.932 30.1788 187.214 30.1788C187.587 30.1788 187.907 30.2656 188.175 30.4393C188.442 30.6111 188.634 30.8659 188.749 31.2037C188.864 31.5396 188.877 31.9519 188.79 32.4405C188.702 32.9233 188.541 33.3337 188.306 33.6715C188.072 34.0093 187.789 34.267 187.456 34.4445C187.123 34.622 186.768 34.7107 186.389 34.7107C186.113 34.7107 185.891 34.6687 185.724 34.5848C185.559 34.5008 185.432 34.3996 185.344 34.2813C185.256 34.1611 185.192 34.0475 185.153 33.9406H185.081L184.955 34.6334H183.838ZM185.354 32.4347C185.303 32.7191 185.302 32.9682 185.35 33.1819C185.401 33.3957 185.499 33.5627 185.645 33.683C185.794 33.8013 185.989 33.8605 186.232 33.8605C186.481 33.8605 186.701 33.7994 186.891 33.6772C187.084 33.5532 187.243 33.3843 187.368 33.1705C187.494 32.9548 187.581 32.7096 187.632 32.4347C187.68 32.1618 187.68 31.9194 187.632 31.7076C187.586 31.4957 187.488 31.3297 187.34 31.2094C187.193 31.0892 186.995 31.029 186.744 31.029C186.499 31.029 186.281 31.0873 186.091 31.2037C185.901 31.3201 185.743 31.4833 185.617 31.6932C185.492 31.9032 185.404 32.1503 185.354 32.4347Z" fill="white"/>
<path d="M192.761 32.784L193.229 30.236H194.365L193.562 34.6334H192.46L192.604 33.8519H192.554C192.404 34.0981 192.188 34.2994 191.908 34.4559C191.63 34.6124 191.31 34.6907 190.948 34.6907C190.632 34.6907 190.365 34.6268 190.147 34.4989C189.93 34.3691 189.775 34.1811 189.683 33.9349C189.593 33.6868 189.58 33.3871 189.642 33.0359L190.157 30.236H191.293L190.81 32.8756C190.761 33.1543 190.805 33.3757 190.941 33.5398C191.079 33.7039 191.284 33.786 191.556 33.786C191.724 33.786 191.892 33.7488 192.062 33.6744C192.233 33.5999 192.383 33.4892 192.51 33.3423C192.638 33.1934 192.722 33.0073 192.761 32.784Z" fill="white"/>
<path d="M194.67 34.6334L194.792 33.975L197.789 31.1321L197.802 31.0949H195.398L195.558 30.236H199.349L199.223 30.9432L196.352 33.7373L196.339 33.7746H198.787L198.633 34.6334H194.67Z" fill="white"/>
<path d="M199.641 34.6334L199.763 33.975L202.76 31.1321L202.772 31.0949H200.369L200.529 30.236H204.319L204.194 30.9432L201.322 33.7373L201.31 33.7746H203.758L203.604 34.6334H199.641Z" fill="white"/>
<path d="M206.863 34.6334L207.666 30.236H208.802L207.998 34.6334H206.863ZM208.4 29.6062C208.218 29.6062 208.067 29.5508 207.948 29.4401C207.829 29.3294 207.777 29.1968 207.791 29.0422C207.806 28.8876 207.882 28.755 208.02 28.6443C208.161 28.5336 208.321 28.4782 208.501 28.4782C208.683 28.4782 208.832 28.5336 208.949 28.6443C209.068 28.755 209.121 28.8876 209.106 29.0422C209.094 29.1968 209.017 29.3294 208.877 29.4401C208.739 29.5508 208.58 29.6062 208.4 29.6062Z" fill="white"/>
<path d="M213.563 31.3984L212.518 31.5014C212.507 31.4041 212.475 31.3134 212.421 31.2295C212.366 31.1455 212.285 31.0787 212.176 31.029C212.069 30.9775 211.931 30.9518 211.762 30.9518C211.515 30.9518 211.298 31.0023 211.112 31.1035C210.926 31.2046 210.82 31.3344 210.795 31.4928C210.772 31.6112 210.803 31.7076 210.889 31.782C210.975 31.8564 211.134 31.9194 211.366 31.9709L212.163 32.1313C212.603 32.221 212.918 32.366 213.111 32.5664C213.305 32.7668 213.373 33.0293 213.315 33.3537C213.265 33.6247 213.135 33.8633 212.926 34.0694C212.717 34.2737 212.449 34.433 212.122 34.5475C211.798 34.6621 211.438 34.7193 211.043 34.7193C210.443 34.7193 209.98 34.6058 209.656 34.3786C209.334 34.1496 209.174 33.8347 209.176 33.4339L210.293 33.3365C210.306 33.535 210.382 33.6849 210.522 33.786C210.662 33.8853 210.857 33.9358 211.106 33.9377C211.386 33.9397 211.622 33.8862 211.815 33.7774C212.01 33.6667 212.119 33.5322 212.144 33.3738C212.165 33.2554 212.133 33.159 212.047 33.0846C211.963 33.0102 211.814 32.951 211.598 32.9071L210.808 32.7496C210.36 32.6599 210.041 32.5082 209.851 32.2944C209.662 32.0788 209.599 31.8068 209.659 31.4785C209.709 31.2113 209.832 30.9813 210.026 30.7886C210.223 30.5939 210.475 30.4441 210.783 30.3391C211.09 30.2322 211.434 30.1788 211.815 30.1788C212.388 30.1788 212.82 30.2885 213.111 30.508C213.402 30.7275 213.552 31.0243 213.563 31.3984Z" fill="white"/>
<path d="M214.782 34.6964C214.589 34.6964 214.43 34.6353 214.305 34.5132C214.179 34.391 214.121 34.2422 214.129 34.0666C214.138 33.8948 214.214 33.7488 214.358 33.6286C214.503 33.5083 214.669 33.4482 214.857 33.4482C215.043 33.4482 215.201 33.5093 215.331 33.6314C215.463 33.7536 215.522 33.8986 215.51 34.0666C215.502 34.1849 215.462 34.2918 215.391 34.3872C215.322 34.4827 215.234 34.558 215.127 34.6134C215.02 34.6687 214.905 34.6964 214.782 34.6964Z" fill="white"/>
<path d="M217.345 34.6964C217.152 34.6964 216.993 34.6353 216.868 34.5132C216.742 34.391 216.684 34.2422 216.692 34.0666C216.7 33.8948 216.777 33.7488 216.921 33.6286C217.066 33.5083 217.232 33.4482 217.42 33.4482C217.606 33.4482 217.764 33.5093 217.894 33.6314C218.026 33.7536 218.085 33.8986 218.073 34.0666C218.064 34.1849 218.025 34.2918 217.954 34.3872C217.885 34.4827 217.797 34.558 217.69 34.6134C217.583 34.6687 217.468 34.6964 217.345 34.6964Z" fill="white"/>
<path d="M219.908 34.6964C219.715 34.6964 219.556 34.6353 219.431 34.5132C219.305 34.391 219.247 34.2422 219.255 34.0666C219.263 33.8948 219.34 33.7488 219.484 33.6286C219.628 33.5083 219.795 33.4482 219.983 33.4482C220.169 33.4482 220.327 33.5093 220.457 33.6314C220.589 33.7536 220.648 33.8986 220.636 34.0666C220.627 34.1849 220.588 34.2918 220.516 34.3872C220.447 34.4827 220.36 34.558 220.253 34.6134C220.146 34.6687 220.031 34.6964 219.908 34.6964Z" fill="white"/>
</g>
</svg>
