<svg width="190" height="36" viewBox="0 0 190 36" fill="none" xmlns="http://www.w3.org/2000/svg">
<path d="M22.3851 2.74338H16.7663C15.4393 2.74338 14.3612 3.82153 14.3612 5.14849V15.3564C14.3612 16.6834 13.283 17.7615 11.9561 17.7615H8.3553C7.02835 17.7615 5.9502 18.8397 5.9502 20.1666V33.5053C5.9502 34.8323 7.02835 35.9104 8.3553 35.9104H13.9741C15.3011 35.9104 16.3793 34.8323 16.3793 33.5053V23.2974C16.3793 21.9704 17.4574 20.8923 18.7844 20.8923H22.3851C23.7121 20.8923 24.7902 19.8141 24.7902 18.4872V5.14849C24.7902 3.82153 23.7121 2.74338 22.3851 2.74338Z" fill="white"/>
<path d="M41.2181 2.74332H35.5993C34.2723 2.74332 33.1942 3.82147 33.1942 5.14843V15.3563C33.1942 16.6833 32.116 17.7614 30.7891 17.7614H27.1883C25.8614 17.7614 24.7832 18.8396 24.7832 20.1666V33.5053C24.7832 34.8322 25.8614 35.9104 27.1883 35.9104H32.8072C34.1341 35.9104 35.2123 34.8322 35.2123 33.5053V23.2973C35.2123 21.9704 36.2904 20.8922 37.6174 20.8922H41.2181C42.5451 20.8922 43.6232 19.8141 43.6232 18.4871V5.14843C43.6232 3.82147 42.5451 2.74332 41.2181 2.74332Z" fill="white"/>
<path d="M10.8368 11.6243C10.8368 14.2575 8.41098 13.9326 5.41841 13.9326C2.42584 13.9326 0 14.2575 0 11.6243C0 8.99109 1.28549 6.86243 5.41841 6.86243C9.55133 6.86243 10.8368 8.99109 10.8368 11.6243Z" fill="#BF4040"/>
<path d="M5.41872 6.26816C6.9417 6.26816 8.17631 5.03355 8.17631 3.51058C8.17631 1.98761 6.9417 0.752991 5.41872 0.752991C3.89575 0.752991 2.66113 1.98761 2.66113 3.51058C2.66113 5.03355 3.89575 6.26816 5.41872 6.26816Z" fill="#BF4040"/>
<mask id="mask0_2_2871" style="mask-type:luminance" maskUnits="userSpaceOnUse" x="37" y="22" width="11" height="12">
<path d="M44.6987 22.4022L37.0684 25.6868L40.3529 33.3172L47.9833 30.0326L44.6987 22.4022Z" fill="white"/>
</mask>
<g mask="url(#mask0_2_2871)">
<path d="M40.5266 27.8318C40.7547 27.735 40.9828 27.6037 41.2039 27.4586C41.3145 27.3825 41.5357 27.2098 41.7568 27.0231C42.1784 26.6638 42.2199 26.5532 42.2406 26.4979C42.2821 26.4011 42.2475 26.2837 42.1646 26.2215C42.1093 26.18 42.0678 26.1385 42.0194 26.104C41.9227 26.021 41.8259 25.945 41.7015 25.8552C41.4735 25.6962 41.273 25.5925 41.0104 25.4889C40.6925 25.3644 40.3884 25.2608 39.9461 25.247C39.5245 25.2262 39.0614 25.3161 38.6744 25.4819C38.0662 25.7446 37.6861 26.18 37.6308 26.6776C37.5755 27.1545 37.8589 27.5622 38.4602 27.894C38.8264 28.0944 39.407 28.122 39.7871 28.0668C40.029 28.0322 40.2778 27.9562 40.5335 27.8456L40.5266 27.8318Z" fill="#FFA804"/>
<path d="M42.994 25.9312C42.994 25.9312 43.0148 25.9174 43.0286 25.9104C43.2014 25.7999 43.464 25.3714 43.464 25.3714C43.5746 25.1778 43.6506 24.9912 43.699 24.7701C43.8026 24.3139 43.6575 23.8232 43.3534 23.5675C43.153 23.4017 42.9042 23.3602 42.6761 23.457C42.5241 23.5261 42.3858 23.6505 42.2614 23.8302C42.0472 24.1481 42.0126 24.5766 42.1509 25.0189C42.2684 25.3921 42.5033 25.7308 42.759 25.9035C42.8282 25.9519 42.918 25.9588 42.9871 25.9243L42.994 25.9312Z" fill="#FFA804"/>
<path d="M46.3794 26.7951C45.6745 26.1108 44.6447 25.9035 43.7324 26.2629C43.7532 26.9402 44.1333 27.7281 44.7484 28.357C45.4188 29.0481 46.2896 29.449 46.9945 29.4282C47.3124 28.5367 47.1051 27.5 46.3863 26.7951H46.3794Z" fill="#FFA804"/>
<path d="M44.3964 28.6957C43.7537 28.0391 43.3459 27.2444 43.2629 26.5049C43.1178 26.6016 42.9796 26.7191 42.8552 26.8435C42.558 27.1476 42.2885 27.6383 42.0742 28.2396C42.3092 28.8132 42.6824 29.373 43.1662 29.8706C43.7329 30.4512 44.3964 30.8797 45.0599 31.1146C45.1635 31.0732 45.2603 31.0386 45.3501 30.9972C45.8478 30.7829 46.2071 30.5617 46.4352 30.3268C46.5596 30.1955 46.6702 30.0572 46.76 29.9121C45.9722 29.8568 45.1013 29.4214 44.4033 28.7026L44.3964 28.6957Z" fill="#FFA804"/>
<path d="M41.8604 28.9374C41.8466 28.9996 41.8328 29.0687 41.8121 29.1309C41.5978 30.1123 41.5978 30.9831 41.8121 31.4738C41.9019 31.6881 42.1783 31.7157 42.4064 31.7088C42.6276 31.7088 42.9179 31.6742 43.2496 31.612C43.609 31.5429 43.996 31.4531 44.3623 31.3425C43.8094 31.073 43.2841 30.6859 42.8142 30.2021C42.4341 29.8082 42.1092 29.3797 41.8673 28.9305L41.8604 28.9374Z" fill="#FFA804"/>
</g>
<path d="M180.272 19.2751V16.0324L186.899 10.2518V9.89932H180.507V7.66699H189.813V10.9097L183.186 16.6903V17.0428H190.001V19.2751H180.272Z" fill="white"/>
<path d="M168.087 19.2751V16.0324L174.713 10.2518V9.89932H168.322V7.66699H177.627V10.9097L171.001 16.6903V17.0428H177.815V19.2751H168.087Z" fill="white"/>
<path d="M158.518 19.4632C157.625 19.4632 156.834 19.2673 156.144 18.8757C155.455 18.4684 154.922 17.9044 154.546 17.1838C154.17 16.4476 153.982 15.5938 153.982 14.6225V7.66705H156.661V14.411C156.661 15.351 156.888 16.0481 157.343 16.5024C157.813 16.9567 158.471 17.1838 159.317 17.1838C160.272 17.1838 161.024 16.8705 161.572 16.2439C162.136 15.6173 162.418 14.7165 162.418 13.5416V7.66705H165.097V19.2752H162.465V17.6538H162.066C161.862 18.0768 161.486 18.4841 160.938 18.8757C160.405 19.2673 159.599 19.4632 158.518 19.4632Z" fill="white"/>
<path d="M137.861 19.2752V16.7844H140.07V5.31726H137.861V2.82645H146.274C147.261 2.82645 148.122 2.99877 148.858 3.34341C149.61 3.67238 150.19 4.15018 150.597 4.7768C151.02 5.38775 151.232 6.12403 151.232 6.98563V7.19712C151.232 7.94906 151.091 8.56785 150.809 9.05348C150.527 9.53911 150.19 9.91508 149.798 10.1814C149.407 10.4477 149.031 10.6357 148.671 10.7453V11.1448C149.031 11.2388 149.415 11.419 149.822 11.6853C150.245 11.9359 150.597 12.3119 150.879 12.8132C151.177 13.2988 151.326 13.9333 151.326 14.7165V14.9515C151.326 15.8445 151.106 16.6199 150.668 17.2779C150.245 17.9201 149.657 18.4136 148.905 18.7582C148.169 19.1029 147.315 19.2752 146.344 19.2752H137.861ZM142.89 16.7139H146.015C146.767 16.7139 147.362 16.5337 147.801 16.1734C148.255 15.7975 148.483 15.2727 148.483 14.5991V14.3876C148.483 13.714 148.263 13.197 147.825 12.8367C147.386 12.4607 146.783 12.2727 146.015 12.2727H142.89V16.7139ZM142.89 9.71143H145.992C146.712 9.71143 147.292 9.53127 147.731 9.17097C148.185 8.81066 148.412 8.30936 148.412 7.66708V7.4321C148.412 6.78981 148.185 6.28852 147.731 5.92821C147.292 5.56791 146.712 5.38775 145.992 5.38775H142.89V9.71143Z" fill="white"/>
<path d="M124.038 19.2752V2.82645H126.74V9.19446H127.14C127.265 8.92815 127.469 8.66184 127.751 8.39553C128.033 8.12921 128.401 7.9099 128.855 7.73758C129.325 7.56525 129.913 7.47909 130.618 7.47909C131.511 7.47909 132.302 7.68275 132.991 8.09005C133.68 8.48169 134.213 9.03781 134.589 9.75842C134.98 10.479 135.176 11.3328 135.176 12.3197V19.2752H132.474V12.5312C132.474 11.5913 132.239 10.8942 131.769 10.4399C131.315 9.96991 130.665 9.73492 129.819 9.73492C128.863 9.73492 128.111 10.0561 127.563 10.6984C127.015 11.325 126.74 12.2257 126.74 13.4006V19.2752H124.038Z" fill="white"/>
<path d="M115.63 19.6037C114.502 19.6037 113.484 19.3687 112.575 18.8988C111.666 18.4288 110.946 17.7474 110.413 16.8544C109.896 15.9615 109.638 14.8884 109.638 13.6352V13.3062C109.638 12.053 109.896 10.9799 110.413 10.0869C110.946 9.19401 111.666 8.51256 112.575 8.04259C113.484 7.57263 114.502 7.33765 115.63 7.33765C116.742 7.33765 117.69 7.53346 118.473 7.9251C119.272 8.31674 119.914 8.8572 120.4 9.54648C120.886 10.2201 121.199 10.9799 121.34 11.8258L118.732 12.3663C118.669 11.8806 118.52 11.442 118.285 11.0504C118.05 10.6431 117.713 10.3219 117.275 10.0869C116.852 9.85196 116.327 9.73446 115.7 9.73446C115.058 9.73446 114.478 9.87545 113.961 10.1574C113.46 10.4237 113.061 10.831 112.763 11.3793C112.481 11.9276 112.34 12.5856 112.34 13.3532V13.5882C112.34 14.3558 112.481 15.0137 112.763 15.562C113.061 16.0947 113.46 16.502 113.961 16.7839C114.478 17.0659 115.058 17.2069 115.7 17.2069C116.656 17.2069 117.376 16.9641 117.862 16.4785C118.363 15.9772 118.677 15.3349 118.802 14.5516L121.41 15.1626C121.222 15.9772 120.886 16.7213 120.4 17.3949C119.914 18.0685 119.272 18.609 118.473 19.0163C117.69 19.4079 116.742 19.6037 115.63 19.6037Z" fill="white"/>
<path d="M101.858 19.6037C100.699 19.6037 99.6726 19.3609 98.7797 18.8753C97.9024 18.374 97.2131 17.6769 96.7118 16.7839C96.2262 15.8753 95.9834 14.8179 95.9834 13.6117V13.3297C95.9834 12.1078 96.2262 11.0504 96.7118 10.1574C97.1975 9.2645 97.8789 8.57522 98.7562 8.08959C99.6335 7.58829 100.644 7.33765 101.787 7.33765C102.915 7.33765 103.902 7.58829 104.748 8.08959C105.594 8.57522 106.252 9.2645 106.722 10.1574C107.192 11.0504 107.427 12.0921 107.427 13.2827V14.2461H98.7092C98.7405 15.1547 99.0617 15.8832 99.6726 16.4315C100.284 16.9797 101.036 17.2539 101.928 17.2539C102.806 17.2539 103.456 17.0659 103.879 16.6899C104.302 16.2983 104.623 15.8597 104.842 15.374L107.075 16.5255C106.855 16.9484 106.534 17.4027 106.111 17.8883C105.704 18.3583 105.156 18.7656 104.466 19.1103C103.777 19.4392 102.908 19.6037 101.858 19.6037ZM98.7327 12.2018H104.678C104.615 11.4342 104.317 10.8232 103.785 10.3689C103.268 9.91462 102.594 9.68747 101.764 9.68747C100.902 9.68747 100.213 9.91462 99.6961 10.3689C99.1792 10.8232 98.858 11.4342 98.7327 12.2018Z" fill="white"/>
<path d="M88.7646 19.2752V5.38775H83.8535V2.82645H96.4956V5.38775H91.5844V19.2752H88.7646Z" fill="white"/>
<path d="M70.3154 19.2752V2.82645H77.3414C78.3753 2.82645 79.2761 3.0066 80.0437 3.36691C80.8113 3.72721 81.4066 4.23634 81.8296 4.89429C82.2682 5.53657 82.4875 6.31202 82.4875 7.22061V7.47909C82.4875 8.49735 82.2447 9.31196 81.7591 9.92291C81.2734 10.5339 80.686 10.9803 79.9967 11.2623V11.6383C80.6076 11.6696 81.0854 11.8811 81.4301 12.2727C81.7904 12.6644 81.9705 13.1892 81.9705 13.8471V19.2752H79.1508V14.2466C79.1508 13.8549 79.0411 13.5416 78.8218 13.3067C78.6181 13.056 78.2813 12.9307 77.8114 12.9307H73.1587V19.2752H70.3154ZM73.1587 10.3694H77.0594C77.874 10.3694 78.5085 10.1579 78.9628 9.73492C79.4327 9.29629 79.6677 8.71667 79.6677 7.99606V7.78457C79.6677 7.04829 79.4406 6.46867 78.9863 6.0457C78.532 5.60707 77.8897 5.38775 77.0594 5.38775H73.1587V10.3694Z" fill="white"/>
<path d="M54.8955 19.2751V2.82639H57.7388V9.73486H64.2243V2.82639H67.0676V19.2751H64.2243V12.3197H57.7388V19.2751H54.8955Z" fill="white"/>
<g opacity="0.37">
<path d="M105.347 33.7126L106.292 28.5184H108.471C108.883 28.5184 109.214 28.5776 109.466 28.6959C109.719 28.8126 109.894 28.9724 109.992 29.1753C110.092 29.3782 110.118 29.6081 110.07 29.8651C110.031 30.0748 109.953 30.2549 109.836 30.4054C109.721 30.5542 109.58 30.6759 109.414 30.7706C109.247 30.8636 109.068 30.9304 108.877 30.9709L108.866 31.0217C109.066 31.0301 109.25 31.0859 109.416 31.1891C109.583 31.2922 109.709 31.4376 109.795 31.6253C109.88 31.8113 109.899 32.0353 109.853 32.2974C109.803 32.5662 109.687 32.808 109.505 33.0228C109.324 33.2358 109.077 33.404 108.766 33.5275C108.456 33.6509 108.085 33.7126 107.651 33.7126H105.347ZM106.523 32.9264H107.632C108.004 32.9264 108.286 32.8613 108.477 32.7311C108.668 32.5992 108.782 32.4301 108.819 32.2238C108.847 32.07 108.83 31.9313 108.769 31.8079C108.708 31.6828 108.607 31.5847 108.466 31.5137C108.325 31.441 108.149 31.4046 107.938 31.4046H106.798L106.523 32.9264ZM106.926 30.7275H107.946C108.124 30.7275 108.289 30.6979 108.441 30.6387C108.595 30.5778 108.722 30.4924 108.824 30.3825C108.928 30.2709 108.992 30.1391 109.016 29.9869C109.055 29.7857 109.009 29.62 108.877 29.4898C108.746 29.3596 108.529 29.2945 108.227 29.2945H107.181L106.926 30.7275Z" fill="white"/>
<path d="M112.326 33.7887C111.898 33.7887 111.544 33.7075 111.264 33.5452C110.985 33.3812 110.788 33.1496 110.675 32.8503C110.564 32.5493 110.545 32.1951 110.619 31.7876C110.692 31.3869 110.839 31.0352 111.061 30.7325C111.284 30.4282 111.562 30.1915 111.895 30.0224C112.231 29.8516 112.602 29.7662 113.007 29.7662C113.271 29.7662 113.512 29.8051 113.733 29.8829C113.953 29.959 114.14 30.0773 114.292 30.238C114.444 30.3986 114.548 30.6032 114.606 30.8517C114.663 31.0986 114.66 31.3928 114.597 31.7343L114.55 32.0159H111.048L111.156 31.397H113.691C113.725 31.2212 113.713 31.0648 113.658 30.9278C113.602 30.7892 113.51 30.6801 113.38 30.6006C113.25 30.5212 113.088 30.4814 112.893 30.4814C112.695 30.4814 112.51 30.5279 112.337 30.6209C112.167 30.7122 112.023 30.8306 111.907 30.976C111.79 31.1214 111.716 31.2744 111.684 31.4351L111.57 32.0286C111.529 32.272 111.539 32.4707 111.598 32.6246C111.657 32.7784 111.761 32.8917 111.909 32.9644C112.058 33.0371 112.245 33.0735 112.471 33.0735C112.619 33.0735 112.756 33.0549 112.882 33.0177C113.008 32.9805 113.12 32.9247 113.219 32.8503C113.319 32.7742 113.402 32.6812 113.469 32.5713L114.389 32.6677C114.287 32.8943 114.138 33.0921 113.941 33.2612C113.745 33.4286 113.51 33.5587 113.235 33.6517C112.963 33.743 112.66 33.7887 112.326 33.7887Z" fill="white"/>
<path d="M117.918 33.7126L117.423 29.817H118.449L118.699 32.5561H118.738L120.006 29.817H121.02L121.287 32.5409H121.329L122.569 29.817H123.597L121.676 33.7126H120.628L120.306 31.08H120.248L118.969 33.7126H117.918Z" fill="white"/>
<path d="M125.012 31.43L124.6 33.7126H123.591L124.536 28.5184H125.523L125.167 30.4789H125.22C125.355 30.2574 125.54 30.0833 125.773 29.9564C126.009 29.8296 126.291 29.7662 126.621 29.7662C126.914 29.7662 127.161 29.8229 127.361 29.9362C127.561 30.0494 127.702 30.2151 127.783 30.4333C127.867 30.6514 127.881 30.9177 127.825 31.2322L127.369 33.7126H126.36L126.788 31.3742C126.834 31.1121 126.796 30.9084 126.674 30.763C126.554 30.6159 126.363 30.5423 126.101 30.5423C125.922 30.5423 125.756 30.5778 125.604 30.6488C125.452 30.7182 125.324 30.8188 125.22 30.9507C125.118 31.0825 125.049 31.2423 125.012 31.43Z" fill="white"/>
<path d="M130.268 33.7887C129.84 33.7887 129.486 33.7075 129.207 33.5452C128.927 33.3812 128.73 33.1496 128.617 32.8503C128.506 32.5493 128.487 32.1951 128.562 31.7876C128.634 31.3869 128.781 31.0352 129.004 30.7325C129.226 30.4282 129.504 30.1915 129.838 30.0224C130.173 29.8516 130.544 29.7662 130.95 29.7662C131.213 29.7662 131.455 29.8051 131.675 29.8829C131.896 29.959 132.082 30.0773 132.234 30.238C132.386 30.3986 132.491 30.6032 132.548 30.8517C132.605 31.0986 132.603 31.3928 132.54 31.7343L132.492 32.0159H128.99L129.098 31.397H131.633C131.667 31.2212 131.656 31.0648 131.6 30.9278C131.544 30.7892 131.452 30.6801 131.322 30.6006C131.192 30.5212 131.03 30.4814 130.836 30.4814C130.637 30.4814 130.452 30.5279 130.28 30.6209C130.109 30.7122 129.965 30.8306 129.849 30.976C129.732 31.1214 129.658 31.2744 129.626 31.4351L129.512 32.0286C129.472 32.272 129.481 32.4707 129.54 32.6246C129.599 32.7784 129.703 32.8917 129.851 32.9644C130 33.0371 130.187 33.0735 130.413 33.0735C130.561 33.0735 130.698 33.0549 130.824 33.0177C130.95 32.9805 131.063 32.9247 131.161 32.8503C131.261 32.7742 131.344 32.6812 131.411 32.5713L132.331 32.6677C132.229 32.8943 132.08 33.0921 131.884 33.2612C131.687 33.4286 131.452 33.5587 131.177 33.6517C130.905 33.743 130.602 33.7887 130.268 33.7887Z" fill="white"/>
<path d="M133.037 33.7126L133.749 29.817H134.725L134.605 30.4662H134.65C134.766 30.2414 134.931 30.068 135.144 29.9463C135.359 29.8229 135.589 29.7612 135.834 29.7612C135.891 29.7612 135.953 29.7637 136.02 29.7688C136.087 29.7721 136.144 29.7781 136.192 29.7865L136.037 30.6311C135.994 30.6176 135.927 30.6057 135.837 30.5956C135.748 30.5837 135.66 30.5778 135.573 30.5778C135.389 30.5778 135.219 30.6142 135.061 30.6869C134.905 30.7579 134.774 30.8568 134.666 30.9836C134.559 31.1104 134.489 31.2567 134.458 31.4224L134.044 33.7126H133.037Z" fill="white"/>
<path d="M137.852 33.7887C137.424 33.7887 137.07 33.7075 136.79 33.5452C136.51 33.3812 136.314 33.1496 136.201 32.8503C136.09 32.5493 136.071 32.1951 136.145 31.7876C136.217 31.3869 136.365 31.0352 136.587 30.7325C136.81 30.4282 137.088 30.1915 137.421 30.0224C137.757 29.8516 138.127 29.7662 138.533 29.7662C138.796 29.7662 139.038 29.8051 139.259 29.8829C139.479 29.959 139.665 30.0773 139.817 30.238C139.969 30.3986 140.074 30.6032 140.132 30.8517C140.189 31.0986 140.186 31.3928 140.123 31.7343L140.076 32.0159H136.573L136.682 31.397H139.217C139.25 31.2212 139.239 31.0648 139.184 30.9278C139.128 30.7892 139.035 30.6801 138.906 30.6006C138.776 30.5212 138.614 30.4814 138.419 30.4814C138.221 30.4814 138.035 30.5279 137.863 30.6209C137.693 30.7122 137.549 30.8306 137.432 30.976C137.316 31.1214 137.241 31.2744 137.21 31.4351L137.096 32.0286C137.055 32.272 137.064 32.4707 137.124 32.6246C137.183 32.7784 137.287 32.8917 137.435 32.9644C137.583 33.0371 137.77 33.0735 137.997 33.0735C138.145 33.0735 138.282 33.0549 138.408 33.0177C138.534 32.9805 138.646 32.9247 138.744 32.8503C138.844 32.7742 138.928 32.6812 138.995 32.5713L139.915 32.6677C139.813 32.8943 139.664 33.0921 139.467 33.2612C139.271 33.4286 139.035 33.5587 138.761 33.6517C138.489 33.743 138.186 33.7887 137.852 33.7887Z" fill="white"/>
<path d="M145.406 29.817L145.276 30.5271H142.824L142.952 29.817H145.406ZM143.725 28.8836H144.731L144.064 32.5409C144.043 32.6643 144.047 32.759 144.075 32.8249C144.104 32.8892 144.152 32.9331 144.217 32.9568C144.283 32.9805 144.358 32.9923 144.442 32.9923C144.503 32.9923 144.56 32.9881 144.614 32.9796C144.668 32.9695 144.71 32.9619 144.742 32.9568L144.786 33.6746C144.725 33.6915 144.643 33.7101 144.539 33.7304C144.437 33.7507 144.315 33.7625 144.172 33.7659C143.916 33.7709 143.694 33.7354 143.505 33.6594C143.318 33.5816 143.181 33.4624 143.094 33.3017C143.008 33.1394 142.989 32.9365 143.035 32.693L143.725 28.8836Z" fill="white"/>
<path d="M147.051 31.43L146.64 33.7126H145.631L146.576 28.5184H147.563L147.207 30.4789H147.26C147.395 30.2574 147.58 30.0833 147.813 29.9564C148.048 29.8296 148.331 29.7662 148.661 29.7662C148.954 29.7662 149.2 29.8229 149.4 29.9362C149.601 30.0494 149.741 30.2151 149.823 30.4333C149.906 30.6514 149.92 30.9177 149.865 31.2322L149.409 33.7126H148.4L148.828 31.3742C148.874 31.1121 148.836 30.9084 148.714 30.763C148.593 30.6159 148.402 30.5423 148.141 30.5423C147.961 30.5423 147.795 30.5778 147.644 30.6488C147.492 30.7182 147.364 30.8188 147.26 30.9507C147.158 31.0825 147.088 31.2423 147.051 31.43Z" fill="white"/>
<path d="M152.308 33.7887C151.88 33.7887 151.526 33.7075 151.246 33.5452C150.966 33.3812 150.77 33.1496 150.657 32.8503C150.546 32.5493 150.527 32.1951 150.601 31.7876C150.674 31.3869 150.821 31.0352 151.043 30.7325C151.266 30.4282 151.544 30.1915 151.877 30.0224C152.213 29.8516 152.583 29.7662 152.989 29.7662C153.252 29.7662 153.494 29.8051 153.715 29.8829C153.935 29.959 154.122 30.0773 154.274 30.238C154.426 30.3986 154.53 30.6032 154.588 30.8517C154.645 31.0986 154.642 31.3928 154.579 31.7343L154.532 32.0159H151.029L151.138 31.397H153.673C153.706 31.2212 153.695 31.0648 153.64 30.9278C153.584 30.7892 153.492 30.6801 153.362 30.6006C153.232 30.5212 153.07 30.4814 152.875 30.4814C152.677 30.4814 152.492 30.5279 152.319 30.6209C152.149 30.7122 152.005 30.8306 151.888 30.976C151.772 31.1214 151.698 31.2744 151.666 31.4351L151.552 32.0286C151.511 32.272 151.521 32.4707 151.58 32.6246C151.639 32.7784 151.743 32.8917 151.891 32.9644C152.039 33.0371 152.227 33.0735 152.453 33.0735C152.601 33.0735 152.738 33.0549 152.864 33.0177C152.99 32.9805 153.102 32.9247 153.201 32.8503C153.301 32.7742 153.384 32.6812 153.451 32.5713L154.371 32.6677C154.269 32.8943 154.12 33.0921 153.923 33.2612C153.727 33.4286 153.492 33.5587 153.217 33.6517C152.945 33.743 152.642 33.7887 152.308 33.7887Z" fill="white"/>
<path d="M157.063 33.7126L158.008 28.5184H159.015L158.664 30.4612H158.709C158.776 30.3665 158.866 30.2659 158.979 30.1593C159.093 30.0511 159.239 29.959 159.415 29.8829C159.591 29.8051 159.804 29.7662 160.054 29.7662C160.384 29.7662 160.668 29.8432 160.905 29.997C161.142 30.1492 161.312 30.3749 161.414 30.6742C161.516 30.9718 161.528 31.337 161.45 31.7699C161.372 32.1976 161.229 32.5612 161.022 32.8604C160.814 33.1597 160.563 33.388 160.268 33.5452C159.974 33.7025 159.659 33.7811 159.323 33.7811C159.079 33.7811 158.882 33.7439 158.734 33.6695C158.588 33.5951 158.475 33.5055 158.398 33.4007C158.32 33.2941 158.263 33.1935 158.228 33.0988H158.164L158.053 33.7126H157.063ZM158.406 31.7648C158.361 32.0167 158.36 32.2374 158.403 32.4267C158.448 32.6161 158.535 32.7641 158.664 32.8706C158.796 32.9754 158.969 33.0278 159.184 33.0278C159.405 33.0278 159.599 32.9737 159.768 32.8655C159.939 32.7556 160.079 32.606 160.191 32.4166C160.302 32.2255 160.38 32.0083 160.424 31.7648C160.467 31.523 160.467 31.3083 160.424 31.1206C160.383 30.9329 160.297 30.7858 160.166 30.6793C160.036 30.5728 159.86 30.5195 159.637 30.5195C159.421 30.5195 159.228 30.5711 159.059 30.6742C158.891 30.7773 158.751 30.9219 158.639 31.1079C158.528 31.2939 158.45 31.5128 158.406 31.7648Z" fill="white"/>
<path d="M164.969 32.0742L165.383 29.817H166.389L165.677 33.7126H164.702L164.83 33.0202H164.785C164.652 33.2383 164.461 33.4167 164.212 33.5554C163.966 33.694 163.682 33.7633 163.362 33.7633C163.082 33.7633 162.846 33.7067 162.653 33.5934C162.46 33.4784 162.323 33.3119 162.241 33.0938C162.162 32.874 162.15 32.6085 162.205 32.2974L162.661 29.817H163.668L163.239 32.1554C163.197 32.4022 163.236 32.5984 163.356 32.7438C163.479 32.8892 163.66 32.9619 163.901 32.9619C164.049 32.9619 164.199 32.9289 164.349 32.863C164.501 32.797 164.633 32.699 164.746 32.5688C164.859 32.4369 164.933 32.272 164.969 32.0742Z" fill="white"/>
<path d="M166.659 33.7126L166.768 33.1293L169.423 30.6108L169.434 30.5778H167.304L167.446 29.817H170.804L170.693 30.4434L168.149 32.9188L168.138 32.9517H170.307L170.17 33.7126H166.659Z" fill="white"/>
<path d="M171.063 33.7126L171.171 33.1293L173.826 30.6108L173.837 30.5778H171.708L171.849 29.817H175.208L175.096 30.4434L172.553 32.9188L172.542 32.9517H174.71L174.574 33.7126H171.063Z" fill="white"/>
<path d="M177.461 33.7126L178.172 29.817H179.179L178.467 33.7126H177.461ZM178.823 29.259C178.662 29.259 178.528 29.2099 178.423 29.1119C178.317 29.0138 178.271 28.8963 178.284 28.7593C178.297 28.6224 178.364 28.5049 178.486 28.4068C178.611 28.3087 178.752 28.2597 178.912 28.2597C179.073 28.2597 179.206 28.3087 179.309 28.4068C179.415 28.5049 179.461 28.6224 179.448 28.7593C179.437 28.8963 179.37 29.0138 179.245 29.1119C179.123 29.2099 178.982 29.259 178.823 29.259Z" fill="white"/>
<path d="M183.396 30.8467L182.471 30.938C182.462 30.8517 182.433 30.7714 182.385 30.697C182.336 30.6226 182.264 30.5635 182.168 30.5195C182.073 30.4738 181.951 30.451 181.801 30.451C181.582 30.451 181.39 30.4958 181.225 30.5854C181.06 30.675 180.967 30.79 180.945 30.9304C180.924 31.0352 180.952 31.1206 181.028 31.1865C181.104 31.2525 181.245 31.3083 181.451 31.3539L182.157 31.4959C182.546 31.5754 182.826 31.7039 182.996 31.8814C183.169 32.059 183.229 32.2915 183.177 32.5789C183.132 32.819 183.017 33.0304 182.832 33.213C182.647 33.3939 182.41 33.5351 182.121 33.6365C181.833 33.738 181.514 33.7887 181.164 33.7887C180.632 33.7887 180.223 33.6881 179.936 33.4869C179.65 33.284 179.508 33.005 179.51 32.6499L180.5 32.5637C180.511 32.7395 180.579 32.8723 180.703 32.9619C180.827 33.0498 180.999 33.0946 181.22 33.0963C181.468 33.098 181.678 33.0507 181.848 32.9543C182.02 32.8562 182.118 32.737 182.14 32.5967C182.159 32.4918 182.13 32.4064 182.054 32.3405C181.98 32.2746 181.847 32.2221 181.656 32.1833L180.956 32.0438C180.559 31.9643 180.277 31.8299 180.108 31.6405C179.941 31.4494 179.885 31.2085 179.938 30.9177C179.983 30.681 180.091 30.4772 180.264 30.3064C180.438 30.134 180.661 30.0013 180.933 29.9083C181.206 29.8136 181.511 29.7662 181.848 29.7662C182.356 29.7662 182.739 29.8635 182.996 30.0579C183.254 30.2523 183.387 30.5153 183.396 30.8467Z" fill="white"/>
<path d="M184.476 33.7684C184.306 33.7684 184.165 33.7143 184.054 33.6061C183.943 33.4979 183.891 33.366 183.898 33.2104C183.906 33.0583 183.973 32.9289 184.101 32.8224C184.229 32.7159 184.376 32.6626 184.543 32.6626C184.708 32.6626 184.848 32.7167 184.963 32.8249C185.08 32.9331 185.133 33.0616 185.121 33.2104C185.114 33.3153 185.079 33.41 185.016 33.4945C184.955 33.579 184.877 33.6458 184.782 33.6949C184.688 33.7439 184.586 33.7684 184.476 33.7684Z" fill="white"/>
<path d="M186.747 33.7684C186.576 33.7684 186.436 33.7143 186.324 33.6061C186.213 33.4979 186.161 33.366 186.169 33.2104C186.176 33.0583 186.244 32.9289 186.372 32.8224C186.5 32.7159 186.647 32.6626 186.814 32.6626C186.979 32.6626 187.119 32.7167 187.233 32.8249C187.35 32.9331 187.403 33.0616 187.392 33.2104C187.384 33.3153 187.349 33.41 187.286 33.4945C187.225 33.579 187.147 33.6458 187.053 33.6949C186.958 33.7439 186.856 33.7684 186.747 33.7684Z" fill="white"/>
<path d="M189.017 33.7684C188.847 33.7684 188.706 33.7143 188.595 33.6061C188.484 33.4979 188.432 33.366 188.439 33.2104C188.447 33.0583 188.514 32.9289 188.642 32.8224C188.77 32.7159 188.917 32.6626 189.084 32.6626C189.249 32.6626 189.389 32.7167 189.504 32.8249C189.621 32.9331 189.673 33.0616 189.662 33.2104C189.655 33.3153 189.62 33.41 189.557 33.4945C189.496 33.579 189.418 33.6458 189.323 33.6949C189.229 33.7439 189.127 33.7684 189.017 33.7684Z" fill="white"/>
</g>
</svg>
