<svg width="195" height="45" viewBox="0 0 195 45" fill="none" xmlns="http://www.w3.org/2000/svg">
<path d="M24.5075 10.3322H17.5901C16.9336 10.3322 16.4043 10.8616 16.4043 11.518V16.0285C16.4043 17.659 15.0843 18.979 13.4538 18.979H8.35039C7.69394 18.979 7.16455 19.5084 7.16455 20.1648V43.2817C7.16455 43.9381 7.69394 44.4675 8.35039 44.4675H15.2678C15.9242 44.4675 16.4537 43.9381 16.4537 43.2817V21.9859C16.4537 20.3554 17.7736 19.0354 19.4042 19.0354H24.5075C25.1639 19.0354 25.6933 18.506 25.6933 17.8496V11.5251C25.6933 10.8686 25.1639 10.3392 24.5075 10.3392V10.3322Z" fill="white"/>
<path d="M10.214 6.90182H8.44231C8.28702 6.90182 8.15999 6.77477 8.15999 6.61948V4.84777C8.15999 4.69248 8.03292 4.56543 7.87763 4.56543H6.79063C6.63534 4.56543 6.50826 4.69248 6.50826 4.84777V6.61948C6.50826 6.77477 6.38119 6.90182 6.2259 6.90182H4.45424C4.29895 6.90182 4.17188 7.02887 4.17188 7.18416V8.27119C4.17188 8.42648 4.29895 8.55353 4.45424 8.55353H6.2259C6.38119 8.55353 6.50826 8.68058 6.50826 8.83587V10.6076C6.50826 10.7629 6.63534 10.8899 6.79063 10.8899H7.87763C8.03292 10.8899 8.15999 10.7629 8.15999 10.6076V8.83587C8.15999 8.68058 8.28702 8.55353 8.44231 8.55353H10.214C10.3693 8.55353 10.4964 8.42648 10.4964 8.27119V7.18416C10.4964 7.02887 10.3693 6.90182 10.214 6.90182Z" fill="#C4395E"/>
<path d="M7.33384 15.7318C4.24218 15.7318 0 6.90855 0 3.79571V2.84986L0.938761 2.75104C3.2328 2.5181 5.17394 1.80519 6.69859 0.64758L7.29149 0.195831L7.91265 0.612285C9.54318 1.69931 11.5125 2.41928 13.7713 2.75104L14.6677 2.88515V3.78865C14.6677 5.77211 13.3689 8.77908 12.1478 10.9249C10.9125 13.1131 9.07024 15.7247 7.32677 15.7247L7.33384 15.7318ZM2.18814 4.69921C2.80224 7.90381 6.17623 13.3248 7.33384 13.6354C8.4985 13.3319 11.8937 7.87557 12.4866 4.66392C10.5879 4.28275 8.87264 3.64042 7.36916 2.75104C5.89392 3.72512 4.1575 4.38157 2.19521 4.70627L2.18814 4.69921Z" fill="#C4395E"/>
<mask id="mask0_2_2309" style="mask-type:luminance" maskUnits="userSpaceOnUse" x="17" y="19" width="12" height="12">
<path d="M25.11 19.3976L17.3169 22.7522L20.6715 30.5453L28.4646 27.1907L25.11 19.3976Z" fill="white"/>
</mask>
<g mask="url(#mask0_2_2309)">
<path d="M20.8585 24.9437C21.0915 24.8449 21.3244 24.7108 21.5502 24.5625C21.6632 24.4849 21.889 24.3084 22.1149 24.1179C22.5455 23.7508 22.5879 23.6379 22.609 23.5814C22.6514 23.4826 22.6161 23.3626 22.5314 23.2991C22.4749 23.2567 22.4326 23.2143 22.3832 23.179C22.2843 23.0943 22.1855 23.0167 22.0585 22.9249C21.8256 22.7626 21.6209 22.6567 21.3526 22.5508C21.0279 22.4238 20.7173 22.3179 20.2656 22.3038C19.835 22.2826 19.3621 22.3744 18.9668 22.5438C18.3457 22.812 17.9574 23.2567 17.901 23.7649C17.8445 24.252 18.1339 24.6684 18.748 25.0072C19.1221 25.2119 19.715 25.2402 20.1032 25.1837C20.3503 25.1484 20.6044 25.0707 20.8656 24.9578L20.8585 24.9437Z" fill="#FFA804"/>
<path d="M23.3785 23.0025C23.3785 23.0025 23.3997 22.9884 23.4138 22.9814C23.5903 22.8684 23.8585 22.4308 23.8585 22.4308C23.9714 22.2331 24.0491 22.0426 24.0985 21.8167C24.2043 21.3508 24.0561 20.8497 23.7455 20.5885C23.5408 20.4191 23.2867 20.3767 23.0538 20.4756C22.8985 20.5462 22.7574 20.6732 22.6303 20.8567C22.4115 21.1814 22.3762 21.619 22.5174 22.0708C22.6373 22.452 22.8773 22.7978 23.1385 22.9743C23.2091 23.0237 23.3009 23.0308 23.3715 22.9955L23.3785 23.0025Z" fill="#FFA804"/>
<path d="M26.8304 23.885C26.1104 23.1862 25.0587 22.9744 24.127 23.3415C24.1481 24.0332 24.5363 24.8379 25.1645 25.4802C25.8492 26.1861 26.7386 26.5955 27.4586 26.5743C27.7833 25.6638 27.5715 24.605 26.8374 23.885H26.8304Z" fill="#FFA804"/>
<path d="M24.8043 25.826C24.1478 25.1555 23.7314 24.3437 23.6467 23.5885C23.4985 23.6873 23.3573 23.8073 23.2302 23.9343C22.9267 24.2449 22.6514 24.7461 22.4326 25.3602C22.6726 25.946 23.0538 26.5178 23.5479 27.026C24.1267 27.6189 24.8043 28.0565 25.4819 28.2965C25.5878 28.2542 25.6866 28.2189 25.7784 28.1766C26.2866 27.9577 26.6536 27.7319 26.8866 27.4919C27.0136 27.3578 27.1266 27.2166 27.2184 27.0683C26.4137 27.0119 25.5243 26.5672 24.8114 25.8331L24.8043 25.826Z" fill="#FFA804"/>
<path d="M22.2209 26.073C22.2067 26.1365 22.1926 26.2071 22.1714 26.2706C21.9526 27.2729 21.9526 28.1623 22.1714 28.6634C22.2632 28.8823 22.5455 28.9105 22.7785 28.9035C23.0043 28.9035 23.3008 28.8681 23.6396 28.8046C24.0067 28.734 24.402 28.6423 24.7761 28.5293C24.2114 28.2541 23.6749 27.8588 23.1949 27.3647C22.8067 26.9623 22.475 26.5247 22.2279 26.0659L22.2209 26.073Z" fill="#FFA804"/>
</g>
<path d="M186.233 23.4889V20.5666L192.204 15.3574V15.0397H186.445V13.028H194.83V15.9503L188.859 21.1595V21.4772H195V23.4889H186.233Z" fill="white"/>
<path d="M175.252 23.4889V20.5666L181.224 15.3574V15.0397H175.464V13.028H183.85V15.9503L177.878 21.1595V21.4772H184.019V23.4889H175.252Z" fill="white"/>
<path d="M166.629 23.6583C165.824 23.6583 165.111 23.4818 164.49 23.1289C163.869 22.7618 163.389 22.2536 163.05 21.6042C162.711 20.9407 162.542 20.1713 162.542 19.2961V13.028H164.956V19.1055C164.956 19.9525 165.161 20.5807 165.57 20.9901C165.994 21.3995 166.587 21.6042 167.349 21.6042C168.21 21.6042 168.888 21.3219 169.382 20.7572C169.89 20.1925 170.144 19.3808 170.144 18.322V13.028H172.558V23.4889H170.186V22.0277H169.826C169.643 22.4089 169.304 22.776 168.81 23.1289C168.33 23.4818 167.603 23.6583 166.629 23.6583Z" fill="white"/>
<path d="M148.013 23.4891V21.2445H150.004V10.9107H148.013V8.66611H155.594C156.483 8.66611 157.26 8.8214 157.923 9.13197C158.601 9.42844 159.123 9.85901 159.49 10.4237C159.872 10.9743 160.062 11.6378 160.062 12.4142V12.6048C160.062 13.2824 159.935 13.8401 159.681 14.2777C159.427 14.7153 159.123 15.0541 158.77 15.2941C158.418 15.5341 158.079 15.7035 157.754 15.8023V16.1623C158.079 16.247 158.425 16.4094 158.792 16.6494C159.173 16.8752 159.49 17.2141 159.745 17.6658C160.013 18.1034 160.147 18.6752 160.147 19.381V19.5928C160.147 20.3975 159.949 21.0963 159.554 21.6892C159.173 22.268 158.643 22.7127 157.966 23.0233C157.302 23.3338 156.533 23.4891 155.658 23.4891H148.013ZM152.545 21.181H155.361C156.039 21.181 156.575 21.0186 156.971 20.6939C157.38 20.3551 157.585 19.8822 157.585 19.2752V19.0846C157.585 18.4775 157.387 18.0117 156.992 17.687C156.596 17.3482 156.053 17.1788 155.361 17.1788H152.545V21.181ZM152.545 14.8706H155.34C155.989 14.8706 156.512 14.7083 156.907 14.3836C157.316 14.0589 157.521 13.6071 157.521 13.0283V12.8166C157.521 12.2378 157.316 11.786 156.907 11.4613C156.512 11.1366 155.989 10.9743 155.34 10.9743H152.545V14.8706Z" fill="white"/>
<path d="M135.558 23.4891V8.66611H137.993V14.4047H138.353C138.466 14.1647 138.649 13.9248 138.903 13.6848C139.157 13.4448 139.489 13.2471 139.899 13.0918C140.322 12.9366 140.852 12.8589 141.487 12.8589C142.292 12.8589 143.004 13.0424 143.626 13.4095C144.247 13.7624 144.727 14.2636 145.066 14.913C145.418 15.5623 145.595 16.3317 145.595 17.2211V23.4891H143.16V17.4117C143.16 16.5647 142.948 15.9365 142.524 15.5271C142.115 15.1035 141.529 14.8918 140.767 14.8918C139.906 14.8918 139.228 15.1812 138.734 15.76C138.24 16.3247 137.993 17.1364 137.993 18.1952V23.4891H135.558Z" fill="white"/>
<path d="M127.979 23.7854C126.962 23.7854 126.045 23.5737 125.226 23.1502C124.407 22.7266 123.758 22.1125 123.278 21.3079C122.812 20.5032 122.579 19.5362 122.579 18.4068V18.1103C122.579 16.981 122.812 16.0139 123.278 15.2093C123.758 14.4046 124.407 13.7905 125.226 13.367C126.045 12.9434 126.962 12.7317 127.979 12.7317C128.981 12.7317 129.835 12.9082 130.541 13.2611C131.261 13.614 131.84 14.1011 132.278 14.7222C132.715 15.3292 132.998 16.0139 133.125 16.7763L130.774 17.2633C130.718 16.8257 130.584 16.4304 130.372 16.0775C130.16 15.7104 129.857 15.421 129.461 15.2093C129.08 14.9975 128.607 14.8916 128.042 14.8916C127.464 14.8916 126.941 15.0187 126.475 15.2728C126.024 15.5128 125.664 15.8798 125.395 16.3739C125.141 16.868 125.014 17.4609 125.014 18.1527V18.3644C125.014 19.0562 125.141 19.6491 125.395 20.1432C125.664 20.6232 126.024 20.9902 126.475 21.2443C126.941 21.4985 127.464 21.6255 128.042 21.6255C128.904 21.6255 129.553 21.4067 129.991 20.9691C130.442 20.5173 130.725 19.9385 130.838 19.2326L133.188 19.7832C133.019 20.5173 132.715 21.1879 132.278 21.7949C131.84 22.402 131.261 22.889 130.541 23.256C129.835 23.609 128.981 23.7854 127.979 23.7854Z" fill="white"/>
<path d="M115.569 23.7854C114.525 23.7854 113.6 23.5666 112.795 23.129C112.005 22.6772 111.384 22.049 110.932 21.2443C110.494 20.4255 110.275 19.4726 110.275 18.3856V18.1315C110.275 17.0304 110.494 16.0775 110.932 15.2728C111.369 14.4681 111.984 13.8469 112.774 13.4093C113.565 12.9576 114.475 12.7317 115.506 12.7317C116.522 12.7317 117.412 12.9576 118.174 13.4093C118.936 13.8469 119.529 14.4681 119.953 15.2728C120.376 16.0775 120.588 17.0163 120.588 18.0892V18.9574H112.732C112.76 19.7762 113.049 20.4326 113.6 20.9267C114.151 21.4208 114.828 21.6679 115.633 21.6679C116.423 21.6679 117.009 21.4985 117.39 21.1596C117.772 20.8067 118.061 20.4114 118.259 19.9738L120.27 21.0114C120.073 21.3926 119.783 21.802 119.402 22.2396C119.035 22.6631 118.541 23.0302 117.92 23.3407C117.299 23.6372 116.515 23.7854 115.569 23.7854ZM112.753 17.1151H118.11C118.054 16.4233 117.786 15.8728 117.306 15.4634C116.84 15.054 116.233 14.8493 115.485 14.8493C114.708 14.8493 114.087 15.054 113.621 15.4634C113.155 15.8728 112.866 16.4233 112.753 17.1151Z" fill="white"/>
<path d="M103.77 23.4891V10.9743H99.3442V8.66611H110.737V10.9743H106.311V23.4891H103.77Z" fill="white"/>
<path d="M92.8423 23.7854C91.7976 23.7854 90.8729 23.5666 90.0683 23.129C89.2777 22.6772 88.6565 22.049 88.2048 21.2443C87.7672 20.4255 87.5483 19.4726 87.5483 18.3856V18.1315C87.5483 17.0304 87.7672 16.0775 88.2048 15.2728C88.6424 14.4681 89.2565 13.8469 90.0471 13.4093C90.8376 12.9576 91.7482 12.7317 92.7787 12.7317C93.7952 12.7317 94.6846 12.9576 95.4469 13.4093C96.2092 13.8469 96.8021 14.4681 97.2257 15.2728C97.6492 16.0775 97.8609 17.0163 97.8609 18.0892V18.9574H90.0047C90.033 19.7762 90.3224 20.4326 90.8729 20.9267C91.4235 21.4208 92.1011 21.6679 92.9058 21.6679C93.6964 21.6679 94.2822 21.4985 94.6634 21.1596C95.0446 20.8067 95.334 20.4114 95.5316 19.9738L97.5433 21.0114C97.3457 21.3926 97.0563 21.802 96.6751 22.2396C96.308 22.6631 95.8139 23.0302 95.1928 23.3407C94.5716 23.6372 93.7881 23.7854 92.8423 23.7854ZM90.0259 17.1151H95.3834C95.3269 16.4233 95.0587 15.8728 94.5787 15.4634C94.1128 15.054 93.5058 14.8493 92.7576 14.8493C91.9811 14.8493 91.36 15.054 90.8941 15.4634C90.4282 15.8728 90.1388 16.4233 90.0259 17.1151Z" fill="white"/>
<path d="M80.1567 23.4893V13.0284H82.5496V14.2355H82.9096C83.0649 13.7978 83.326 13.4802 83.6931 13.2825C84.0601 13.0849 84.4978 12.9861 85.006 12.9861H86.2765V15.146H84.9636C84.2578 15.146 83.686 15.3366 83.2484 15.7178C82.8108 16.0848 82.592 16.6565 82.592 17.433V23.4893H80.1567Z" fill="white"/>
<path d="M71.1314 23.6583C70.3267 23.6583 69.6138 23.4818 68.9926 23.1289C68.3714 22.7618 67.8915 22.2536 67.5527 21.6042C67.2138 20.9407 67.0444 20.1713 67.0444 19.2961V13.028H69.4585V19.1055C69.4585 19.9525 69.6632 20.5807 70.0726 20.9901C70.4961 21.3995 71.089 21.6042 71.8513 21.6042C72.7125 21.6042 73.3901 21.3219 73.8842 20.7572C74.3924 20.1925 74.6465 19.3808 74.6465 18.322V13.028H77.0606V23.4889H74.6889V22.0277H74.3289C74.1454 22.4089 73.8066 22.776 73.3125 23.1289C72.8325 23.4818 72.1054 23.6583 71.1314 23.6583Z" fill="white"/>
<path d="M60.3231 23.7854C58.9679 23.7854 57.8526 23.489 56.9773 22.8961C56.1021 22.3031 55.5727 21.4349 55.3892 20.2914L57.6338 19.7197C57.7326 20.2561 57.9091 20.6797 58.1632 20.9902C58.4173 21.3008 58.7279 21.5196 59.0949 21.6467C59.4761 21.7737 59.8855 21.8373 60.3231 21.8373C60.9866 21.8373 61.4807 21.7173 61.8054 21.4773C62.1442 21.2373 62.3136 20.9338 62.3136 20.5667C62.3136 20.1856 62.1513 19.9032 61.8266 19.7197C61.516 19.5362 61.036 19.3809 60.3866 19.2538L59.7302 19.1479C59.0102 19.0068 58.3538 18.8162 57.7608 18.5762C57.1679 18.3221 56.6879 17.9833 56.3209 17.5598C55.968 17.1221 55.7915 16.5716 55.7915 15.9081C55.7915 14.8916 56.1656 14.1081 56.9138 13.5575C57.6761 13.007 58.6714 12.7317 59.8996 12.7317C61.0713 12.7317 62.0383 12.9929 62.8007 13.5152C63.563 14.0375 64.0571 14.7363 64.283 15.6116L62.0383 16.2892C61.9254 15.6963 61.6784 15.2798 61.2972 15.0398C60.916 14.7857 60.4502 14.6587 59.8996 14.6587C59.3349 14.6587 58.8973 14.7575 58.5867 14.9551C58.2902 15.1528 58.142 15.4351 58.142 15.8022C58.142 16.1692 58.2973 16.4445 58.6079 16.628C58.9185 16.8116 59.3349 16.9457 59.8572 17.0304L60.5137 17.1574C61.2901 17.2986 61.9889 17.4821 62.6101 17.708C63.2454 17.9339 63.7465 18.2586 64.1136 18.6821C64.4806 19.1056 64.6641 19.6773 64.6641 20.3973C64.6641 21.4843 64.2689 22.3243 63.4783 22.9172C62.7019 23.496 61.6501 23.7854 60.3231 23.7854Z" fill="white"/>
<path d="M42.9756 23.4892V13.0284H45.3684V14.4895H45.7284C45.912 14.0942 46.2437 13.7201 46.7237 13.3672C47.2037 13.0143 47.9307 12.8378 48.9048 12.8378C49.7095 12.8378 50.4224 13.0213 51.0435 13.3884C51.6647 13.7554 52.1447 14.2636 52.4835 14.913C52.8364 15.5624 53.0129 16.3318 53.0129 17.2212V23.4892H50.5777V17.4118C50.5777 16.5647 50.3659 15.9365 49.9424 15.5271C49.533 15.1036 48.9471 14.8918 48.1848 14.8918C47.3237 14.8918 46.6461 15.1812 46.1519 15.7601C45.6578 16.3247 45.4108 17.1365 45.4108 18.1953V23.4892H42.9756Z" fill="white"/>
<path d="M37.4102 23.4891V8.66608H39.9724V23.4891H37.4102Z" fill="white"/>
<path d="M108.702 36.4132L109.667 31.1083H111.893C112.314 31.1083 112.652 31.1687 112.91 31.2896C113.167 31.4087 113.346 31.5719 113.446 31.7792C113.549 31.9864 113.575 32.2212 113.526 32.4837C113.486 32.6979 113.407 32.8818 113.287 33.0355C113.17 33.1874 113.026 33.3118 112.856 33.4085C112.685 33.5034 112.503 33.5716 112.308 33.6131L112.297 33.6649C112.501 33.6735 112.688 33.7305 112.859 33.8359C113.029 33.9412 113.158 34.0897 113.245 34.2814C113.332 34.4713 113.352 34.7002 113.304 34.9678C113.253 35.2424 113.135 35.4893 112.95 35.7087C112.764 35.9262 112.512 36.0981 112.194 36.2241C111.878 36.3502 111.499 36.4132 111.056 36.4132H108.702ZM109.903 35.6102H111.036C111.416 35.6102 111.704 35.5437 111.899 35.4108C112.094 35.2761 112.21 35.1034 112.248 34.8927C112.277 34.7356 112.26 34.594 112.197 34.4679C112.135 34.3401 112.032 34.2399 111.888 34.1674C111.744 34.0932 111.564 34.056 111.348 34.056H110.184L109.903 35.6102ZM110.315 33.3644H111.357C111.538 33.3644 111.707 33.3342 111.862 33.2738C112.019 33.2116 112.15 33.1244 112.254 33.0121C112.36 32.8982 112.425 32.7635 112.45 32.6081C112.49 32.4026 112.442 32.2333 112.308 32.1004C112.173 31.9674 111.952 31.9009 111.644 31.9009H110.576L110.315 33.3644Z" fill="white" fill-opacity="0.37"/>
<path d="M115.831 36.4909C115.393 36.4909 115.032 36.408 114.746 36.2423C114.46 36.0747 114.26 35.8382 114.144 35.5325C114.031 35.2251 114.012 34.8633 114.087 34.4472C114.161 34.0379 114.312 33.6787 114.539 33.3696C114.766 33.0588 115.05 32.817 115.391 32.6443C115.733 32.4699 116.112 32.3827 116.526 32.3827C116.795 32.3827 117.042 32.4224 117.267 32.5019C117.492 32.5796 117.683 32.7004 117.838 32.8645C117.993 33.0285 118.1 33.2375 118.159 33.4913C118.217 33.7435 118.215 34.0439 118.15 34.3928L118.102 34.6803H114.525L114.635 34.0483H117.225C117.259 33.8687 117.247 33.7089 117.191 33.5691C117.134 33.4275 117.039 33.3161 116.907 33.2349C116.774 33.1537 116.609 33.1132 116.41 33.1132C116.207 33.1132 116.018 33.1607 115.842 33.2556C115.668 33.3489 115.521 33.4698 115.402 33.6183C115.283 33.7668 115.207 33.9231 115.175 34.0871L115.058 34.6933C115.017 34.9419 115.026 35.1448 115.087 35.302C115.147 35.4591 115.253 35.5748 115.405 35.6491C115.556 35.7233 115.747 35.7605 115.978 35.7605C116.13 35.7605 116.27 35.7415 116.398 35.7035C116.527 35.6655 116.642 35.6085 116.742 35.5325C116.844 35.4548 116.929 35.3598 116.997 35.2476L117.937 35.346C117.833 35.5774 117.681 35.7795 117.48 35.9521C117.279 36.1231 117.039 36.2561 116.759 36.351C116.481 36.4443 116.171 36.4909 115.831 36.4909Z" fill="white" fill-opacity="0.37"/>
<path d="M121.542 36.4132L121.036 32.4345H122.084L122.339 35.232H122.379L123.674 32.4345H124.71L124.983 35.2165H125.025L126.291 32.4345H127.342L125.38 36.4132H124.31L123.98 33.7245H123.921L122.615 36.4132H121.542Z" fill="white" fill-opacity="0.37"/>
<path d="M128.786 34.0819L128.366 36.4132H127.336L128.301 31.1083H129.309L128.945 33.1106H128.999C129.138 32.8844 129.326 32.7065 129.564 32.577C129.805 32.4475 130.093 32.3827 130.43 32.3827C130.729 32.3827 130.981 32.4405 131.185 32.5562C131.39 32.6719 131.534 32.8412 131.617 33.0639C131.702 33.2867 131.716 33.5587 131.66 33.8799L131.194 36.4132H130.163L130.601 34.025C130.648 33.7573 130.609 33.5492 130.484 33.4007C130.361 33.2504 130.166 33.1753 129.899 33.1753C129.716 33.1753 129.546 33.2116 129.391 33.2841C129.236 33.3549 129.105 33.4577 128.999 33.5924C128.895 33.7271 128.824 33.8903 128.786 34.0819Z" fill="white" fill-opacity="0.37"/>
<path d="M134.155 36.4909C133.718 36.4909 133.356 36.408 133.071 36.2423C132.785 36.0747 132.584 35.8382 132.469 35.5325C132.355 35.2251 132.336 34.8633 132.412 34.4472C132.486 34.0379 132.636 33.6787 132.863 33.3696C133.091 33.0588 133.374 32.817 133.715 32.6443C134.058 32.4699 134.436 32.3827 134.851 32.3827C135.12 32.3827 135.367 32.4224 135.592 32.5019C135.817 32.5796 136.007 32.7004 136.163 32.8645C136.318 33.0285 136.425 33.2375 136.483 33.4913C136.542 33.7435 136.539 34.0439 136.475 34.3928L136.427 34.6803H132.849L132.96 34.0483H135.549C135.583 33.8687 135.572 33.7089 135.515 33.5691C135.458 33.4275 135.364 33.3161 135.231 33.2349C135.099 33.1537 134.933 33.1132 134.734 33.1132C134.532 33.1132 134.343 33.1607 134.167 33.2556C133.992 33.3489 133.846 33.4698 133.727 33.6183C133.607 33.7668 133.532 33.9231 133.499 34.0871L133.383 34.6933C133.341 34.9419 133.351 35.1448 133.411 35.302C133.472 35.4591 133.578 35.5748 133.729 35.6491C133.881 35.7233 134.072 35.7605 134.303 35.7605C134.454 35.7605 134.594 35.7415 134.723 35.7035C134.852 35.6655 134.966 35.6085 135.067 35.5325C135.169 35.4548 135.254 35.3598 135.322 35.2476L136.262 35.346C136.158 35.5774 136.005 35.7795 135.805 35.9521C135.604 36.1231 135.364 36.2561 135.084 36.351C134.805 36.4443 134.496 36.4909 134.155 36.4909Z" fill="white" fill-opacity="0.37"/>
<path d="M136.983 36.4132L137.71 32.4345H138.706L138.584 33.0976H138.63C138.749 32.8679 138.917 32.6909 139.135 32.5666C139.355 32.4405 139.589 32.3775 139.839 32.3775C139.898 32.3775 139.961 32.3801 140.029 32.3853C140.098 32.3887 140.156 32.3948 140.206 32.4034L140.047 33.266C140.003 33.2522 139.935 33.2401 139.842 33.2297C139.751 33.2176 139.661 33.2116 139.572 33.2116C139.385 33.2116 139.211 33.2487 139.05 33.323C138.891 33.3955 138.757 33.4965 138.647 33.626C138.537 33.7556 138.466 33.9049 138.434 34.0742L138.011 36.4132H136.983Z" fill="white" fill-opacity="0.37"/>
<path d="M141.9 36.4909C141.463 36.4909 141.102 36.408 140.816 36.2423C140.53 36.0747 140.329 35.8382 140.214 35.5325C140.1 35.2251 140.082 34.8633 140.157 34.4472C140.231 34.0379 140.382 33.6787 140.609 33.3696C140.836 33.0588 141.12 32.817 141.46 32.6443C141.803 32.4699 142.182 32.3827 142.596 32.3827C142.865 32.3827 143.112 32.4224 143.337 32.5019C143.562 32.5796 143.753 32.7004 143.908 32.8645C144.063 33.0285 144.17 33.2375 144.229 33.4913C144.287 33.7435 144.284 34.0439 144.22 34.3928L144.172 34.6803H140.594L140.705 34.0483H143.295C143.329 33.8687 143.317 33.7089 143.26 33.5691C143.204 33.4275 143.109 33.3161 142.977 33.2349C142.844 33.1537 142.678 33.1132 142.48 33.1132C142.277 33.1132 142.088 33.1607 141.912 33.2556C141.738 33.3489 141.591 33.4698 141.472 33.6183C141.353 33.7668 141.277 33.9231 141.245 34.0871L141.128 34.6933C141.087 34.9419 141.096 35.1448 141.157 35.302C141.217 35.4591 141.323 35.5748 141.475 35.6491C141.626 35.7233 141.817 35.7605 142.048 35.7605C142.2 35.7605 142.34 35.7415 142.468 35.7035C142.597 35.6655 142.712 35.6085 142.812 35.5325C142.914 35.4548 142.999 35.3598 143.067 35.2476L144.007 35.346C143.903 35.5774 143.751 35.7795 143.55 35.9521C143.349 36.1231 143.109 36.2561 142.829 36.351C142.551 36.4443 142.241 36.4909 141.9 36.4909Z" fill="white" fill-opacity="0.37"/>
<path d="M149.616 32.4345L149.482 33.1598H146.978L147.109 32.4345H149.616ZM147.898 31.4813H148.926L148.245 35.2165C148.224 35.3426 148.228 35.4393 148.256 35.5066C148.286 35.5722 148.335 35.6171 148.401 35.6413C148.469 35.6655 148.546 35.6776 148.631 35.6776C148.693 35.6776 148.752 35.6733 148.807 35.6646C148.862 35.6543 148.905 35.6465 148.937 35.6413L148.983 36.3744C148.92 36.3916 148.836 36.4106 148.73 36.4313C148.626 36.4521 148.501 36.4642 148.355 36.4676C148.094 36.4728 147.867 36.4365 147.674 36.3588C147.483 36.2794 147.343 36.1576 147.254 35.9936C147.167 35.8278 147.147 35.6206 147.194 35.3719L147.898 31.4813Z" fill="white" fill-opacity="0.37"/>
<path d="M151.296 34.0819L150.876 36.4132H149.845L150.81 31.1083H151.818L151.455 33.1106H151.509C151.647 32.8844 151.835 32.7065 152.074 32.577C152.314 32.4475 152.603 32.3827 152.94 32.3827C153.239 32.3827 153.491 32.4405 153.695 32.5562C153.9 32.6719 154.043 32.8412 154.127 33.0639C154.212 33.2867 154.226 33.5587 154.169 33.8799L153.704 36.4132H152.673L153.11 34.025C153.158 33.7573 153.119 33.5492 152.994 33.4007C152.871 33.2504 152.676 33.1753 152.409 33.1753C152.225 33.1753 152.056 33.2116 151.901 33.2841C151.746 33.3549 151.615 33.4577 151.509 33.5924C151.405 33.7271 151.334 33.8903 151.296 34.0819Z" fill="white" fill-opacity="0.37"/>
<path d="M156.665 36.4909C156.228 36.4909 155.866 36.408 155.58 36.2423C155.294 36.0747 155.094 35.8382 154.978 35.5325C154.865 35.2251 154.846 34.8633 154.922 34.4472C154.995 34.0379 155.146 33.6787 155.373 33.3696C155.6 33.0588 155.884 32.817 156.225 32.6443C156.567 32.4699 156.946 32.3827 157.36 32.3827C157.629 32.3827 157.876 32.4224 158.101 32.5019C158.327 32.5796 158.517 32.7004 158.672 32.8645C158.827 33.0285 158.934 33.2375 158.993 33.4913C159.052 33.7435 159.049 34.0439 158.984 34.3928L158.936 34.6803H155.359L155.47 34.0483H158.059C158.093 33.8687 158.082 33.7089 158.025 33.5691C157.968 33.4275 157.873 33.3161 157.741 33.2349C157.608 33.1537 157.443 33.1132 157.244 33.1132C157.042 33.1132 156.852 33.1607 156.676 33.2556C156.502 33.3489 156.355 33.4698 156.236 33.6183C156.117 33.7668 156.041 33.9231 156.009 34.0871L155.893 34.6933C155.851 34.9419 155.86 35.1448 155.921 35.302C155.982 35.4591 156.088 35.5748 156.239 35.6491C156.39 35.7233 156.582 35.7605 156.812 35.7605C156.964 35.7605 157.104 35.7415 157.233 35.7035C157.361 35.6655 157.476 35.6085 157.576 35.5325C157.678 35.4548 157.764 35.3598 157.832 35.2476L158.772 35.346C158.667 35.5774 158.515 35.7795 158.314 35.9521C158.114 36.1231 157.873 36.2561 157.593 36.351C157.315 36.4443 157.006 36.4909 156.665 36.4909Z" fill="white" fill-opacity="0.37"/>
<path d="M161.521 36.4132L162.487 31.1083H163.514L163.157 33.0924H163.202C163.27 32.9957 163.362 32.893 163.477 32.7842C163.595 32.6737 163.743 32.5796 163.923 32.5019C164.103 32.4224 164.321 32.3827 164.576 32.3827C164.913 32.3827 165.203 32.4613 165.445 32.6184C165.687 32.7738 165.86 33.0044 165.965 33.31C166.069 33.614 166.081 33.987 166.001 34.429C165.922 34.8659 165.776 35.2372 165.564 35.5429C165.352 35.8485 165.096 36.0817 164.795 36.2423C164.494 36.4029 164.172 36.4832 163.829 36.4832C163.58 36.4832 163.379 36.4452 163.228 36.3692C163.078 36.2932 162.964 36.2017 162.884 36.0946C162.805 35.9858 162.747 35.8831 162.711 35.7864H162.646L162.532 36.4132H161.521ZM162.893 34.4239C162.847 34.6812 162.846 34.9065 162.89 35.0999C162.935 35.2933 163.024 35.4444 163.157 35.5532C163.291 35.6603 163.468 35.7138 163.688 35.7138C163.913 35.7138 164.111 35.6586 164.284 35.5481C164.458 35.4358 164.602 35.283 164.715 35.0896C164.829 34.8944 164.908 34.6725 164.954 34.4239C164.997 34.1769 164.997 33.9576 164.954 33.7659C164.912 33.5742 164.824 33.424 164.69 33.3152C164.557 33.2064 164.377 33.152 164.15 33.152C163.929 33.152 163.732 33.2047 163.56 33.31C163.388 33.4154 163.245 33.563 163.131 33.753C163.017 33.9429 162.938 34.1666 162.893 34.4239Z" fill="white" fill-opacity="0.37"/>
<path d="M169.595 34.7399L170.018 32.4345H171.046L170.319 36.4132H169.323L169.453 35.7061H169.408C169.271 35.9288 169.076 36.111 168.823 36.2526C168.571 36.3942 168.282 36.465 167.954 36.465C167.668 36.465 167.427 36.4072 167.23 36.2915C167.033 36.174 166.893 36.0039 166.81 35.7812C166.728 35.5567 166.716 35.2856 166.773 34.9678L167.239 32.4345H168.266L167.829 34.8228C167.786 35.0749 167.825 35.2752 167.948 35.4237C168.073 35.5722 168.259 35.6465 168.505 35.6465C168.656 35.6465 168.809 35.6128 168.962 35.5455C169.117 35.4781 169.253 35.378 169.368 35.245C169.483 35.1103 169.559 34.9419 169.595 34.7399Z" fill="white" fill-opacity="0.37"/>
<path d="M171.322 36.4132L171.433 35.8174L174.144 33.2453L174.156 33.2116H171.981L172.126 32.4345H175.555L175.442 33.0743L172.844 35.6024L172.832 35.6361H175.047L174.908 36.4132H171.322Z" fill="white" fill-opacity="0.37"/>
<path d="M175.819 36.4132L175.93 35.8174L178.641 33.2453L178.653 33.2116H176.478L176.623 32.4345H180.052L179.939 33.0743L177.341 35.6024L177.33 35.6361H179.544L179.405 36.4132H175.819Z" fill="white" fill-opacity="0.37"/>
<path d="M182.354 36.4132L183.08 32.4345H184.108L183.381 36.4132H182.354ZM183.745 31.8646C183.58 31.8646 183.444 31.8146 183.336 31.7144C183.228 31.6142 183.181 31.4942 183.194 31.3543C183.207 31.2145 183.276 31.0945 183.401 30.9943C183.528 30.8941 183.673 30.8441 183.836 30.8441C184 30.8441 184.136 30.8941 184.242 30.9943C184.35 31.0945 184.397 31.2145 184.384 31.3543C184.372 31.4942 184.303 31.6142 184.176 31.7144C184.051 31.8146 183.908 31.8646 183.745 31.8646Z" fill="white" fill-opacity="0.37"/>
<path d="M188.416 33.4862L187.47 33.5794C187.461 33.4913 187.432 33.4093 187.382 33.3333C187.333 33.2574 187.259 33.1969 187.161 33.152C187.064 33.1054 186.94 33.0821 186.786 33.0821C186.563 33.0821 186.367 33.1278 186.199 33.2194C186.03 33.3109 185.934 33.4283 185.912 33.5716C185.891 33.6787 185.919 33.7659 185.997 33.8333C186.075 33.9006 186.218 33.9576 186.429 34.0042L187.15 34.1493C187.547 34.2304 187.833 34.3617 188.007 34.543C188.183 34.7243 188.245 34.9618 188.192 35.2553C188.146 35.5006 188.029 35.7164 187.84 35.9029C187.65 36.0877 187.408 36.2319 187.113 36.3355C186.819 36.4391 186.494 36.4909 186.136 36.4909C185.593 36.4909 185.175 36.3882 184.881 36.1827C184.59 35.9755 184.445 35.6905 184.447 35.3279L185.458 35.2398C185.469 35.4194 185.538 35.555 185.665 35.6465C185.792 35.7363 185.968 35.782 186.193 35.7838C186.446 35.7855 186.66 35.7371 186.835 35.6387C187.011 35.5386 187.11 35.4168 187.133 35.2735C187.152 35.1664 187.122 35.0792 187.045 35.0119C186.969 34.9445 186.834 34.891 186.639 34.8513L185.923 34.7088C185.518 34.6276 185.229 34.4903 185.057 34.2969C184.887 34.1018 184.829 33.8557 184.884 33.5587C184.929 33.3169 185.04 33.1088 185.216 32.9344C185.394 32.7583 185.622 32.6227 185.9 32.5278C186.179 32.431 186.49 32.3827 186.835 32.3827C187.353 32.3827 187.744 32.482 188.007 32.6806C188.27 32.8792 188.406 33.1477 188.416 33.4862Z" fill="white" fill-opacity="0.37"/>
<path d="M189.519 36.4702C189.345 36.4702 189.201 36.4149 189.087 36.3044C188.974 36.1939 188.921 36.0592 188.928 35.9003C188.936 35.7449 189.005 35.6128 189.136 35.504C189.266 35.3952 189.417 35.3408 189.587 35.3408C189.756 35.3408 189.898 35.3961 190.016 35.5066C190.135 35.6171 190.189 35.7484 190.178 35.9003C190.17 36.0074 190.134 36.1041 190.07 36.1904C190.007 36.2768 189.928 36.345 189.831 36.3951C189.735 36.4452 189.631 36.4702 189.519 36.4702Z" fill="white" fill-opacity="0.37"/>
<path d="M191.838 36.4702C191.664 36.4702 191.52 36.4149 191.406 36.3044C191.293 36.1939 191.24 36.0592 191.247 35.9003C191.255 35.7449 191.324 35.6128 191.455 35.504C191.585 35.3952 191.736 35.3408 191.906 35.3408C192.074 35.3408 192.217 35.3961 192.335 35.5066C192.454 35.6171 192.508 35.7484 192.497 35.9003C192.489 36.0074 192.453 36.1041 192.389 36.1904C192.326 36.2768 192.247 36.345 192.15 36.3951C192.054 36.4452 191.949 36.4702 191.838 36.4702Z" fill="white" fill-opacity="0.37"/>
<path d="M194.157 36.4702C193.983 36.4702 193.839 36.4149 193.725 36.3044C193.612 36.1939 193.559 36.0592 193.566 35.9003C193.574 35.7449 193.643 35.6128 193.773 35.504C193.904 35.3952 194.054 35.3408 194.225 35.3408C194.393 35.3408 194.536 35.3961 194.654 35.5066C194.773 35.6171 194.827 35.7484 194.815 35.9003C194.808 36.0074 194.772 36.1041 194.708 36.1904C194.645 36.2768 194.566 36.345 194.469 36.3951C194.372 36.4452 194.268 36.4702 194.157 36.4702Z" fill="white" fill-opacity="0.37"/>
</svg>
