<svg width="200" height="35" viewBox="0 0 200 35" fill="none" xmlns="http://www.w3.org/2000/svg">
<path d="M16.4821 22.7072H9.81623C9.38929 22.7072 9.03809 22.356 9.03809 21.929V16.4958C9.03809 16.2479 9.15516 16.0207 9.35486 15.8692L12.6809 13.4039C12.9563 13.1973 13.3351 13.1973 13.6105 13.4039L16.9366 15.8692C17.1363 16.0138 17.2533 16.2479 17.2533 16.4958V21.9428C17.2533 22.3628 16.909 22.7072 16.489 22.7072H16.4821Z" fill="#005EFF"/>
<path d="M18.8032 18.0725C18.6173 18.0725 18.4245 18.0174 18.2592 17.8935L13.2598 14.2094C13.1772 14.1474 13.0739 14.1474 12.9913 14.2094L8.01254 17.8728C7.60625 18.1758 7.03469 18.0863 6.73859 17.68C6.44248 17.2737 6.52512 16.7022 6.93141 16.4061L11.9101 12.7426C12.6401 12.2055 13.6179 12.2055 14.341 12.7426L19.3403 16.4267C19.7466 16.7228 19.8361 17.3013 19.5332 17.7007C19.3541 17.9417 19.0787 18.0725 18.7963 18.0725H18.8032Z" fill="#005EFF"/>
<path d="M35.3306 1.04982V1.03604H13.9972C13.2535 1.03604 12.6475 1.64203 12.6475 2.38574V9.02404C12.6475 9.76775 13.2535 10.3737 13.9972 10.3737H34.8004C35.9573 10.3737 36.9902 11.1863 37.1692 12.3225C37.4034 13.7824 36.2809 15.0426 34.8692 15.0426H23.9959C23.2522 15.0426 22.6462 15.6486 22.6462 16.3923V19.6426C22.6462 21.0267 22.0953 22.3557 21.1175 23.3336C20.1397 24.3114 18.8106 24.8623 17.4265 24.8623H13.9972C13.2535 24.8623 12.6475 25.4683 12.6475 26.212V32.8503C12.6475 33.594 13.2535 34.2 13.9972 34.2H20.6355C21.3792 34.2 21.9852 33.594 21.9852 32.8503V29.7171C21.9852 28.333 22.536 27.0039 23.5139 26.0261L23.631 25.909C24.6088 24.9312 25.9378 24.3803 27.322 24.3803H35.3375V24.3665C41.5213 24.0704 46.4381 18.9677 46.4381 12.715C46.4381 6.46237 41.5213 1.35969 35.3375 1.06359L35.3306 1.04982Z" fill="white"/>
<mask id="mask0_2_3403" style="mask-type:luminance" maskUnits="userSpaceOnUse" x="0" y="0" width="11" height="11">
<path d="M7.60275 4.5353e-05L0 3.27274L3.27269 10.8755L10.8754 7.60279L7.60275 4.5353e-05Z" fill="white"/>
</mask>
<g mask="url(#mask0_2_3403)">
<path d="M3.44676 5.41611C3.67401 5.3197 3.90125 5.18887 4.12161 5.04426C4.23179 4.96851 4.45215 4.79635 4.6725 4.61043C5.09256 4.25234 5.13388 4.14216 5.15454 4.08707C5.19586 3.99067 5.16143 3.87361 5.07879 3.81163C5.0237 3.77031 4.98239 3.72899 4.93418 3.69456C4.83778 3.61193 4.74137 3.53618 4.61742 3.44666C4.39017 3.28827 4.19047 3.18498 3.9288 3.08169C3.61203 2.95774 3.30904 2.85444 2.86832 2.84067C2.44826 2.82001 1.98688 2.90954 1.60126 3.07481C0.995272 3.33648 0.616534 3.77031 0.561444 4.26612C0.506355 4.74126 0.788687 5.14755 1.38779 5.47809C1.75276 5.67779 2.3312 5.70533 2.70994 5.65024C2.95095 5.61581 3.19886 5.54007 3.45365 5.42989L3.44676 5.41611Z" fill="#FFA804"/>
<path d="M5.90473 3.51566C5.90473 3.51566 5.92539 3.50189 5.93917 3.495C6.11132 3.38482 6.373 2.95787 6.373 2.95787C6.48318 2.76506 6.55893 2.57914 6.60713 2.35878C6.71042 1.90429 6.56581 1.41536 6.26282 1.16057C6.06312 0.995305 5.81521 0.95399 5.58797 1.0504C5.43647 1.11926 5.29875 1.24321 5.1748 1.42225C4.96133 1.73902 4.9269 2.16596 5.06462 2.60668C5.18169 2.97854 5.41582 3.31596 5.67061 3.48811C5.73947 3.53632 5.82899 3.5432 5.89785 3.50877L5.90473 3.51566Z" fill="#FFA804"/>
<path d="M9.28 4.37643C8.5776 3.69469 7.55156 3.4881 6.64258 3.84619C6.66324 4.52103 7.04198 5.30606 7.65485 5.93271C8.32281 6.62133 9.19047 7.02073 9.89287 7.00007C10.2096 6.11175 10.003 5.07882 9.28688 4.37643H9.28Z" fill="#FFA804"/>
<path d="M7.30302 6.27012C6.66261 5.61593 6.25631 4.82401 6.17368 4.08719C6.02907 4.1836 5.89135 4.30066 5.7674 4.42462C5.47129 4.72761 5.20273 5.21653 4.98926 5.81563C5.22339 6.38718 5.59524 6.94497 6.07727 7.44077C6.64194 8.01921 7.30302 8.44616 7.96409 8.68029C8.06739 8.63897 8.16379 8.60454 8.25331 8.56322C8.74912 8.34975 9.10721 8.1294 9.33445 7.89526C9.4584 7.76443 9.56858 7.6267 9.6581 7.48209C8.87308 7.427 8.00541 6.99317 7.30991 6.277L7.30302 6.27012Z" fill="#FFA804"/>
<path d="M4.77569 6.51092C4.76192 6.57289 4.74815 6.64175 4.72749 6.70373C4.51401 7.68157 4.51401 8.54923 4.72749 9.03815C4.81701 9.25162 5.09246 9.27917 5.3197 9.27229C5.54006 9.27229 5.82928 9.23785 6.15982 9.17588C6.5179 9.10702 6.90353 9.01749 7.2685 8.90731C6.7176 8.63875 6.19425 8.25313 5.72599 7.77109C5.34725 7.37858 5.0236 6.95163 4.78258 6.50403L4.77569 6.51092Z" fill="#FFA804"/>
</g>
<path d="M190.972 17.0085V14.0625L196.992 8.81112V8.49091H191.185V6.46292H199.639V9.40884L193.619 14.6603V14.9805H199.809V17.0085H190.972Z" fill="white"/>
<path d="M179.902 17.0085V14.0625L185.922 8.81112V8.49091H180.116V6.46292H188.569V9.40884L182.549 14.6603V14.9805H188.74V17.0085H179.902Z" fill="white"/>
<path d="M171.209 17.1792C170.398 17.1792 169.679 17.0013 169.053 16.6455C168.427 16.2755 167.943 15.7632 167.601 15.1085C167.26 14.4397 167.089 13.6641 167.089 12.7817V6.46292H169.522V12.5896C169.522 13.4435 169.729 14.0768 170.142 14.4895C170.568 14.9022 171.166 15.1085 171.935 15.1085C172.803 15.1085 173.486 14.8239 173.984 14.2547C174.496 13.6854 174.753 12.8671 174.753 11.7997V6.46292H177.186V17.0085H174.795V15.5355H174.432C174.247 15.9197 173.906 16.2898 173.408 16.6455C172.924 17.0013 172.191 17.1792 171.209 17.1792Z" fill="white"/>
<path d="M152.442 17.0087V14.7459H154.449V4.32842H152.442V2.06561H160.085C160.981 2.06561 161.764 2.22216 162.433 2.53525C163.116 2.83411 163.643 3.26817 164.013 3.83743C164.397 4.39246 164.589 5.06134 164.589 5.84407V6.0362C164.589 6.71931 164.461 7.28145 164.205 7.72263C163.949 8.16381 163.643 8.50536 163.287 8.7473C162.931 8.98923 162.589 9.16001 162.262 9.25963V9.62253C162.589 9.70792 162.938 9.87158 163.308 10.1135C163.692 10.3412 164.013 10.6828 164.269 11.1382C164.539 11.5794 164.674 12.1557 164.674 12.8673V13.0808C164.674 13.892 164.475 14.5964 164.077 15.1942C163.692 15.7777 163.159 16.2259 162.476 16.539C161.807 16.8521 161.031 17.0087 160.149 17.0087H152.442ZM157.011 14.6818H159.85C160.533 14.6818 161.074 14.5182 161.472 14.1908C161.885 13.8493 162.091 13.3725 162.091 12.7606V12.5685C162.091 11.9565 161.892 11.4869 161.494 11.1595C161.095 10.818 160.547 10.6472 159.85 10.6472H157.011V14.6818ZM157.011 8.32035H159.829C160.483 8.32035 161.01 8.15669 161.408 7.82937C161.821 7.50204 162.027 7.04663 162.027 6.46314V6.24967C162.027 5.66618 161.821 5.21077 161.408 4.88345C161.01 4.55612 160.483 4.39246 159.829 4.39246H157.011V8.32035Z" fill="white"/>
<path d="M139.886 17.0087V2.06561H142.341V7.85071H142.704C142.817 7.60878 143.002 7.36684 143.259 7.12491C143.515 6.88297 143.849 6.68373 144.262 6.52718C144.689 6.37064 145.223 6.29236 145.863 6.29236C146.674 6.29236 147.393 6.47737 148.019 6.84739C148.645 7.20318 149.129 7.7084 149.471 8.36305C149.826 9.01769 150.004 9.79331 150.004 10.6899V17.0087H147.549V10.882C147.549 10.0281 147.336 9.39483 146.909 8.98212C146.496 8.55517 145.906 8.3417 145.137 8.3417C144.269 8.3417 143.586 8.63344 143.088 9.21694C142.59 9.7862 142.341 10.6045 142.341 11.6719V17.0087H139.886Z" fill="white"/>
<path d="M132.246 17.3076C131.222 17.3076 130.297 17.0941 129.471 16.6671C128.646 16.2402 127.991 15.6211 127.507 14.8099C127.038 13.9987 126.803 13.0239 126.803 11.8854V11.5865C126.803 10.448 127.038 9.47313 127.507 8.66193C127.991 7.85074 128.646 7.23167 129.471 6.80472C130.297 6.37778 131.222 6.16431 132.246 6.16431C133.257 6.16431 134.118 6.3422 134.829 6.69799C135.555 7.05377 136.139 7.54476 136.58 8.17095C137.021 8.7829 137.306 9.47313 137.434 10.2416L135.064 10.7326C135.007 10.2914 134.872 9.89296 134.659 9.53717C134.445 9.16715 134.139 8.87541 133.741 8.66193C133.356 8.44846 132.88 8.34172 132.31 8.34172C131.727 8.34172 131.2 8.46981 130.731 8.72597C130.275 8.96791 129.912 9.33793 129.642 9.83603C129.386 10.3341 129.258 10.9319 129.258 11.6292V11.8427C129.258 12.54 129.386 13.1377 129.642 13.6358C129.912 14.1197 130.275 14.4897 130.731 14.7459C131.2 15.0021 131.727 15.1301 132.31 15.1301C133.178 15.1301 133.833 14.9096 134.274 14.4684C134.73 14.013 135.014 13.4295 135.128 12.7179L137.498 13.2729C137.327 14.013 137.021 14.689 136.58 15.3009C136.139 15.9129 135.555 16.4039 134.829 16.7739C134.118 17.1297 133.257 17.3076 132.246 17.3076Z" fill="white"/>
<path d="M119.735 17.3076C118.682 17.3076 117.75 17.087 116.939 16.6458C116.142 16.1904 115.516 15.5571 115.06 14.7459C114.619 13.9205 114.398 12.9598 114.398 11.864V11.6079C114.398 10.4978 114.619 9.53717 115.06 8.72597C115.501 7.91478 116.12 7.28859 116.917 6.84742C117.714 6.39201 118.632 6.16431 119.671 6.16431C120.696 6.16431 121.592 6.39201 122.361 6.84742C123.129 7.28859 123.727 7.91478 124.154 8.72597C124.581 9.53717 124.795 10.4836 124.795 11.5652V12.4404H116.875C116.903 13.2658 117.195 13.9276 117.75 14.4257C118.305 14.9238 118.988 15.1728 119.799 15.1728C120.596 15.1728 121.187 15.0021 121.571 14.6605C121.955 14.3047 122.247 13.9062 122.446 13.4651L124.474 14.5111C124.275 14.8953 123.983 15.308 123.599 15.7492C123.229 16.1762 122.731 16.5462 122.105 16.8593C121.479 17.1581 120.689 17.3076 119.735 17.3076ZM116.896 10.5832H122.297C122.24 9.88584 121.97 9.33081 121.486 8.9181C121.016 8.50539 120.404 8.29903 119.65 8.29903C118.867 8.29903 118.241 8.50539 117.771 8.9181C117.302 9.33081 117.01 9.88584 116.896 10.5832Z" fill="white"/>
<path d="M107.84 17.0087V4.39246H103.379V2.06561H114.864V4.39246H110.402V17.0087H107.84Z" fill="white"/>
<path d="M90.7695 21.2781V6.46317H93.1818V7.85074H93.5447C93.7866 7.40956 94.1709 7.0182 94.6974 6.67664C95.2382 6.33508 96.0067 6.16431 97.0029 6.16431C97.8568 6.16431 98.6467 6.37778 99.3725 6.80472C100.112 7.21744 100.703 7.82939 101.144 8.64059C101.585 9.45178 101.806 10.4266 101.806 11.5652V11.9067C101.806 13.0452 101.585 14.0201 101.144 14.8313C100.703 15.6425 100.12 16.2615 99.3938 16.6885C98.668 17.1012 97.871 17.3076 97.0029 17.3076C96.334 17.3076 95.7719 17.2293 95.3165 17.0727C94.8753 16.9162 94.5124 16.7098 94.2278 16.4537C93.9574 16.1975 93.7439 15.9413 93.5874 15.6852H93.2245V21.2781H90.7695ZM96.2771 15.1728C97.1737 15.1728 97.9066 14.8882 98.4759 14.3189C99.0594 13.7355 99.3511 12.91 99.3511 11.8427V11.6292C99.3511 10.5476 99.0594 9.72218 98.4759 9.15292C97.8924 8.58366 97.1595 8.29903 96.2771 8.29903C95.3948 8.29903 94.6547 8.58366 94.057 9.15292C93.4735 9.72218 93.1818 10.5476 93.1818 11.6292V11.8427C93.1818 12.91 93.4735 13.7355 94.057 14.3189C94.6547 14.8882 95.3948 15.1728 96.2771 15.1728Z" fill="white"/>
<path d="M82.6736 17.3076C81.6205 17.3076 80.6741 17.0941 79.8344 16.6671C79.009 16.226 78.3543 15.6069 77.8705 14.8099C77.4008 13.9987 77.166 13.031 77.166 11.9067V11.5652C77.166 10.4409 77.4008 9.47313 77.8705 8.66193C78.3543 7.85074 79.009 7.23167 79.8344 6.80472C80.6741 6.37778 81.6205 6.16431 82.6736 6.16431C83.7267 6.16431 84.666 6.37778 85.4914 6.80472C86.3169 7.23167 86.9644 7.85074 87.434 8.66193C87.9179 9.47313 88.1598 10.4409 88.1598 11.5652V11.9067C88.1598 13.031 87.9179 13.9987 87.434 14.8099C86.9644 15.6069 86.3169 16.226 85.4914 16.6671C84.666 17.0941 83.7267 17.3076 82.6736 17.3076ZM82.6736 15.1301C83.5702 15.1301 84.3031 14.8455 84.8724 14.2763C85.4416 13.6928 85.7263 12.8816 85.7263 11.8427V11.6292C85.7263 10.5903 85.4416 9.78622 84.8724 9.21696C84.3031 8.63347 83.5702 8.34172 82.6736 8.34172C81.777 8.34172 81.0441 8.63347 80.4748 9.21696C79.9056 9.78622 79.6209 10.5903 79.6209 11.6292V11.8427C79.6209 12.8816 79.9056 13.6928 80.4748 14.2763C81.0441 14.8455 81.777 15.1301 82.6736 15.1301Z" fill="white"/>
<path d="M69.7148 17.0088V6.46329H72.1271V7.68008H72.49C72.6465 7.2389 72.9098 6.91869 73.2798 6.71945C73.6499 6.52021 74.091 6.42059 74.6034 6.42059H75.8842V8.59801H74.5607C73.8491 8.59801 73.2727 8.79014 72.8315 9.17439C72.3904 9.5444 72.1698 10.1208 72.1698 10.9035V17.0088H69.7148Z" fill="white"/>
<path d="M56.7666 17.0088V2.0657H62.8079C63.7471 2.0657 64.5726 2.25071 65.2841 2.62073C65.9957 2.99075 66.5579 3.51732 66.9706 4.20043C67.3833 4.86931 67.5896 5.66627 67.5896 6.59132V6.89018C67.5896 7.80099 67.3762 8.59796 66.9492 9.28107C66.5365 9.96418 65.9673 10.4907 65.2415 10.8608C64.5299 11.2308 63.7187 11.4158 62.8079 11.4158H59.3496V17.0088H56.7666ZM59.3496 9.08894H62.5517C63.2917 9.08894 63.8823 8.8897 64.3235 8.49122C64.7789 8.09274 65.0066 7.54483 65.0066 6.84748V6.63401C65.0066 5.93667 64.786 5.38876 64.3449 4.99028C63.9037 4.59179 63.306 4.39255 62.5517 4.39255H59.3496V9.08894Z" fill="white"/>
<path d="M115.988 31.5319L116.93 26.3565H119.102C119.512 26.3565 119.842 26.4155 120.093 26.5334C120.344 26.6497 120.519 26.8089 120.617 27.011C120.716 27.2132 120.742 27.4423 120.694 27.6984C120.655 27.9073 120.578 28.0867 120.462 28.2366C120.347 28.3849 120.207 28.5062 120.041 28.6005C119.874 28.6932 119.696 28.7597 119.506 28.8002L119.495 28.8507C119.694 28.8591 119.877 28.9147 120.043 29.0175C120.209 29.1203 120.335 29.2651 120.42 29.4521C120.505 29.6375 120.524 29.8607 120.478 30.1218C120.428 30.3897 120.313 30.6306 120.132 30.8445C119.951 31.0568 119.705 31.2244 119.395 31.3474C119.087 31.4704 118.717 31.5319 118.284 31.5319H115.988ZM117.16 30.7485H118.265C118.636 30.7485 118.917 30.6837 119.107 30.5539C119.297 30.4225 119.411 30.2541 119.448 30.0485C119.475 29.8952 119.459 29.7571 119.398 29.6341C119.337 29.5094 119.236 29.4117 119.096 29.341C118.956 29.2685 118.78 29.2323 118.57 29.2323H117.434L117.16 30.7485ZM117.562 28.5576H118.578C118.755 28.5576 118.92 28.5281 119.071 28.4691C119.224 28.4085 119.352 28.3234 119.453 28.2139C119.557 28.1027 119.62 27.9713 119.644 27.8197C119.683 27.6192 119.637 27.4541 119.506 27.3244C119.375 27.1947 119.159 27.1298 118.858 27.1298H117.816L117.562 28.5576Z" fill="white" fill-opacity="0.37"/>
<path d="M122.943 31.6077C122.516 31.6077 122.163 31.5269 121.885 31.3651C121.606 31.2017 121.41 30.9709 121.297 30.6727C121.187 30.3728 121.168 30.0199 121.242 29.6139C121.314 29.2146 121.461 28.8642 121.682 28.5626C121.904 28.2594 122.181 28.0235 122.513 27.8551C122.848 27.6849 123.217 27.5998 123.621 27.5998C123.883 27.5998 124.124 27.6386 124.344 27.7161C124.564 27.7919 124.749 27.9098 124.901 28.0699C125.052 28.2299 125.157 28.4337 125.214 28.6814C125.271 28.9274 125.268 29.2205 125.206 29.5608L125.158 29.8413H121.669L121.777 29.2247H124.303C124.336 29.0495 124.325 28.8937 124.269 28.7572C124.214 28.6191 124.122 28.5104 123.992 28.4312C123.863 28.352 123.702 28.3124 123.508 28.3124C123.31 28.3124 123.125 28.3588 122.954 28.4514C122.784 28.5424 122.641 28.6603 122.524 28.8052C122.408 28.9501 122.334 29.1026 122.303 29.2626L122.189 29.8539C122.149 30.0965 122.158 30.2945 122.217 30.4478C122.276 30.6011 122.379 30.714 122.527 30.7864C122.675 30.8589 122.861 30.8951 123.087 30.8951C123.234 30.8951 123.371 30.8766 123.497 30.8395C123.622 30.8024 123.734 30.7468 123.832 30.6727C123.931 30.5969 124.015 30.5042 124.081 30.3947L124.998 30.4908C124.896 30.7165 124.748 30.9136 124.552 31.0821C124.356 31.2489 124.122 31.3786 123.848 31.4713C123.577 31.5622 123.275 31.6077 122.943 31.6077Z" fill="white" fill-opacity="0.37"/>
<path d="M128.514 31.5319L128.021 27.6504H129.043L129.292 30.3796H129.331L130.594 27.6504H131.605L131.871 30.3644H131.913L133.148 27.6504H134.173L132.259 31.5319H131.215L130.893 28.9088H130.835L129.561 31.5319H128.514Z" fill="white" fill-opacity="0.37"/>
<path d="M135.582 29.2576L135.172 31.5319H134.167L135.108 26.3565H136.092L135.737 28.3099H135.79C135.925 28.0892 136.108 27.9157 136.341 27.7893C136.575 27.663 136.857 27.5998 137.186 27.5998C137.478 27.5998 137.723 27.6563 137.923 27.7691C138.122 27.882 138.262 28.0471 138.344 28.2644C138.427 28.4818 138.44 28.7471 138.385 29.0605L137.931 31.5319H136.925L137.352 29.202C137.398 28.9408 137.36 28.7378 137.238 28.593C137.118 28.4464 136.928 28.3731 136.668 28.3731C136.489 28.3731 136.323 28.4085 136.172 28.4792C136.021 28.5483 135.893 28.6485 135.79 28.78C135.688 28.9114 135.619 29.0706 135.582 29.2576Z" fill="white" fill-opacity="0.37"/>
<path d="M140.82 31.6077C140.393 31.6077 140.041 31.5269 139.762 31.3651C139.483 31.2017 139.287 30.9709 139.175 30.6727C139.064 30.3728 139.045 30.0199 139.119 29.6139C139.191 29.2146 139.338 28.8642 139.56 28.5626C139.781 28.2594 140.058 28.0235 140.39 27.8551C140.725 27.6849 141.094 27.5998 141.498 27.5998C141.761 27.5998 142.002 27.6386 142.221 27.7161C142.441 27.7919 142.627 27.9098 142.778 28.0699C142.929 28.2299 143.034 28.4337 143.091 28.6814C143.148 28.9274 143.146 29.2205 143.083 29.5608L143.036 29.8413H139.546L139.654 29.2247H142.18C142.213 29.0495 142.202 28.8937 142.147 28.7572C142.091 28.6191 141.999 28.5104 141.87 28.4312C141.74 28.352 141.579 28.3124 141.385 28.3124C141.187 28.3124 141.003 28.3588 140.831 28.4514C140.661 28.5424 140.518 28.6603 140.402 28.8052C140.285 28.9501 140.211 29.1026 140.18 29.2626L140.066 29.8539C140.026 30.0965 140.035 30.2945 140.094 30.4478C140.153 30.6011 140.257 30.714 140.404 30.7864C140.552 30.8589 140.739 30.8951 140.964 30.8951C141.112 30.8951 141.248 30.8766 141.374 30.8395C141.499 30.8024 141.611 30.7468 141.709 30.6727C141.809 30.5969 141.892 30.5042 141.958 30.3947L142.875 30.4908C142.773 30.7165 142.625 30.9136 142.429 31.0821C142.233 31.2489 141.999 31.3786 141.726 31.4713C141.454 31.5622 141.152 31.6077 140.82 31.6077Z" fill="white" fill-opacity="0.37"/>
<path d="M143.579 31.5319L144.288 27.6504H145.26L145.141 28.2973H145.185C145.301 28.0732 145.466 27.9005 145.678 27.7792C145.892 27.6563 146.121 27.5948 146.365 27.5948C146.422 27.5948 146.484 27.5973 146.551 27.6023C146.617 27.6057 146.674 27.6116 146.722 27.62L146.567 28.4615C146.525 28.4481 146.458 28.4363 146.368 28.4262C146.279 28.4144 146.191 28.4085 146.105 28.4085C145.922 28.4085 145.752 28.4447 145.595 28.5171C145.44 28.5879 145.309 28.6865 145.202 28.8128C145.095 28.9392 145.025 29.0849 144.994 29.25L144.581 31.5319H143.579Z" fill="white" fill-opacity="0.37"/>
<path d="M148.376 31.6077C147.949 31.6077 147.597 31.5269 147.318 31.3651C147.039 31.2017 146.843 30.9709 146.731 30.6727C146.62 30.3728 146.601 30.0199 146.675 29.6139C146.747 29.2146 146.894 28.8642 147.116 28.5626C147.337 28.2594 147.614 28.0235 147.947 27.8551C148.281 27.6849 148.65 27.5998 149.054 27.5998C149.317 27.5998 149.558 27.6386 149.777 27.7161C149.997 27.7919 150.183 27.9098 150.334 28.0699C150.486 28.2299 150.59 28.4337 150.647 28.6814C150.704 28.9274 150.702 29.2205 150.639 29.5608L150.592 29.8413H147.102L147.21 29.2247H149.736C149.769 29.0495 149.758 28.8937 149.703 28.7572C149.647 28.6191 149.555 28.5104 149.426 28.4312C149.296 28.352 149.135 28.3124 148.941 28.3124C148.743 28.3124 148.559 28.3588 148.387 28.4514C148.217 28.5424 148.074 28.6603 147.958 28.8052C147.841 28.9501 147.767 29.1026 147.736 29.2626L147.622 29.8539C147.582 30.0965 147.591 30.2945 147.65 30.4478C147.709 30.6011 147.813 30.714 147.96 30.7864C148.108 30.8589 148.295 30.8951 148.52 30.8951C148.668 30.8951 148.804 30.8766 148.93 30.8395C149.055 30.8024 149.167 30.7468 149.265 30.6727C149.365 30.5969 149.448 30.5042 149.514 30.3947L150.431 30.4908C150.33 30.7165 150.181 30.9136 149.985 31.0821C149.789 31.2489 149.555 31.3786 149.282 31.4713C149.01 31.5622 148.708 31.6077 148.376 31.6077Z" fill="white" fill-opacity="0.37"/>
<path d="M155.903 27.6504L155.773 28.3579H153.33L153.457 27.6504H155.903ZM154.227 26.7204H155.23L154.565 30.3644C154.545 30.4874 154.548 30.5817 154.576 30.6474C154.606 30.7115 154.653 30.7553 154.717 30.7788C154.784 30.8024 154.859 30.8142 154.942 30.8142C155.003 30.8142 155.06 30.81 155.113 30.8016C155.167 30.7915 155.209 30.7839 155.241 30.7788L155.285 31.494C155.224 31.5108 155.142 31.5294 155.039 31.5496C154.937 31.5698 154.815 31.5816 154.673 31.585C154.418 31.59 154.197 31.5547 154.008 31.4788C153.822 31.4013 153.685 31.2826 153.598 31.1225C153.513 30.9608 153.494 30.7586 153.54 30.516L154.227 26.7204Z" fill="white" fill-opacity="0.37"/>
<path d="M157.542 29.2576L157.132 31.5319H156.127L157.068 26.3565H158.052L157.697 28.3099H157.75C157.884 28.0892 158.068 27.9157 158.301 27.7893C158.535 27.663 158.817 27.5998 159.146 27.5998C159.437 27.5998 159.683 27.6563 159.882 27.7691C160.082 27.882 160.222 28.0471 160.303 28.2644C160.387 28.4818 160.4 28.7471 160.345 29.0605L159.891 31.5319H158.885L159.312 29.202C159.358 28.9408 159.32 28.7378 159.198 28.593C159.078 28.4464 158.888 28.3731 158.628 28.3731C158.449 28.3731 158.283 28.4085 158.132 28.4792C157.98 28.5483 157.853 28.6485 157.75 28.78C157.648 28.9114 157.579 29.0706 157.542 29.2576Z" fill="white" fill-opacity="0.37"/>
<path d="M162.78 31.6077C162.353 31.6077 162 31.5269 161.722 31.3651C161.443 31.2017 161.247 30.9709 161.134 30.6727C161.024 30.3728 161.005 30.0199 161.079 29.6139C161.151 29.2146 161.298 28.8642 161.519 28.5626C161.741 28.2594 162.018 28.0235 162.35 27.8551C162.685 27.6849 163.054 27.5998 163.458 27.5998C163.72 27.5998 163.961 27.6386 164.181 27.7161C164.401 27.7919 164.587 27.9098 164.738 28.0699C164.889 28.2299 164.994 28.4337 165.051 28.6814C165.108 28.9274 165.105 29.2205 165.043 29.5608L164.996 29.8413H161.506L161.614 29.2247H164.14C164.173 29.0495 164.162 28.8937 164.106 28.7572C164.051 28.6191 163.959 28.5104 163.829 28.4312C163.7 28.352 163.539 28.3124 163.345 28.3124C163.147 28.3124 162.962 28.3588 162.791 28.4514C162.621 28.5424 162.478 28.6603 162.361 28.8052C162.245 28.9501 162.171 29.1026 162.14 29.2626L162.026 29.8539C161.986 30.0965 161.995 30.2945 162.054 30.4478C162.113 30.6011 162.216 30.714 162.364 30.7864C162.512 30.8589 162.698 30.8951 162.924 30.8951C163.071 30.8951 163.208 30.8766 163.334 30.8395C163.459 30.8024 163.571 30.7468 163.669 30.6727C163.768 30.5969 163.852 30.5042 163.918 30.3947L164.835 30.4908C164.733 30.7165 164.585 30.9136 164.389 31.0821C164.193 31.2489 163.959 31.3786 163.685 31.4713C163.414 31.5622 163.112 31.6077 162.78 31.6077Z" fill="white" fill-opacity="0.37"/>
<path d="M167.517 31.5319L168.459 26.3565H169.462L169.113 28.2922H169.157C169.224 28.1979 169.313 28.0976 169.426 27.9915C169.54 27.8837 169.685 27.7919 169.861 27.7161C170.036 27.6386 170.249 27.5998 170.498 27.5998C170.826 27.5998 171.109 27.6765 171.345 27.8298C171.582 27.9814 171.751 28.2063 171.852 28.5045C171.954 28.801 171.966 29.1649 171.888 29.5962C171.811 30.0224 171.668 30.3846 171.462 30.6828C171.255 30.981 171.005 31.2084 170.711 31.3651C170.417 31.5218 170.104 31.6001 169.769 31.6001C169.526 31.6001 169.33 31.5631 169.182 31.4889C169.036 31.4148 168.925 31.3255 168.847 31.2211C168.769 31.1149 168.713 31.0147 168.678 30.9204H168.614L168.504 31.5319H167.517ZM168.855 29.5911C168.811 29.8422 168.81 30.062 168.853 30.2507C168.897 30.4394 168.984 30.5868 169.113 30.6929C169.244 30.7974 169.417 30.8496 169.631 30.8496C169.851 30.8496 170.044 30.7957 170.212 30.6879C170.382 30.5784 170.523 30.4293 170.634 30.2406C170.744 30.0502 170.822 29.8337 170.866 29.5911C170.909 29.3502 170.909 29.1363 170.866 28.9493C170.826 28.7623 170.74 28.6157 170.609 28.5096C170.479 28.4034 170.304 28.3504 170.082 28.3504C169.866 28.3504 169.674 28.4017 169.506 28.5045C169.338 28.6073 169.199 28.7513 169.088 28.9366C168.977 29.1219 168.9 29.3401 168.855 29.5911Z" fill="white" fill-opacity="0.37"/>
<path d="M175.394 29.8994L175.807 27.6504H176.81L176.1 31.5319H175.128L175.256 30.842H175.211C175.078 31.0593 174.888 31.2371 174.641 31.3752C174.395 31.5134 174.113 31.5824 173.793 31.5824C173.514 31.5824 173.279 31.526 173.087 31.4131C172.895 31.2986 172.758 31.1326 172.677 30.9153C172.598 30.6963 172.586 30.4318 172.641 30.1218L173.095 27.6504H174.098L173.671 29.9803C173.629 30.2263 173.668 30.4217 173.788 30.5666C173.91 30.7115 174.09 30.7839 174.331 30.7839C174.478 30.7839 174.627 30.751 174.776 30.6853C174.928 30.6196 175.06 30.5219 175.173 30.3922C175.285 30.2608 175.359 30.0965 175.394 29.8994Z" fill="white" fill-opacity="0.37"/>
<path d="M177.079 31.5319L177.187 30.9507L179.832 28.4413L179.843 28.4085H177.721L177.863 27.6504H181.209L181.098 28.2745L178.564 30.7409L178.552 30.7738H180.713L180.577 31.5319H177.079Z" fill="white" fill-opacity="0.37"/>
<path d="M181.466 31.5319L181.574 30.9507L184.22 28.4413L184.231 28.4085H182.109L182.25 27.6504H185.596L185.485 28.2745L182.951 30.7409L182.94 30.7738H185.1L184.965 31.5319H181.466Z" fill="white" fill-opacity="0.37"/>
<path d="M187.841 31.5319L188.55 27.6504H189.553L188.844 31.5319H187.841ZM189.198 27.0944C189.038 27.0944 188.905 27.0456 188.799 26.9478C188.694 26.8501 188.648 26.733 188.661 26.5966C188.674 26.4601 188.741 26.343 188.863 26.2453C188.987 26.1476 189.128 26.0988 189.287 26.0988C189.448 26.0988 189.58 26.1476 189.683 26.2453C189.788 26.343 189.834 26.4601 189.821 26.5966C189.81 26.733 189.743 26.8501 189.619 26.9478C189.497 27.0456 189.357 27.0944 189.198 27.0944Z" fill="white" fill-opacity="0.37"/>
<path d="M193.755 28.6763L192.833 28.7673C192.824 28.6814 192.795 28.6014 192.747 28.5272C192.699 28.4531 192.627 28.3942 192.531 28.3504C192.437 28.3049 192.315 28.2821 192.165 28.2821C191.948 28.2821 191.756 28.3268 191.592 28.4161C191.428 28.5053 191.334 28.6199 191.312 28.7597C191.292 28.8642 191.32 28.9493 191.395 29.015C191.471 29.0807 191.611 29.1363 191.816 29.1818L192.52 29.3233C192.908 29.4024 193.187 29.5305 193.356 29.7074C193.528 29.8843 193.588 30.1159 193.537 30.4023C193.492 30.6415 193.378 30.8521 193.193 31.0341C193.008 31.2143 192.772 31.355 192.484 31.4561C192.198 31.5572 191.88 31.6077 191.531 31.6077C191.001 31.6077 190.593 31.5075 190.307 31.307C190.023 31.1048 189.881 30.8269 189.883 30.4731L190.869 30.3872C190.88 30.5624 190.948 30.6946 191.071 30.7839C191.195 30.8715 191.367 30.9161 191.587 30.9178C191.834 30.9195 192.043 30.8723 192.213 30.7763C192.384 30.6786 192.481 30.5598 192.503 30.42C192.522 30.3156 192.493 30.2305 192.418 30.1648C192.344 30.0991 192.212 30.0468 192.021 30.0081L191.323 29.8691C190.928 29.7899 190.647 29.656 190.479 29.4673C190.312 29.2769 190.256 29.0369 190.31 28.7471C190.354 28.5112 190.462 28.3082 190.634 28.1381C190.807 27.9662 191.03 27.834 191.301 27.7413C191.573 27.647 191.876 27.5998 192.213 27.5998C192.718 27.5998 193.1 27.6967 193.356 27.8904C193.613 28.0842 193.746 28.3461 193.755 28.6763Z" fill="white" fill-opacity="0.37"/>
<path d="M194.831 31.5875C194.662 31.5875 194.521 31.5336 194.41 31.4258C194.3 31.3179 194.248 31.1865 194.255 31.0316C194.263 30.8799 194.33 30.751 194.457 30.6449C194.585 30.5388 194.732 30.4857 194.898 30.4857C195.062 30.4857 195.202 30.5396 195.316 30.6474C195.432 30.7553 195.485 30.8833 195.474 31.0316C195.467 31.136 195.432 31.2303 195.369 31.3146C195.308 31.3988 195.23 31.4654 195.136 31.5142C195.042 31.5631 194.94 31.5875 194.831 31.5875Z" fill="white" fill-opacity="0.37"/>
<path d="M197.094 31.5875C196.924 31.5875 196.783 31.5336 196.673 31.4258C196.562 31.3179 196.51 31.1865 196.518 31.0316C196.525 30.8799 196.592 30.751 196.72 30.6449C196.847 30.5388 196.994 30.4857 197.16 30.4857C197.324 30.4857 197.464 30.5396 197.578 30.6474C197.695 30.7553 197.747 30.8833 197.736 31.0316C197.729 31.136 197.694 31.2303 197.631 31.3146C197.57 31.3988 197.493 31.4654 197.398 31.5142C197.304 31.5631 197.203 31.5875 197.094 31.5875Z" fill="white" fill-opacity="0.37"/>
<path d="M199.356 31.5875C199.186 31.5875 199.046 31.5336 198.935 31.4258C198.824 31.3179 198.772 31.1865 198.78 31.0316C198.787 30.8799 198.855 30.751 198.982 30.6449C199.109 30.5388 199.256 30.4857 199.422 30.4857C199.587 30.4857 199.726 30.5396 199.841 30.6474C199.957 30.7553 200.01 30.8833 199.999 31.0316C199.991 31.136 199.956 31.2303 199.893 31.3146C199.832 31.3988 199.755 31.4654 199.661 31.5142C199.566 31.5631 199.465 31.5875 199.356 31.5875Z" fill="white" fill-opacity="0.37"/>
</svg>
