<svg width="198" height="35" viewBox="0 0 198 35" fill="none" xmlns="http://www.w3.org/2000/svg">
<path d="M33.395 2.28195H28.412C27.0194 2.28195 26.1614 3.41056 26.4914 4.80315L28.7222 14.2015C29.0522 15.5941 28.1942 16.7227 26.8016 16.7227H23.759C22.3664 16.7227 21.5084 17.8513 21.8384 19.2439L24.782 31.6519C25.112 33.0445 26.5112 34.1731 27.9038 34.1731H32.8868C34.2794 34.1731 35.1374 33.0445 34.8074 31.6519L32.5766 22.2535C32.2466 20.8609 33.1046 19.7323 34.4972 19.7323H37.5398C38.9324 19.7323 39.7904 18.6037 39.4604 17.2111L36.5168 4.80315C36.1868 3.41056 34.7876 2.28195 33.395 2.28195Z" fill="white"/>
<path d="M19.2381 2.28195H14.255C12.8626 2.28195 11.7339 3.41074 11.7339 4.80315V31.6519C11.7339 33.0444 12.8626 34.1731 14.255 34.1731H19.2381C20.6305 34.1731 21.7593 33.0444 21.7593 31.6519V4.80315C21.7593 3.41074 20.6305 2.28195 19.2381 2.28195Z" fill="white"/>
<path d="M47.3277 32.4575L46.3509 28.6031C46.2123 28.0553 45.8097 27.6857 45.3477 27.6857H38.8533C38.3847 27.6857 37.9755 28.0685 37.8435 28.6295L36.9261 32.4839C36.7281 33.3287 37.2297 34.1801 37.9359 34.1801H46.3179C47.0307 34.1801 47.5389 33.3155 47.3211 32.4641L47.3277 32.4575ZM39.8763 30.1343C39.4935 30.1343 39.1899 29.8241 39.1899 29.4479C39.1899 29.0717 39.4935 28.7615 39.8763 28.7615C40.2591 28.7615 40.5627 29.0651 40.5627 29.4479C40.5627 29.8307 40.2525 30.1343 39.8763 30.1343ZM44.3973 30.1343C44.0145 30.1343 43.7109 29.8241 43.7109 29.4479C43.7109 29.0717 44.0145 28.7615 44.3973 28.7615C44.7801 28.7615 45.0837 29.0651 45.0837 29.4479C45.0837 29.8307 44.7735 30.1343 44.3973 30.1343Z" fill="#7C2F2F"/>
<path d="M44.3187 27.2431H43.5399V25.2631C43.5399 24.4843 42.9063 23.8573 42.1341 23.8573C41.3619 23.8573 40.7283 24.4909 40.7283 25.2631V27.2431H39.9495V25.2631C39.9495 24.0619 40.9263 23.0785 42.1341 23.0785C43.3419 23.0785 44.3187 24.0553 44.3187 25.2631V27.2431Z" fill="#7C2F2F"/>
<mask id="mask0_2_1739" style="mask-type:luminance" maskUnits="userSpaceOnUse" x="0" y="0" width="11" height="11">
<path d="M7.28674 0.483307L0 3.61996L3.13667 10.9067L10.4234 7.77006L7.28674 0.483307Z" fill="white"/>
</mask>
<g mask="url(#mask0_2_1739)">
<path d="M3.30532 5.67462C3.52312 5.58222 3.74091 5.45682 3.95211 5.31822C4.05771 5.24562 4.2689 5.08062 4.4801 4.90242C4.8827 4.55922 4.92231 4.45363 4.94211 4.40083C4.98171 4.30843 4.94872 4.19621 4.86952 4.13681C4.81672 4.09721 4.77711 4.05762 4.73091 4.02462C4.63851 3.94542 4.54613 3.87281 4.42733 3.78701C4.20953 3.63521 4.01813 3.53622 3.76733 3.43722C3.46373 3.31842 3.17333 3.21941 2.75093 3.20621C2.34833 3.18641 1.90613 3.27223 1.53653 3.43063C0.95573 3.68143 0.592724 4.09722 0.539924 4.57242C0.487124 5.02782 0.757711 5.41722 1.33191 5.73402C1.68171 5.92542 2.23612 5.95182 2.59912 5.89902C2.83012 5.86602 3.06773 5.79342 3.31193 5.68782L3.30532 5.67462Z" fill="#FFA804"/>
<path d="M5.66207 3.8531C5.66207 3.8531 5.68186 3.8399 5.69506 3.8333C5.86006 3.7277 6.11087 3.31851 6.11087 3.31851C6.21647 3.13371 6.28904 2.95551 6.33524 2.74431C6.43424 2.30871 6.29564 1.84012 6.00524 1.59592C5.81384 1.43752 5.57626 1.39791 5.35846 1.49031C5.21326 1.55631 5.08127 1.6751 4.96247 1.8467C4.75787 2.1503 4.72485 2.5595 4.85685 2.9819C4.96905 3.3383 5.19345 3.6617 5.43765 3.8267C5.50365 3.8729 5.58946 3.8795 5.65546 3.8465L5.66207 3.8531Z" fill="#FFA804"/>
<path d="M8.89593 4.67817C8.22273 4.02477 7.23936 3.82678 6.36816 4.16998C6.38796 4.81678 6.75094 5.56918 7.33834 6.16978C7.97854 6.82978 8.81014 7.21257 9.48334 7.19277C9.78694 6.34137 9.58894 5.35137 8.90254 4.67817H8.89593Z" fill="#FFA804"/>
<path d="M7.00152 6.49965C6.38772 5.87265 5.99836 5.11364 5.91916 4.40744C5.78056 4.49984 5.64854 4.61205 5.52974 4.73085C5.24594 5.02125 4.98854 5.48985 4.78394 6.06405C5.00834 6.61185 5.36475 7.14644 5.82675 7.62163C6.36795 8.17603 7.00154 8.58525 7.63514 8.80965C7.73414 8.77005 7.82653 8.73704 7.91233 8.69744C8.38753 8.49284 8.73073 8.28164 8.94853 8.05724C9.06733 7.93184 9.17295 7.79983 9.25875 7.66123C8.50635 7.60843 7.67473 7.19263 7.00813 6.50623L7.00152 6.49965Z" fill="#FFA804"/>
<path d="M4.57954 6.72404C4.56634 6.78344 4.55313 6.84944 4.53333 6.90884C4.32873 7.84604 4.32873 8.67763 4.53333 9.14623C4.61913 9.35083 4.88312 9.37725 5.10092 9.37065C5.31212 9.37065 5.58934 9.33764 5.90614 9.27824C6.24934 9.21224 6.61893 9.12645 6.96873 9.02085C6.44073 8.76345 5.93914 8.39383 5.49034 7.93183C5.12734 7.55563 4.81714 7.14644 4.58614 6.71744L4.57954 6.72404Z" fill="#FFA804"/>
</g>
<path d="M189.622 17.7813V15.0489L195.205 10.1781V9.88106H189.82V8.00006H197.66V10.7325L192.077 15.6033V15.9003H197.819V17.7813H189.622Z" fill="white"/>
<path d="M179.354 17.7813V15.0489L184.938 10.1781V9.88106H179.552V8.00006H187.393V10.7325L181.809 15.6033V15.9003H187.551V17.7813H179.354Z" fill="white"/>
<path d="M171.291 17.9397C170.539 17.9397 169.872 17.7747 169.292 17.4447C168.711 17.1015 168.262 16.6263 167.945 16.0191C167.628 15.3987 167.47 14.6793 167.47 13.8609V8.00006H169.727V13.6827C169.727 14.4747 169.919 15.0621 170.301 15.4449C170.697 15.8277 171.252 16.0191 171.965 16.0191C172.77 16.0191 173.403 15.7551 173.865 15.2271C174.341 14.6991 174.578 13.9401 174.578 12.9501V8.00006H176.835V17.7813H174.618V16.4151H174.281C174.11 16.7715 173.793 17.1147 173.331 17.4447C172.882 17.7747 172.202 17.9397 171.291 17.9397Z" fill="white"/>
<path d="M153.886 17.7816V15.6828H155.747V6.0204H153.886V3.9216H160.974C161.806 3.9216 162.532 4.0668 163.152 4.3572C163.786 4.6344 164.274 5.037 164.617 5.565C164.974 6.0798 165.152 6.7002 165.152 7.4262V7.6044C165.152 8.238 165.033 8.7594 164.796 9.1686C164.558 9.5778 164.274 9.8946 163.944 10.119C163.614 10.3434 163.297 10.5018 162.994 10.5942V10.9308C163.297 11.01 163.621 11.1618 163.964 11.3862C164.32 11.5974 164.617 11.9142 164.855 12.3366C165.106 12.7458 165.231 13.2804 165.231 13.9404V14.1384C165.231 14.8908 165.046 15.5442 164.677 16.0986C164.32 16.6398 163.825 17.0556 163.192 17.346C162.571 17.6364 161.852 17.7816 161.034 17.7816H153.886ZM158.123 15.6234H160.756C161.39 15.6234 161.892 15.4716 162.261 15.168C162.644 14.8512 162.835 14.409 162.835 13.8414V13.6632C162.835 13.0956 162.651 12.66 162.281 12.3564C161.911 12.0396 161.403 11.8812 160.756 11.8812H158.123V15.6234ZM158.123 9.723H160.737C161.344 9.723 161.832 9.5712 162.202 9.2676C162.585 8.964 162.776 8.5416 162.776 8.0004V7.8024C162.776 7.2612 162.585 6.8388 162.202 6.5352C161.832 6.2316 161.344 6.0798 160.737 6.0798H158.123V9.723Z" fill="white"/>
<path d="M142.239 17.7816V3.9216H144.516V9.2874H144.852C144.958 9.063 145.129 8.8386 145.367 8.6142C145.605 8.3898 145.915 8.205 146.298 8.0598C146.694 7.9146 147.189 7.842 147.783 7.842C148.535 7.842 149.202 8.0136 149.782 8.3568C150.363 8.6868 150.812 9.1554 151.129 9.7626C151.459 10.3698 151.624 11.0892 151.624 11.9208V17.7816H149.347V12.099C149.347 11.307 149.149 10.7196 148.753 10.3368C148.37 9.9408 147.822 9.7428 147.109 9.7428C146.304 9.7428 145.671 10.0134 145.209 10.5546C144.747 11.0826 144.516 11.8416 144.516 12.8316V17.7816H142.239Z" fill="white"/>
<path d="M135.153 18.0586C134.202 18.0586 133.344 17.8606 132.579 17.4646C131.813 17.0686 131.206 16.4944 130.757 15.742C130.322 14.9896 130.104 14.0854 130.104 13.0294V12.7522C130.104 11.6963 130.322 10.7921 130.757 10.0397C131.206 9.28725 131.813 8.71305 132.579 8.31705C133.344 7.92105 134.202 7.72305 135.153 7.72305C136.09 7.72305 136.889 7.88805 137.549 8.21805C138.222 8.54805 138.763 9.00345 139.172 9.58425C139.581 10.1519 139.845 10.7921 139.964 11.5049L137.766 11.9603C137.714 11.5511 137.588 11.1815 137.39 10.8515C137.192 10.5083 136.908 10.2377 136.539 10.0397C136.182 9.84165 135.74 9.74265 135.212 9.74265C134.671 9.74265 134.183 9.86145 133.747 10.0991C133.325 10.3235 132.988 10.6667 132.737 11.1287C132.5 11.5907 132.381 12.1451 132.381 12.7919V12.9899C132.381 13.6367 132.5 14.1911 132.737 14.653C132.988 15.1018 133.325 15.445 133.747 15.6826C134.183 15.9202 134.671 16.039 135.212 16.039C136.017 16.039 136.625 15.8344 137.034 15.4252C137.456 15.0028 137.72 14.4616 137.826 13.8016L140.024 14.3164C139.865 15.0028 139.581 15.6298 139.172 16.1974C138.763 16.765 138.222 17.2204 137.549 17.5636C136.889 17.8936 136.09 18.0586 135.153 18.0586Z" fill="white"/>
<path d="M123.549 18.0586C122.572 18.0586 121.707 17.854 120.955 17.4448C120.216 17.0224 119.635 16.435 119.213 15.6826C118.803 14.917 118.599 14.0261 118.599 13.0097V12.7721C118.599 11.7425 118.803 10.8515 119.213 10.0991C119.622 9.34665 120.196 8.76585 120.935 8.35665C121.674 7.93425 122.526 7.72305 123.489 7.72305C124.44 7.72305 125.271 7.93425 125.984 8.35665C126.697 8.76585 127.251 9.34665 127.647 10.0991C128.043 10.8515 128.241 11.7292 128.241 12.7324V13.5443H120.896C120.922 14.3098 121.193 14.9236 121.707 15.3856C122.222 15.8476 122.856 16.0786 123.608 16.0786C124.347 16.0786 124.895 15.9202 125.252 15.6034C125.608 15.2734 125.879 14.9038 126.063 14.4946L127.944 15.4648C127.76 15.8212 127.489 16.204 127.133 16.6132C126.789 17.0092 126.327 17.3524 125.747 17.6428C125.166 17.92 124.433 18.0586 123.549 18.0586ZM120.915 11.8217H125.925C125.872 11.1749 125.621 10.6601 125.172 10.2773C124.737 9.89445 124.169 9.70305 123.47 9.70305C122.744 9.70305 122.163 9.89445 121.727 10.2773C121.292 10.6601 121.021 11.1749 120.915 11.8217Z" fill="white"/>
<path d="M112.516 17.7816V6.0798H108.378V3.9216H119.03V6.0798H114.892V17.7816H112.516Z" fill="white"/>
<path d="M104.166 17.7816V3.9216H106.443V17.7816H104.166Z" fill="white"/>
<path d="M99.0029 17.7816V8.00036H101.28V17.7816H99.0029ZM100.132 6.75296C99.7223 6.75296 99.3659 6.62096 99.0623 6.35696C98.7719 6.07976 98.6267 5.71676 98.6267 5.26796C98.6267 4.81916 98.7719 4.46276 99.0623 4.19876C99.3659 3.92156 99.7223 3.78296 100.132 3.78296C100.567 3.78296 100.924 3.92156 101.201 4.19876C101.491 4.46276 101.636 4.81916 101.636 5.26796C101.636 5.71676 101.491 6.07976 101.201 6.35696C100.924 6.62096 100.567 6.75296 100.132 6.75296Z" fill="white"/>
<path d="M90.6051 18.0586C89.9187 18.0586 89.2983 17.9398 88.7439 17.7022C88.1895 17.4514 87.7473 17.095 87.4173 16.633C87.1005 16.171 86.9421 15.6034 86.9421 14.9302C86.9421 14.2702 87.1005 13.7158 87.4173 13.2671C87.7473 12.8183 88.1961 12.4816 88.7637 12.2573C89.3313 12.0197 89.9781 11.9009 90.7041 11.9009H93.5355V11.3069C93.5355 10.7921 93.3771 10.3763 93.0603 10.0595C92.7435 9.72945 92.2485 9.56445 91.5753 9.56445C90.9153 9.56445 90.4137 9.72285 90.0705 10.0397C89.7405 10.3433 89.5227 10.7393 89.4171 11.2277L87.3183 10.5347C87.4767 10.0199 87.7275 9.55125 88.0707 9.12885C88.4271 8.70645 88.8957 8.36985 89.4765 8.11905C90.0573 7.85505 90.7701 7.72305 91.6149 7.72305C92.8953 7.72305 93.8985 8.04645 94.6245 8.69325C95.3637 9.32685 95.7333 10.2509 95.7333 11.4653V15.3064C95.7333 15.7024 95.9181 15.9004 96.2877 15.9004H97.1193V17.7814H95.5155C95.0403 17.7814 94.6509 17.6626 94.3473 17.425C94.0437 17.1874 93.8919 16.864 93.8919 16.4548V16.4152H93.5553C93.4761 16.6 93.3375 16.8244 93.1395 17.0884C92.9415 17.3524 92.6379 17.5834 92.2287 17.7814C91.8327 17.9662 91.2915 18.0586 90.6051 18.0586ZM90.9813 16.1974C91.7337 16.1974 92.3475 15.9862 92.8227 15.5638C93.2979 15.1282 93.5355 14.5474 93.5355 13.8214V13.6234H90.8427C90.3543 13.6234 89.9583 13.7291 89.6547 13.9402C89.3511 14.1514 89.1993 14.4616 89.1993 14.8708C89.1993 15.2668 89.3577 15.5902 89.6745 15.841C89.9913 16.0786 90.4269 16.1974 90.9813 16.1974Z" fill="white"/>
<path d="M82.2685 17.7817C81.6349 17.7817 81.1267 17.5969 80.7439 17.2273C80.3743 16.8445 80.1895 16.3297 80.1895 15.6829V9.88152H77.6353V8.00052H80.1895V4.85233H82.4665V8.00052H85.278V9.88152H82.4665V15.3067C82.4665 15.7027 82.6513 15.9007 83.0209 15.9007H84.9811V17.7817H82.2685Z" fill="white"/>
<path d="M71.8448 18.0585C70.868 18.0585 70.0034 17.8539 69.251 17.4447C68.5118 17.0223 67.931 16.4349 67.5086 15.6825C67.0994 14.9169 66.8948 14.0259 66.8948 13.0095V12.7719C66.8948 11.7423 67.0994 10.8513 67.5086 10.0989C67.9178 9.34647 68.492 8.76567 69.2312 8.35647C69.9704 7.93407 70.8218 7.72287 71.7854 7.72287C72.7358 7.72287 73.5674 7.93407 74.2802 8.35647C74.993 8.76567 75.5474 9.34647 75.9434 10.0989C76.3394 10.8513 76.5374 11.7291 76.5374 12.7323V13.5441H69.1916C69.218 14.3097 69.4886 14.9235 70.0034 15.3855C70.5182 15.8475 71.1518 16.0785 71.9042 16.0785C72.6434 16.0785 73.1912 15.9201 73.5476 15.6033C73.904 15.2733 74.1746 14.9037 74.3594 14.4945L76.2404 15.4647C76.0556 15.8211 75.785 16.2039 75.4286 16.6131C75.0854 17.0091 74.6234 17.3523 74.0426 17.6427C73.4618 17.9199 72.7292 18.0585 71.8448 18.0585ZM69.2114 11.8215H74.2208C74.168 11.1747 73.9172 10.6599 73.4684 10.2771C73.0328 9.89427 72.4652 9.70287 71.7656 9.70287C71.0396 9.70287 70.4588 9.89427 70.0232 10.2771C69.5876 10.6599 69.317 11.1747 69.2114 11.8215Z" fill="white"/>
<path d="M54.78 17.7816V3.9216H60.7002C61.5714 3.9216 62.3304 4.0734 62.9772 4.377C63.624 4.6806 64.1256 5.1096 64.482 5.664C64.8516 6.2052 65.0364 6.8586 65.0364 7.6242V7.842C65.0364 8.7 64.8318 9.3864 64.4226 9.9012C64.0134 10.416 63.5184 10.7922 62.9376 11.0298V11.3466C63.4524 11.373 63.855 11.5512 64.1454 11.8812C64.449 12.2112 64.6008 12.6534 64.6008 13.2078V17.7816H62.2248V13.5444C62.2248 13.2144 62.1324 12.9504 61.9476 12.7524C61.776 12.5412 61.4922 12.4356 61.0962 12.4356H57.1758V17.7816H54.78ZM57.1758 10.2774H60.4626C61.149 10.2774 61.6836 10.0992 62.0664 9.7428C62.4624 9.3732 62.6604 8.8848 62.6604 8.2776V8.0994C62.6604 7.479 62.469 6.9906 62.0862 6.6342C61.7034 6.2646 61.1622 6.0798 60.4626 6.0798H57.1758V10.2774Z" fill="white"/>
<path d="M117.48 29.8659L118.383 24.9056H120.464C120.857 24.9056 121.174 24.9622 121.414 25.0752C121.655 25.1866 121.822 25.3392 121.916 25.5329C122.012 25.7267 122.037 25.9463 121.991 26.1917C121.953 26.392 121.879 26.5639 121.768 26.7076C121.658 26.8497 121.523 26.966 121.364 27.0564C121.205 27.1452 121.034 27.209 120.852 27.2477L120.841 27.2962C121.032 27.3042 121.207 27.3575 121.367 27.456C121.526 27.5545 121.646 27.6934 121.728 27.8726C121.809 28.0502 121.828 28.2642 121.784 28.5145C121.736 28.7712 121.625 29.0021 121.452 29.2071C121.278 29.4106 121.043 29.5713 120.746 29.6891C120.45 29.807 120.095 29.8659 119.681 29.8659H117.48ZM118.603 29.1151H119.662C120.018 29.1151 120.287 29.0529 120.469 28.9286C120.652 28.8027 120.761 28.6412 120.796 28.4442C120.822 28.2973 120.807 28.1649 120.748 28.047C120.69 27.9275 120.593 27.8339 120.459 27.766C120.324 27.6966 120.156 27.6619 119.954 27.6619H118.866L118.603 29.1151ZM118.988 27.0152H119.962C120.132 27.0152 120.29 26.987 120.435 26.9305C120.582 26.8723 120.704 26.7908 120.801 26.6858C120.9 26.5793 120.961 26.4533 120.984 26.308C121.022 26.1158 120.977 25.9576 120.852 25.8333C120.726 25.7089 120.519 25.6468 120.231 25.6468H119.232L118.988 27.0152Z" fill="white" fill-opacity="0.37"/>
<path d="M124.146 29.9386C123.737 29.9386 123.399 29.8611 123.131 29.7061C122.864 29.5495 122.677 29.3282 122.569 29.0425C122.462 28.755 122.445 28.4168 122.516 28.0276C122.585 27.6449 122.725 27.3091 122.938 27.0201C123.15 26.7294 123.415 26.5034 123.734 26.3419C124.054 26.1788 124.408 26.0973 124.796 26.0973C125.047 26.0973 125.278 26.1344 125.489 26.2087C125.699 26.2814 125.877 26.3944 126.022 26.5478C126.168 26.7012 126.268 26.8965 126.322 27.1339C126.377 27.3696 126.375 27.6506 126.314 27.9768L126.269 28.2456H122.924L123.028 27.6546H125.449C125.481 27.4867 125.47 27.3374 125.417 27.2066C125.364 27.0742 125.276 26.97 125.152 26.8941C125.028 26.8182 124.873 26.7803 124.687 26.7803C124.498 26.7803 124.321 26.8247 124.156 26.9135C123.993 27.0007 123.856 27.1137 123.745 27.2526C123.633 27.3914 123.562 27.5376 123.532 27.691L123.423 28.2577C123.385 28.4902 123.393 28.68 123.45 28.8269C123.507 28.9738 123.606 29.082 123.747 29.1514C123.889 29.2209 124.068 29.2556 124.284 29.2556C124.425 29.2556 124.556 29.2378 124.676 29.2023C124.797 29.1668 124.904 29.1135 124.998 29.0425C125.093 28.9698 125.173 28.881 125.237 28.776L126.115 28.8681C126.018 29.0844 125.876 29.2733 125.688 29.4348C125.5 29.5947 125.276 29.719 125.014 29.8078C124.753 29.895 124.464 29.9386 124.146 29.9386Z" fill="white" fill-opacity="0.37"/>
<path d="M129.485 29.8659L129.013 26.1457H129.993L130.231 28.7615H130.269L131.479 26.1457H132.448L132.703 28.747H132.743L133.927 26.1457H134.909L133.075 29.8659H132.074L131.766 27.3519H131.71L130.489 29.8659H129.485Z" fill="white" fill-opacity="0.37"/>
<path d="M136.26 27.6861L135.867 29.8659H134.903L135.806 24.9056H136.748L136.408 26.7779H136.459C136.588 26.5663 136.764 26.4 136.987 26.2789C137.212 26.1578 137.482 26.0973 137.797 26.0973C138.076 26.0973 138.312 26.1514 138.503 26.2596C138.694 26.3677 138.828 26.526 138.906 26.7343C138.986 26.9426 138.999 27.1969 138.946 27.4972L138.511 29.8659H137.547L137.956 27.6328C138 27.3826 137.964 27.188 137.847 27.0491C137.732 26.9087 137.55 26.8384 137.3 26.8384C137.129 26.8384 136.97 26.8723 136.825 26.9401C136.68 27.0063 136.558 27.1024 136.459 27.2284C136.361 27.3543 136.295 27.5069 136.26 27.6861Z" fill="white" fill-opacity="0.37"/>
<path d="M141.28 29.9386C140.871 29.9386 140.533 29.8611 140.266 29.7061C139.998 29.5495 139.811 29.3282 139.703 29.0425C139.597 28.755 139.579 28.4168 139.65 28.0276C139.719 27.6449 139.859 27.3091 140.072 27.0201C140.284 26.7294 140.55 26.5034 140.868 26.3419C141.189 26.1788 141.542 26.0973 141.93 26.0973C142.181 26.0973 142.412 26.1344 142.623 26.2087C142.834 26.2814 143.011 26.3944 143.157 26.5478C143.302 26.7012 143.402 26.8965 143.457 27.1339C143.511 27.3696 143.509 27.6506 143.449 27.9768L143.403 28.2456H140.058L140.162 27.6546H142.583C142.615 27.4867 142.604 27.3374 142.551 27.2066C142.498 27.0742 142.41 26.97 142.286 26.8941C142.162 26.8182 142.007 26.7803 141.821 26.7803C141.632 26.7803 141.455 26.8247 141.29 26.9135C141.127 27.0007 140.99 27.1137 140.879 27.2526C140.767 27.3914 140.697 27.5376 140.666 27.691L140.558 28.2577C140.519 28.4902 140.527 28.68 140.584 28.8269C140.641 28.9738 140.74 29.082 140.881 29.1514C141.023 29.2209 141.202 29.2556 141.418 29.2556C141.559 29.2556 141.69 29.2378 141.811 29.2023C141.931 29.1668 142.038 29.1135 142.132 29.0425C142.227 28.9698 142.307 28.881 142.371 28.776L143.249 28.8681C143.152 29.0844 143.01 29.2733 142.822 29.4348C142.634 29.5947 142.41 29.719 142.148 29.8078C141.888 29.895 141.598 29.9386 141.28 29.9386Z" fill="white" fill-opacity="0.37"/>
<path d="M143.924 29.8659L144.603 26.1457H145.535L145.421 26.7658H145.463C145.575 26.551 145.732 26.3855 145.936 26.2692C146.141 26.1514 146.361 26.0924 146.594 26.0924C146.649 26.0924 146.709 26.0949 146.772 26.0997C146.836 26.1029 146.891 26.1086 146.937 26.1167L146.788 26.9232C146.747 26.9103 146.684 26.899 146.597 26.8893C146.512 26.878 146.428 26.8723 146.345 26.8723C146.17 26.8723 146.007 26.907 145.856 26.9765C145.708 27.0443 145.582 27.1387 145.479 27.2598C145.377 27.3809 145.31 27.5206 145.28 27.6789L144.885 29.8659H143.924Z" fill="white" fill-opacity="0.37"/>
<path d="M148.522 29.9386C148.113 29.9386 147.775 29.8611 147.508 29.7061C147.24 29.5495 147.053 29.3282 146.945 29.0425C146.839 28.755 146.821 28.4168 146.892 28.0276C146.961 27.6449 147.101 27.3091 147.314 27.0201C147.526 26.7294 147.792 26.5034 148.11 26.3419C148.431 26.1788 148.785 26.0973 149.172 26.0973C149.423 26.0973 149.654 26.1344 149.865 26.2087C150.076 26.2814 150.253 26.3944 150.399 26.5478C150.544 26.7012 150.644 26.8965 150.699 27.1339C150.753 27.3696 150.751 27.6506 150.691 27.9768L150.645 28.2456H147.301L147.404 27.6546H149.825C149.857 27.4867 149.846 27.3374 149.793 27.2066C149.74 27.0742 149.652 26.97 149.528 26.8941C149.404 26.8182 149.249 26.7803 149.063 26.7803C148.874 26.7803 148.697 26.8247 148.532 26.9135C148.369 27.0007 148.232 27.1137 148.121 27.2526C148.009 27.3914 147.939 27.5376 147.908 27.691L147.8 28.2577C147.761 28.4902 147.77 28.68 147.826 28.8269C147.883 28.9738 147.982 29.082 148.123 29.1514C148.265 29.2209 148.444 29.2556 148.66 29.2556C148.801 29.2556 148.932 29.2378 149.053 29.2023C149.173 29.1668 149.28 29.1135 149.374 29.0425C149.469 28.9698 149.549 28.881 149.613 28.776L150.491 28.8681C150.394 29.0844 150.252 29.2733 150.064 29.4348C149.876 29.5947 149.652 29.719 149.39 29.8078C149.13 29.895 148.84 29.9386 148.522 29.9386Z" fill="white" fill-opacity="0.37"/>
<path d="M155.736 26.1457L155.611 26.8239H153.27L153.392 26.1457H155.736ZM154.13 25.2544H155.091L154.454 28.747C154.434 28.8648 154.438 28.9553 154.464 29.0182C154.493 29.0796 154.538 29.1216 154.6 29.1442C154.663 29.1668 154.735 29.1781 154.815 29.1781C154.873 29.1781 154.928 29.174 154.979 29.166C155.031 29.1563 155.071 29.149 155.101 29.1442L155.144 29.8296C155.085 29.8458 155.007 29.8635 154.908 29.8829C154.81 29.9023 154.693 29.9136 154.557 29.9168C154.313 29.9216 154.101 29.8877 153.92 29.8151C153.741 29.7408 153.61 29.627 153.527 29.4736C153.446 29.3186 153.427 29.1248 153.471 28.8923L154.13 25.2544Z" fill="white" fill-opacity="0.37"/>
<path d="M157.307 27.6861L156.914 29.8659H155.95L156.853 24.9056H157.795L157.455 26.7779H157.506C157.635 26.5663 157.811 26.4 158.034 26.2789C158.259 26.1578 158.529 26.0973 158.844 26.0973C159.123 26.0973 159.359 26.1514 159.55 26.2596C159.741 26.3677 159.876 26.526 159.954 26.7343C160.033 26.9426 160.046 27.1969 159.993 27.4972L159.558 29.8659H158.594L159.003 27.6328C159.047 27.3826 159.011 27.188 158.894 27.0491C158.779 26.9087 158.597 26.8384 158.347 26.8384C158.176 26.8384 158.017 26.8723 157.872 26.9401C157.727 27.0063 157.605 27.1024 157.506 27.2284C157.409 27.3543 157.342 27.5069 157.307 27.6861Z" fill="white" fill-opacity="0.37"/>
<path d="M162.327 29.9386C161.918 29.9386 161.58 29.8611 161.313 29.7061C161.045 29.5495 160.858 29.3282 160.75 29.0425C160.644 28.755 160.626 28.4168 160.697 28.0276C160.766 27.6449 160.907 27.3091 161.119 27.0201C161.331 26.7294 161.597 26.5034 161.915 26.3419C162.236 26.1788 162.59 26.0973 162.977 26.0973C163.229 26.0973 163.46 26.1344 163.67 26.2087C163.881 26.2814 164.059 26.3944 164.204 26.5478C164.349 26.7012 164.449 26.8965 164.504 27.1339C164.559 27.3696 164.556 27.6506 164.496 27.9768L164.451 28.2456H161.106L161.209 27.6546H163.63C163.662 27.4867 163.652 27.3374 163.598 27.2066C163.545 27.0742 163.457 26.97 163.333 26.8941C163.209 26.8182 163.054 26.7803 162.868 26.7803C162.679 26.7803 162.502 26.8247 162.337 26.9135C162.175 27.0007 162.037 27.1137 161.926 27.2526C161.814 27.3914 161.744 27.5376 161.714 27.691L161.605 28.2577C161.566 28.4902 161.575 28.68 161.631 28.8269C161.688 28.9738 161.787 29.082 161.929 29.1514C162.07 29.2209 162.249 29.2556 162.465 29.2556C162.606 29.2556 162.737 29.2378 162.858 29.2023C162.978 29.1668 163.085 29.1135 163.179 29.0425C163.275 28.9698 163.354 28.881 163.418 28.776L164.297 28.8681C164.199 29.0844 164.057 29.2733 163.869 29.4348C163.682 29.5947 163.457 29.719 163.195 29.8078C162.935 29.895 162.645 29.9386 162.327 29.9386Z" fill="white" fill-opacity="0.37"/>
<path d="M166.868 29.8659L167.77 24.9056H168.731L168.397 26.7609H168.439C168.503 26.6705 168.589 26.5744 168.697 26.4727C168.807 26.3694 168.945 26.2814 169.114 26.2087C169.282 26.1344 169.485 26.0973 169.724 26.0973C170.039 26.0973 170.31 26.1707 170.537 26.3177C170.763 26.463 170.925 26.6786 171.022 26.9644C171.12 27.2485 171.131 27.5973 171.057 28.0107C170.983 28.4192 170.846 28.7663 170.648 29.0521C170.45 29.3379 170.21 29.5559 169.929 29.7061C169.647 29.8562 169.346 29.9313 169.026 29.9313C168.792 29.9313 168.605 29.8958 168.463 29.8248C168.323 29.7537 168.216 29.6681 168.142 29.568C168.068 29.4663 168.014 29.3702 167.98 29.2798H167.919L167.813 29.8659H166.868ZM168.15 28.0058C168.107 28.2464 168.107 28.4571 168.147 28.638C168.19 28.8188 168.273 28.9601 168.397 29.0618C168.522 29.1619 168.688 29.212 168.893 29.212C169.104 29.212 169.29 29.1603 169.451 29.057C169.614 28.952 169.748 28.8091 169.854 28.6283C169.96 28.4458 170.035 28.2383 170.077 28.0058C170.118 27.7749 170.118 27.5699 170.077 27.3906C170.038 27.2114 169.956 27.0709 169.83 26.9692C169.706 26.8675 169.538 26.8166 169.326 26.8166C169.119 26.8166 168.935 26.8659 168.774 26.9644C168.613 27.0629 168.479 27.2009 168.373 27.3785C168.267 27.5561 168.192 27.7652 168.15 28.0058Z" fill="white" fill-opacity="0.37"/>
<path d="M174.417 28.3013L174.813 26.1457H175.774L175.094 29.8659H174.162L174.284 29.2047H174.242C174.114 29.413 173.932 29.5834 173.695 29.7158C173.46 29.8482 173.189 29.9144 172.883 29.9144C172.615 29.9144 172.39 29.8603 172.206 29.7521C172.022 29.6423 171.891 29.4833 171.813 29.275C171.737 29.0651 171.725 28.8116 171.778 28.5145L172.214 26.1457H173.175L172.766 28.3788C172.725 28.6146 172.762 28.8019 172.877 28.9407C172.994 29.0796 173.168 29.149 173.398 29.149C173.539 29.149 173.682 29.1175 173.825 29.0546C173.97 28.9916 174.097 28.8979 174.205 28.7736C174.313 28.6477 174.383 28.4902 174.417 28.3013Z" fill="white" fill-opacity="0.37"/>
<path d="M176.032 29.8659L176.135 29.3089L178.671 26.9038L178.681 26.8723H176.648L176.783 26.1457H179.99L179.884 26.744L177.455 29.1078L177.444 29.1393H179.515L179.385 29.8659H176.032Z" fill="white" fill-opacity="0.37"/>
<path d="M180.237 29.8659L180.34 29.3089L182.876 26.9038L182.886 26.8723H180.853L180.988 26.1457H184.195L184.089 26.744L181.66 29.1078L181.649 29.1393H183.72L183.59 29.8659H180.237Z" fill="white" fill-opacity="0.37"/>
<path d="M186.347 29.8659L187.026 26.1457H187.987L187.308 29.8659H186.347ZM187.647 25.6129C187.493 25.6129 187.366 25.566 187.265 25.4724C187.164 25.3787 187.12 25.2665 187.132 25.1357C187.145 25.0049 187.209 24.8927 187.326 24.7991C187.445 24.7054 187.58 24.6586 187.732 24.6586C187.886 24.6586 188.013 24.7054 188.112 24.7991C188.213 24.8927 188.257 25.0049 188.245 25.1357C188.234 25.2665 188.17 25.3787 188.051 25.4724C187.934 25.566 187.8 25.6129 187.647 25.6129Z" fill="white" fill-opacity="0.37"/>
<path d="M192.015 27.1291L191.131 27.2162C191.122 27.1339 191.095 27.0572 191.049 26.9862C191.003 26.9151 190.934 26.8586 190.842 26.8166C190.751 26.773 190.635 26.7512 190.491 26.7512C190.282 26.7512 190.099 26.794 189.942 26.8796C189.784 26.9652 189.695 27.075 189.674 27.209C189.654 27.3091 189.681 27.3906 189.753 27.4536C189.826 27.5166 189.96 27.5699 190.157 27.6135L190.831 27.7491C191.203 27.825 191.47 27.9477 191.633 28.1172C191.797 28.2868 191.855 28.5088 191.805 28.7833C191.763 29.0126 191.653 29.2144 191.476 29.3888C191.299 29.5616 191.073 29.6964 190.797 29.7933C190.522 29.8902 190.218 29.9386 189.883 29.9386C189.375 29.9386 188.984 29.8425 188.71 29.6504C188.437 29.4566 188.302 29.1902 188.304 28.8511L189.249 28.7688C189.259 28.9367 189.324 29.0634 189.443 29.149C189.561 29.233 189.726 29.2758 189.936 29.2774C190.174 29.279 190.374 29.2338 190.536 29.1418C190.701 29.0481 190.794 28.9343 190.815 28.8002C190.833 28.7001 190.805 28.6186 190.733 28.5556C190.662 28.4927 190.536 28.4426 190.353 28.4055L189.684 28.2722C189.306 28.1964 189.036 28.068 188.875 27.8871C188.715 27.7047 188.661 27.4746 188.713 27.1969C188.755 26.9708 188.859 26.7762 189.023 26.6132C189.19 26.4485 189.403 26.3217 189.663 26.2329C189.923 26.1425 190.214 26.0973 190.536 26.0973C191.021 26.0973 191.387 26.1901 191.633 26.3758C191.879 26.5615 192.006 26.8126 192.015 27.1291Z" fill="white" fill-opacity="0.37"/>
<path d="M193.046 29.9192C192.884 29.9192 192.749 29.8676 192.643 29.7642C192.537 29.6609 192.487 29.5349 192.494 29.3864C192.501 29.2411 192.566 29.1175 192.688 29.0158C192.81 28.9141 192.951 28.8632 193.11 28.8632C193.268 28.8632 193.401 28.9149 193.511 29.0182C193.622 29.1216 193.673 29.2443 193.662 29.3864C193.655 29.4865 193.622 29.5769 193.561 29.6576C193.503 29.7384 193.429 29.8022 193.338 29.849C193.248 29.8958 193.151 29.9192 193.046 29.9192Z" fill="white" fill-opacity="0.37"/>
<path d="M195.215 29.9192C195.052 29.9192 194.917 29.8676 194.811 29.7642C194.705 29.6609 194.655 29.5349 194.662 29.3864C194.67 29.2411 194.734 29.1175 194.856 29.0158C194.978 28.9141 195.119 28.8632 195.278 28.8632C195.436 28.8632 195.57 28.9149 195.679 29.0182C195.791 29.1216 195.841 29.2443 195.831 29.3864C195.823 29.4865 195.79 29.5769 195.73 29.6576C195.671 29.7384 195.597 29.8022 195.507 29.849C195.416 29.8958 195.319 29.9192 195.215 29.9192Z" fill="white" fill-opacity="0.37"/>
<path d="M197.383 29.9192C197.22 29.9192 197.086 29.8676 196.979 29.7642C196.873 29.6609 196.824 29.5349 196.831 29.3864C196.838 29.2411 196.902 29.1175 197.025 29.0158C197.147 28.9141 197.287 28.8632 197.447 28.8632C197.604 28.8632 197.738 28.9149 197.847 29.0182C197.959 29.1216 198.009 29.2443 197.999 29.3864C197.992 29.4865 197.958 29.5769 197.898 29.6576C197.84 29.7384 197.765 29.8022 197.675 29.849C197.585 29.8958 197.487 29.9192 197.383 29.9192Z" fill="white" fill-opacity="0.37"/>
</svg>
