<svg width="147" height="41" viewBox="0 0 147 41" fill="none" xmlns="http://www.w3.org/2000/svg">
<path d="M6.16184 21.354H12.5492C13.6545 21.354 14.3826 20.2089 13.9127 19.2095L9.25952 9.26113C9.01462 8.73161 8.47848 8.39404 7.89601 8.39404H1.50869C0.403314 8.39404 -0.324774 9.53914 0.145175 10.5386L4.79833 20.487C5.04323 21.0165 5.57936 21.354 6.16184 21.354Z" fill="white"/>
<path d="M26.3297 27.4563H19.9424C18.837 27.4563 18.1089 28.6014 18.5789 29.6009L23.232 39.5492C23.4769 40.0787 24.0131 40.4163 24.5956 40.4163H30.9829C32.0883 40.4163 32.8164 39.2712 32.3464 38.2718L27.6933 28.3234C27.4483 27.7939 26.9122 27.4563 26.3297 27.4563Z" fill="white"/>
<path d="M30.9765 8.38727H24.5892C24.0068 8.38727 23.4706 8.72483 23.2257 9.25435L18.2615 19.8911C17.0237 22.5453 14.3563 24.2464 11.4307 24.2464H7.6446C7.06213 24.2464 6.52599 24.5839 6.28109 25.1135L0.145293 38.272C-0.318037 39.2715 0.410051 40.4166 1.5088 40.4166H7.89613C8.4786 40.4166 9.01473 40.079 9.25964 39.5495L14.2239 28.9127C15.4616 26.2585 18.1291 24.5575 21.0547 24.5575H24.8407C25.4232 24.5575 25.9594 24.2199 26.2043 23.6904L32.3401 10.5318C32.8034 9.53235 32.0753 8.38727 30.9765 8.38727Z" fill="white"/>
<mask id="mask0_2_1466" style="mask-type:luminance" maskUnits="userSpaceOnUse" x="9" y="0" width="12" height="11">
<path d="M16.9988 -3.21561e-05L9.69104 3.14566L12.8367 10.4534L20.1445 7.30769L16.9988 -3.21561e-05Z" fill="white"/>
</mask>
<g mask="url(#mask0_2_1466)">
<path d="M13.0126 5.20325C13.2311 5.11059 13.4495 4.98482 13.6613 4.84582C13.7672 4.77301 13.979 4.60753 14.1908 4.42882C14.5946 4.08463 14.6343 3.97872 14.6541 3.92577C14.6939 3.8331 14.6608 3.72059 14.5813 3.66102C14.5284 3.6213 14.4887 3.5816 14.4423 3.5485C14.3497 3.46908 14.257 3.39626 14.1379 3.31021C13.9194 3.15797 13.7275 3.05869 13.476 2.9594C13.1715 2.84026 12.8802 2.74097 12.4566 2.72773C12.0529 2.70788 11.6094 2.79392 11.2387 2.95278C10.6563 3.2043 10.2922 3.6213 10.2393 4.09787C10.1863 4.55458 10.4577 4.94511 11.0335 5.26282C11.3844 5.45477 11.9404 5.48125 12.3044 5.42829C12.5361 5.3952 12.7743 5.32239 13.0192 5.21648L13.0126 5.20325Z" fill="#FFA804"/>
<path d="M15.3758 3.38301C15.3758 3.38301 15.3957 3.36978 15.4089 3.36316C15.5744 3.25725 15.8259 2.84686 15.8259 2.84686C15.9318 2.66153 16.0046 2.48282 16.0509 2.27101C16.1502 1.83416 16.0112 1.36421 15.72 1.11931C15.528 0.960455 15.2897 0.920738 15.0713 1.0134C14.9257 1.07959 14.7933 1.19874 14.6742 1.37084C14.469 1.67531 14.4359 2.08569 14.5683 2.5093C14.6808 2.86673 14.9058 3.19106 15.1507 3.35653C15.2169 3.40287 15.303 3.40948 15.3692 3.37639L15.3758 3.38301Z" fill="#FFA804"/>
<path d="M18.6125 4.21037C17.9373 3.55509 16.9511 3.35651 16.0774 3.7007C16.0972 4.34936 16.4613 5.10392 17.0504 5.70625C17.6924 6.36815 18.5264 6.75206 19.2016 6.73221C19.506 5.87836 19.3075 4.88551 18.6191 4.21037H18.6125Z" fill="#FFA804"/>
<path d="M16.7128 6.03057C16.0972 5.40177 15.7067 4.64057 15.6272 3.93234C15.4882 4.02501 15.3559 4.13752 15.2367 4.25667C14.9521 4.5479 14.694 5.01786 14.4888 5.59372C14.7138 6.14309 15.0713 6.67922 15.5346 7.15579C16.0773 7.71178 16.7128 8.12217 17.3482 8.34722C17.4475 8.3075 17.5401 8.2744 17.6262 8.23469C18.1028 8.0295 18.4469 7.81769 18.6654 7.59264C18.7845 7.46688 18.8904 7.3345 18.9764 7.1955C18.2219 7.14255 17.3879 6.72555 16.7194 6.03718L16.7128 6.03057Z" fill="#FFA804"/>
<path d="M14.2901 6.26207C14.2768 6.32164 14.2636 6.38783 14.2437 6.4474C14.0385 7.3873 14.0385 8.2213 14.2437 8.69125C14.3298 8.89644 14.5946 8.92291 14.813 8.91629C15.0248 8.91629 15.3028 8.8832 15.6205 8.82363C15.9647 8.75744 16.3353 8.67139 16.6861 8.56548C16.1566 8.30734 15.6536 7.93668 15.2035 7.47335C14.8395 7.09607 14.5283 6.6857 14.2967 6.25546L14.2901 6.26207Z" fill="#FFA804"/>
</g>
<path d="M138.475 21.6436V18.812L144.261 13.7644V13.4566H138.68V11.5073H146.806V14.3389L141.019 19.3866V19.6944H146.97V21.6436H138.475Z" fill="white"/>
<path d="M127.835 21.6436V18.812L133.621 13.7644V13.4566H128.04V11.5073H136.165V14.3389L130.379 19.3866V19.6944H136.329V21.6436H127.835Z" fill="white"/>
<path d="M119.479 21.8078C118.699 21.8078 118.008 21.6368 117.407 21.2948C116.805 20.9392 116.34 20.4467 116.011 19.8175C115.683 19.1745 115.519 18.429 115.519 17.5809V11.5073H117.858V17.3962C117.858 18.217 118.056 18.8257 118.453 19.2224C118.863 19.6191 119.438 19.8175 120.177 19.8175C121.011 19.8175 121.668 19.5439 122.146 18.9967C122.639 18.4495 122.885 17.663 122.885 16.637V11.5073H125.224V21.6436H122.926V20.2278H122.577C122.399 20.5972 122.071 20.9528 121.592 21.2948C121.127 21.6368 120.423 21.8078 119.479 21.8078Z" fill="white"/>
<path d="M101.441 21.6438V19.4688H103.369V9.45561H101.441V7.28061H108.786C109.648 7.28061 110.4 7.43108 111.043 7.73202C111.7 8.01929 112.206 8.43651 112.562 8.98368C112.931 9.51717 113.116 10.1601 113.116 10.9125V11.0971C113.116 11.7537 112.993 12.2941 112.746 12.7181C112.5 13.1422 112.206 13.4705 111.864 13.703C111.522 13.9356 111.194 14.0997 110.879 14.1955V14.5443C111.194 14.6264 111.529 14.7837 111.885 15.0162C112.254 15.2351 112.562 15.5634 112.808 16.0011C113.068 16.4252 113.198 16.9792 113.198 17.6632V17.8683C113.198 18.6481 113.006 19.3252 112.623 19.8997C112.254 20.4606 111.741 20.8915 111.084 21.1924C110.441 21.4933 109.696 21.6438 108.848 21.6438H101.441ZM105.832 19.4073H108.561C109.217 19.4073 109.737 19.25 110.12 18.9353C110.517 18.607 110.715 18.1488 110.715 17.5606V17.3759C110.715 16.7877 110.524 16.3363 110.141 16.0216C109.758 15.6933 109.231 15.5292 108.561 15.5292H105.832V19.4073ZM105.832 13.2926H108.54C109.169 13.2926 109.675 13.1353 110.058 12.8207C110.455 12.5061 110.654 12.0683 110.654 11.5075V11.3023C110.654 10.7415 110.455 10.3037 110.058 9.9891C109.675 9.67448 109.169 9.51717 108.54 9.51717H105.832V13.2926Z" fill="white"/>
<path d="M89.3706 21.6438V7.28061H91.7303V12.8412H92.0791C92.1885 12.6087 92.3664 12.3761 92.6126 12.1436C92.8588 11.911 93.1803 11.7195 93.577 11.5691C93.9874 11.4186 94.5003 11.3433 95.1159 11.3433C95.8956 11.3433 96.5864 11.5212 97.1883 11.8768C97.7902 12.2188 98.2553 12.7044 98.5836 13.3337C98.9256 13.9629 99.0966 14.7084 99.0966 15.5702V21.6438H96.7369V15.7549C96.7369 14.9341 96.5317 14.3254 96.1213 13.9287C95.7246 13.5183 95.1569 13.3132 94.4182 13.3132C93.5838 13.3132 92.9272 13.5936 92.4484 14.1544C91.9697 14.7016 91.7303 15.4882 91.7303 16.5141V21.6438H89.3706Z" fill="white"/>
<path d="M82.0282 21.9312C81.0433 21.9312 80.1542 21.726 79.3608 21.3156C78.5674 20.9052 77.9381 20.3102 77.473 19.5305C77.0216 18.7508 76.7959 17.8137 76.7959 16.7194V16.4321C76.7959 15.3378 77.0216 14.4008 77.473 13.621C77.9381 12.8413 78.5674 12.2463 79.3608 11.8359C80.1542 11.4255 81.0433 11.2203 82.0282 11.2203C82.9994 11.2203 83.827 11.3913 84.511 11.7333C85.2086 12.0753 85.7695 12.5472 86.1935 13.1491C86.6176 13.7373 86.8912 14.4008 87.0143 15.1394L84.7367 15.6114C84.682 15.1873 84.552 14.8043 84.3468 14.4623C84.1417 14.1067 83.8476 13.8262 83.4645 13.621C83.0952 13.4159 82.6369 13.3133 82.0898 13.3133C81.5289 13.3133 81.0228 13.4364 80.5714 13.6826C80.1336 13.9151 79.7848 14.2708 79.5249 14.7496C79.2787 15.2284 79.1556 15.8029 79.1556 16.4732V16.6784C79.1556 17.3486 79.2787 17.9232 79.5249 18.4019C79.7848 18.867 80.1336 19.2227 80.5714 19.4689C81.0228 19.7152 81.5289 19.8383 82.0898 19.8383C82.9242 19.8383 83.5534 19.6262 83.9775 19.2022C84.4152 18.7644 84.6888 18.2036 84.7983 17.5196L87.0759 18.0531C86.9117 18.7644 86.6176 19.4142 86.1935 20.0024C85.7695 20.5906 85.2086 21.0626 84.511 21.4182C83.827 21.7602 82.9994 21.9312 82.0282 21.9312Z" fill="white"/>
<path d="M70.003 21.9312C68.9907 21.9312 68.0948 21.7192 67.315 21.2951C66.549 20.8574 65.9471 20.2486 65.5094 19.4689C65.0853 18.6755 64.8733 17.7522 64.8733 16.6989V16.4526C64.8733 15.3857 65.0853 14.4623 65.5094 13.6826C65.9334 12.9029 66.5285 12.301 67.2945 11.8769C68.0606 11.4392 68.9429 11.2203 69.9415 11.2203C70.9264 11.2203 71.7882 11.4392 72.5268 11.8769C73.2655 12.301 73.84 12.9029 74.2504 13.6826C74.6608 14.4623 74.866 15.372 74.866 16.4116V17.2529H67.2535C67.2808 18.0463 67.5613 18.6824 68.0948 19.1611C68.6282 19.6399 69.2848 19.8793 70.0646 19.8793C70.8306 19.8793 71.3983 19.7152 71.7676 19.3868C72.137 19.0449 72.4174 18.6618 72.6089 18.2378L74.5582 19.2432C74.3667 19.6126 74.0863 20.0093 73.7169 20.4333C73.3613 20.8437 72.8825 21.1993 72.2806 21.5003C71.6787 21.7876 70.9195 21.9312 70.003 21.9312ZM67.274 15.4677H72.4653C72.4106 14.7975 72.1507 14.264 71.6856 13.8673C71.2341 13.4706 70.6459 13.2722 69.9209 13.2722C69.1686 13.2722 68.5667 13.4706 68.1153 13.8673C67.6639 14.264 67.3834 14.7975 67.274 15.4677Z" fill="white"/>
<path d="M58.5701 21.6438V9.51717H54.2816V7.28061H65.3208V9.51717H61.0323V21.6438H58.5701Z" fill="white"/>
<path d="M41.0961 21.6438L45.4256 14.4007L41.1576 7.28064H43.9687L47.026 12.6566H47.3748L50.4116 7.28064H53.2432L48.9753 14.4007L53.2843 21.6438H50.4732L47.3748 16.1448H47.026L43.9277 21.6438H41.0961Z" fill="white"/>
<g opacity="0.37">
<path d="M66.2483 33.7723L67.1535 28.7977H69.2408C69.6348 28.7977 69.9525 28.8544 70.1939 28.9677C70.4353 29.0794 70.603 29.2325 70.6971 29.4268C70.7929 29.6211 70.8178 29.8413 70.7716 30.0875C70.7343 30.2883 70.6598 30.4607 70.548 30.6049C70.4379 30.7474 70.303 30.8639 70.1433 30.9546C69.9836 31.0437 69.8123 31.1077 69.6295 31.1465L69.6188 31.1951C69.8105 31.2032 69.9862 31.2566 70.146 31.3554C70.3057 31.4542 70.4264 31.5934 70.508 31.7732C70.5897 31.9513 70.6083 32.1659 70.564 32.4169C70.516 32.6743 70.4051 32.9059 70.2312 33.1116C70.0572 33.3156 69.8212 33.4767 69.523 33.5949C69.2266 33.7131 68.8707 33.7723 68.4554 33.7723H66.2483ZM67.3745 33.0193H68.4367C68.7935 33.0193 69.0633 32.9569 69.2461 32.8322C69.4289 32.7059 69.5381 32.544 69.5736 32.3464C69.6002 32.1991 69.5842 32.0663 69.5256 31.9481C69.4671 31.8283 69.3703 31.7343 69.2354 31.6663C69.1006 31.5967 68.9319 31.5619 68.7296 31.5619H67.638L67.3745 33.0193ZM67.7605 30.9133H68.7376C68.908 30.9133 69.0659 30.885 69.2115 30.8283C69.3588 30.77 69.4813 30.6882 69.5789 30.583C69.6783 30.4761 69.7395 30.3498 69.7626 30.2041C69.7999 30.0114 69.7555 29.8527 69.6295 29.728C69.5035 29.6033 69.2958 29.541 69.0065 29.541H68.0054L67.7605 30.9133Z" fill="white"/>
<path d="M72.9328 33.8451C72.5228 33.8451 72.1838 33.7674 71.9158 33.6119C71.6478 33.4549 71.4596 33.233 71.3513 32.9464C71.2449 32.6582 71.2271 32.3189 71.2981 31.9286C71.3673 31.5449 71.5084 31.208 71.7214 30.9182C71.9344 30.6267 72.2006 30.4 72.5201 30.2381C72.8414 30.0745 73.1964 29.9927 73.5851 29.9927C73.8371 29.9927 74.0687 30.03 74.2799 30.1045C74.4911 30.1773 74.6695 30.2907 74.8151 30.4445C74.9606 30.5984 75.0609 30.7943 75.1159 31.0324C75.1709 31.2688 75.1683 31.5505 75.1079 31.8776L75.0627 32.1473H71.7081L71.8119 31.5546H74.24C74.2719 31.3862 74.2613 31.2364 74.208 31.1052C74.1548 30.9724 74.0661 30.868 73.9418 30.7919C73.8176 30.7158 73.6623 30.6777 73.4759 30.6777C73.286 30.6777 73.1085 30.7223 72.9434 30.8113C72.7801 30.8988 72.6426 31.0121 72.5308 31.1514C72.4189 31.2906 72.3479 31.4372 72.3178 31.591L72.2086 32.1594C72.1696 32.3926 72.1784 32.5829 72.2352 32.7302C72.292 32.8776 72.3914 32.9861 72.5334 33.0557C72.6754 33.1253 72.8547 33.1601 73.0712 33.1601C73.2132 33.1601 73.3446 33.1423 73.4652 33.1067C73.5859 33.0711 73.6933 33.0176 73.7874 32.9464C73.8832 32.8735 73.9631 32.7845 74.027 32.6792L74.9082 32.7715C74.8106 32.9885 74.6677 33.178 74.4796 33.3399C74.2915 33.5002 74.0661 33.6249 73.8034 33.714C73.5425 33.8014 73.2523 33.8451 72.9328 33.8451Z" fill="white"/>
<path d="M78.2881 33.7723L77.8142 30.0413H78.7966L79.0362 32.6646H79.0735L80.2875 30.0413H81.2593L81.5149 32.6501H81.5548L82.7422 30.0413H83.7273L81.8876 33.7723H80.8839L80.575 31.251H80.5191L79.2945 33.7723H78.2881Z" fill="white"/>
<path d="M85.0817 31.5862L84.6877 33.7723H83.7213L84.6265 28.7977H85.5716L85.2308 30.6753H85.2814C85.411 30.4632 85.5876 30.2964 85.8112 30.1749C86.0366 30.0535 86.3073 29.9927 86.6232 29.9927C86.9037 29.9927 87.1397 30.047 87.3314 30.1555C87.5231 30.264 87.658 30.4227 87.7361 30.6316C87.816 30.8405 87.8293 31.0955 87.776 31.3967L87.3394 33.7723H86.373L86.783 31.5327C86.8273 31.2817 86.791 31.0866 86.6738 30.9473C86.5584 30.8065 86.3756 30.736 86.1254 30.736C85.9532 30.736 85.7944 30.77 85.6488 30.838C85.5033 30.9044 85.3808 31.0008 85.2814 31.1271C85.1838 31.2534 85.1172 31.4064 85.0817 31.5862Z" fill="white"/>
<path d="M90.1162 33.8451C89.7062 33.8451 89.3672 33.7674 89.0992 33.6119C88.8312 33.4549 88.6431 33.233 88.5348 32.9464C88.4283 32.6582 88.4106 32.3189 88.4815 31.9286C88.5508 31.5449 88.6919 31.208 88.9049 30.9182C89.1178 30.6267 89.3841 30.4 89.7036 30.2381C90.0248 30.0745 90.3798 29.9927 90.7685 29.9927C91.0205 29.9927 91.2522 30.03 91.4634 30.1045C91.6746 30.1773 91.853 30.2907 91.9985 30.4445C92.1441 30.5984 92.2443 30.7943 92.2994 31.0324C92.3544 31.2688 92.3517 31.5505 92.2914 31.8776L92.2461 32.1473H88.8915L88.9954 31.5546H91.4234C91.4554 31.3862 91.4447 31.2364 91.3915 31.1052C91.3382 30.9724 91.2495 30.868 91.1253 30.7919C91.001 30.7158 90.8457 30.6777 90.6593 30.6777C90.4694 30.6777 90.2919 30.7223 90.1269 30.8113C89.9636 30.8988 89.826 31.0121 89.7142 31.1514C89.6024 31.2906 89.5314 31.4372 89.5012 31.591L89.3921 32.1594C89.353 32.3926 89.3619 32.5829 89.4187 32.7302C89.4755 32.8776 89.5749 32.9861 89.7169 33.0557C89.8589 33.1253 90.0381 33.1601 90.2547 33.1601C90.3967 33.1601 90.528 33.1423 90.6487 33.1067C90.7694 33.0711 90.8768 33.0176 90.9708 32.9464C91.0667 32.8735 91.1466 32.7845 91.2105 32.6792L92.0917 32.7715C91.9941 32.9885 91.8512 33.178 91.6631 33.3399C91.4749 33.5002 91.2495 33.6249 90.9868 33.714C90.7259 33.8014 90.4357 33.8451 90.1162 33.8451Z" fill="white"/>
<path d="M92.7679 33.7723L93.4495 30.0413H94.384L94.2695 30.6631H94.3121C94.4239 30.4478 94.5819 30.2818 94.786 30.1652C94.9919 30.047 95.212 29.9879 95.4462 29.9879C95.5013 29.9879 95.5607 29.9903 95.6246 29.9952C95.6885 29.9984 95.7435 30.0041 95.7897 30.0122L95.6406 30.821C95.5998 30.8081 95.5359 30.7967 95.4489 30.787C95.3637 30.7757 95.2794 30.77 95.196 30.77C95.0203 30.77 94.857 30.8048 94.7061 30.8745C94.557 30.9425 94.431 31.0372 94.3281 31.1587C94.2251 31.2801 94.1586 31.4202 94.1284 31.5789L93.7317 33.7723H92.7679Z" fill="white"/>
<path d="M97.3791 33.8451C96.9691 33.8451 96.6301 33.7674 96.3621 33.6119C96.0941 33.4549 95.9059 33.233 95.7977 32.9464C95.6912 32.6582 95.6734 32.3189 95.7444 31.9286C95.8137 31.5449 95.9548 31.208 96.1677 30.9182C96.3807 30.6267 96.647 30.4 96.9664 30.2381C97.2877 30.0745 97.6427 29.9927 98.0314 29.9927C98.2834 29.9927 98.515 30.03 98.7263 30.1045C98.9375 30.1773 99.1158 30.2907 99.2614 30.4445C99.4069 30.5984 99.5072 30.7943 99.5622 31.0324C99.6173 31.2688 99.6146 31.5505 99.5542 31.8776L99.509 32.1473H96.1544L96.2583 31.5546H98.6863C98.7183 31.3862 98.7076 31.2364 98.6544 31.1052C98.6011 30.9724 98.5124 30.868 98.3881 30.7919C98.2639 30.7158 98.1086 30.6777 97.9222 30.6777C97.7323 30.6777 97.5548 30.7223 97.3898 30.8113C97.2265 30.8988 97.0889 31.0121 96.9771 31.1514C96.8653 31.2906 96.7943 31.4372 96.7641 31.591L96.655 32.1594C96.6159 32.3926 96.6248 32.5829 96.6816 32.7302C96.7384 32.8776 96.8378 32.9861 96.9798 33.0557C97.1218 33.1253 97.301 33.1601 97.5176 33.1601C97.6595 33.1601 97.7909 33.1423 97.9116 33.1067C98.0323 33.0711 98.1397 33.0176 98.2337 32.9464C98.3296 32.8735 98.4094 32.7845 98.4733 32.6792L99.3546 32.7715C99.257 32.9885 99.1141 33.178 98.9259 33.3399C98.7378 33.5002 98.5124 33.6249 98.2497 33.714C97.9888 33.8014 97.6986 33.8451 97.3791 33.8451Z" fill="white"/>
<path d="M104.614 30.0413L104.489 30.7214H102.141L102.263 30.0413H104.614ZM103.003 29.1475H103.967L103.328 32.6501C103.309 32.7683 103.312 32.859 103.339 32.9221C103.367 32.9836 103.412 33.0257 103.475 33.0484C103.538 33.0711 103.61 33.0824 103.69 33.0824C103.749 33.0824 103.804 33.0784 103.855 33.0703C103.907 33.0606 103.948 33.0533 103.978 33.0484L104.02 33.7358C103.962 33.752 103.883 33.7698 103.783 33.7893C103.686 33.8087 103.569 33.82 103.432 33.8233C103.187 33.8281 102.974 33.7941 102.793 33.7212C102.614 33.6468 102.482 33.5326 102.399 33.3788C102.317 33.2233 102.299 33.029 102.343 32.7958L103.003 29.1475Z" fill="white"/>
<path d="M106.189 31.5862L105.795 33.7723H104.829L105.734 28.7977H106.679L106.339 30.6753H106.389C106.519 30.4632 106.695 30.2964 106.919 30.1749C107.144 30.0535 107.415 29.9927 107.731 29.9927C108.011 29.9927 108.247 30.047 108.439 30.1555C108.631 30.264 108.766 30.4227 108.844 30.6316C108.924 30.8405 108.937 31.0955 108.884 31.3967L108.447 33.7723H107.481L107.891 31.5327C107.935 31.2817 107.899 31.0866 107.782 30.9473C107.666 30.8065 107.483 30.736 107.233 30.736C107.061 30.736 106.902 30.77 106.757 30.838C106.611 30.9044 106.489 31.0008 106.389 31.1271C106.292 31.2534 106.225 31.4064 106.189 31.5862Z" fill="white"/>
<path d="M111.224 33.8451C110.814 33.8451 110.475 33.7674 110.207 33.6119C109.939 33.4549 109.751 33.233 109.643 32.9464C109.536 32.6582 109.518 32.3189 109.589 31.9286C109.659 31.5449 109.8 31.208 110.013 30.9182C110.226 30.6267 110.492 30.4 110.811 30.2381C111.133 30.0745 111.488 29.9927 111.876 29.9927C112.128 29.9927 112.36 30.03 112.571 30.1045C112.782 30.1773 112.961 30.2907 113.106 30.4445C113.252 30.5984 113.352 30.7943 113.407 31.0324C113.462 31.2688 113.459 31.5505 113.399 31.8776L113.354 32.1473H109.999L110.103 31.5546H112.531C112.563 31.3862 112.552 31.2364 112.499 31.1052C112.446 30.9724 112.357 30.868 112.233 30.7919C112.109 30.7158 111.953 30.6777 111.767 30.6777C111.577 30.6777 111.4 30.7223 111.235 30.8113C111.071 30.8988 110.934 31.0121 110.822 31.1514C110.71 31.2906 110.639 31.4372 110.609 31.591L110.5 32.1594C110.461 32.3926 110.47 32.5829 110.526 32.7302C110.583 32.8776 110.683 32.9861 110.825 33.0557C110.967 33.1253 111.146 33.1601 111.362 33.1601C111.504 33.1601 111.636 33.1423 111.756 33.1067C111.877 33.0711 111.985 33.0176 112.079 32.9464C112.174 32.8735 112.254 32.7845 112.318 32.6792L113.199 32.7715C113.102 32.9885 112.959 33.178 112.771 33.3399C112.583 33.5002 112.357 33.6249 112.095 33.714C111.834 33.8014 111.543 33.8451 111.224 33.8451Z" fill="white"/>
<path d="M115.778 33.7723L116.683 28.7977H117.647L117.311 30.6583H117.354C117.418 30.5676 117.504 30.4713 117.612 30.3692C117.722 30.2656 117.862 30.1773 118.03 30.1045C118.199 30.03 118.403 29.9927 118.643 29.9927C118.959 29.9927 119.23 30.0664 119.457 30.2138C119.684 30.3595 119.847 30.5757 119.944 30.8623C120.042 31.1473 120.054 31.4971 119.979 31.9116C119.905 32.3213 119.768 32.6695 119.569 32.9561C119.37 33.2427 119.13 33.4613 118.848 33.6119C118.565 33.7625 118.264 33.8378 117.942 33.8378C117.708 33.8378 117.52 33.8022 117.378 33.731C117.238 33.6597 117.13 33.5739 117.056 33.4735C116.981 33.3715 116.927 33.2751 116.893 33.1844H116.832L116.726 33.7723H115.778ZM117.064 31.9068C117.021 32.1481 117.02 32.3594 117.061 32.5408C117.104 32.7221 117.187 32.8638 117.311 32.9658C117.437 33.0662 117.603 33.1164 117.809 33.1164C118.021 33.1164 118.207 33.0646 118.368 32.961C118.532 32.8557 118.667 32.7124 118.773 32.531C118.88 32.3481 118.954 32.14 118.997 31.9068C119.038 31.6752 119.038 31.4696 118.997 31.2898C118.958 31.1101 118.875 30.9692 118.749 30.8672C118.625 30.7652 118.456 30.7142 118.243 30.7142C118.036 30.7142 117.851 30.7635 117.689 30.8623C117.528 30.9611 117.394 31.0996 117.287 31.2777C117.181 31.4558 117.106 31.6655 117.064 31.9068Z" fill="white"/>
<path d="M123.349 32.2031L123.746 30.0413H124.709L124.028 33.7723H123.093L123.216 33.1091H123.173C123.045 33.318 122.863 33.4889 122.625 33.6217C122.389 33.7544 122.117 33.8208 121.81 33.8208C121.542 33.8208 121.316 33.7666 121.131 33.6581C120.947 33.548 120.815 33.3885 120.737 33.1796C120.661 32.9691 120.649 32.7148 120.703 32.4169L121.139 30.0413H122.103L121.693 32.2809C121.652 32.5173 121.689 32.7051 121.805 32.8444C121.922 32.9836 122.096 33.0533 122.327 33.0533C122.469 33.0533 122.611 33.0217 122.755 32.9585C122.901 32.8954 123.028 32.8015 123.136 32.6768C123.244 32.5505 123.315 32.3926 123.349 32.2031Z" fill="white"/>
<path d="M124.968 33.7723L125.072 33.2136L127.615 30.8016L127.625 30.77H125.586L125.722 30.0413H128.938L128.831 30.6413L126.395 33.012L126.385 33.0436H128.461L128.331 33.7723H124.968Z" fill="white"/>
<path d="M129.186 33.7723L129.289 33.2136L131.832 30.8016L131.843 30.77H129.803L129.939 30.0413H133.155L133.049 30.6413L130.613 33.012L130.602 33.0436H132.678L132.548 33.7723H129.186Z" fill="white"/>
<path d="M135.313 33.7723L135.994 30.0413H136.958L136.277 33.7723H135.313ZM136.617 29.5069C136.463 29.5069 136.335 29.46 136.234 29.3661C136.133 29.2721 136.089 29.1596 136.101 29.0284C136.113 28.8973 136.178 28.7847 136.295 28.6908C136.414 28.5969 136.55 28.5499 136.703 28.5499C136.857 28.5499 136.984 28.5969 137.083 28.6908C137.185 28.7847 137.229 28.8973 137.216 29.0284C137.206 29.1596 137.141 29.2721 137.022 29.3661C136.905 29.46 136.77 29.5069 136.617 29.5069Z" fill="white"/>
<path d="M140.998 31.0275L140.111 31.1149C140.102 31.0324 140.075 30.9554 140.029 30.8842C139.982 30.8129 139.913 30.7563 139.821 30.7142C139.73 30.6704 139.613 30.6486 139.469 30.6486C139.26 30.6486 139.076 30.6915 138.918 30.7773C138.76 30.8631 138.671 30.9732 138.649 31.1077C138.63 31.208 138.657 31.2898 138.729 31.353C138.802 31.4161 138.937 31.4696 139.134 31.5133L139.81 31.6493C140.183 31.7254 140.451 31.8485 140.614 32.0185C140.779 32.1886 140.837 32.4112 140.787 32.6865C140.745 32.9164 140.635 33.1189 140.457 33.2937C140.28 33.467 140.053 33.6022 139.776 33.6994C139.501 33.7965 139.195 33.8451 138.86 33.8451C138.35 33.8451 137.958 33.7488 137.683 33.5561C137.41 33.3618 137.274 33.0946 137.276 32.7545L138.224 32.6719C138.234 32.8403 138.299 32.9674 138.418 33.0533C138.537 33.1375 138.702 33.1804 138.913 33.182C139.151 33.1836 139.351 33.1383 139.515 33.046C139.68 32.9521 139.773 32.8379 139.794 32.7035C139.812 32.6031 139.785 32.5213 139.712 32.4582C139.641 32.395 139.514 32.3448 139.331 32.3076L138.66 32.174C138.28 32.0979 138.01 31.9691 137.848 31.7878C137.688 31.6048 137.634 31.374 137.686 31.0955C137.728 30.8688 137.832 30.6737 137.997 30.5101C138.164 30.3449 138.378 30.2178 138.639 30.1288C138.9 30.0381 139.192 29.9927 139.515 29.9927C140.001 29.9927 140.368 30.0859 140.614 30.2721C140.861 30.4583 140.989 30.7101 140.998 31.0275Z" fill="white"/>
<path d="M142.032 33.8257C141.869 33.8257 141.734 33.7739 141.627 33.6702C141.521 33.5666 141.471 33.4403 141.478 33.2913C141.485 33.1456 141.55 33.0217 141.673 32.9197C141.795 32.8177 141.936 32.7666 142.096 32.7666C142.254 32.7666 142.388 32.8185 142.498 32.9221C142.61 33.0257 142.66 33.1488 142.65 33.2913C142.643 33.3917 142.609 33.4824 142.548 33.5634C142.49 33.6443 142.415 33.7083 142.325 33.7552C142.234 33.8022 142.137 33.8257 142.032 33.8257Z" fill="white"/>
<path d="M144.206 33.8257C144.043 33.8257 143.908 33.7739 143.802 33.6702C143.695 33.5666 143.646 33.4403 143.653 33.2913C143.66 33.1456 143.725 33.0217 143.847 32.9197C143.97 32.8177 144.111 32.7666 144.27 32.7666C144.428 32.7666 144.562 32.8185 144.672 32.9221C144.784 33.0257 144.835 33.1488 144.824 33.2913C144.817 33.3917 144.783 33.4824 144.723 33.5634C144.664 33.6443 144.59 33.7083 144.499 33.7552C144.409 33.8022 144.311 33.8257 144.206 33.8257Z" fill="white"/>
<path d="M146.381 33.8257C146.218 33.8257 146.083 33.7739 145.976 33.6702C145.87 33.5666 145.82 33.4403 145.827 33.2913C145.834 33.1456 145.899 33.0217 146.022 32.9197C146.144 32.8177 146.285 32.7666 146.445 32.7666C146.603 32.7666 146.737 32.8185 146.847 32.9221C146.959 33.0257 147.009 33.1488 146.999 33.2913C146.991 33.3917 146.958 33.4824 146.897 33.5634C146.839 33.6443 146.764 33.7083 146.674 33.7552C146.583 33.8022 146.486 33.8257 146.381 33.8257Z" fill="white"/>
</g>
</svg>
